<mxfile host="app.diagrams.net" agent="Mozilla/5.0 (Windows NT 10.0; Win64; x64) AppleWebKit/537.36 (KHTML, like Gecko) Chrome/140.0.0.0 Safari/537.36" version="28.2.3" pages="2">
  <diagram name="Блок схема алгоритма 1" id="b4iM_M4vJ2Pepjihtl8y">
    <mxGraphModel dx="1389" dy="749" grid="1" gridSize="10" guides="1" tooltips="1" connect="1" arrows="1" fold="1" page="1" pageScale="1" pageWidth="827" pageHeight="1169" math="0" shadow="0">
      <root>
        <mxCell id="yhz_Zr8qX37oR2WssUpI-0" />
        <mxCell id="yhz_Zr8qX37oR2WssUpI-1" parent="yhz_Zr8qX37oR2WssUpI-0" />
        <UserObject label="&lt;div style=&quot;font-size: 1px&quot;&gt;&lt;font style=&quot;font-size:11.29px;font-family:GOST type B;color:#000000;direction:ltr;letter-spacing:0px;line-height:120%;opacity:1&quot;&gt;&lt;i&gt;Нет&lt;/i&gt;&lt;/font&gt;&lt;font style=&quot;font-size:11.29px;font-family:Arial;color:#000000;direction:ltr;letter-spacing:0px;line-height:120%;opacity:1&quot;&gt;&lt;br/&gt;&lt;/font&gt;&lt;/div&gt;" tags="Соединительная_линия" id="yhz_Zr8qX37oR2WssUpI-181">
          <mxCell style="vsdxID=1082;edgeStyle=none;startArrow=none;endArrow=block;startSize=5;endSize=5;strokeColor=#000000;spacingTop=0;spacingBottom=0;spacingLeft=0;spacingRight=0;verticalAlign=middle;html=1;labelBackgroundColor=#ffffff;rounded=0;align=center;exitX=1;exitY=0.5;exitDx=0;exitDy=0;exitPerimeter=0;entryX=0.5;entryY=0;entryDx=0;entryDy=0;entryPerimeter=0;" parent="yhz_Zr8qX37oR2WssUpI-1" edge="1">
            <mxGeometry relative="1" as="geometry">
              <mxPoint x="-60" y="-122" as="offset" />
              <Array as="points">
                <mxPoint x="810" y="690" />
                <mxPoint x="810" y="820.48" />
                <mxPoint x="658" y="820.48" />
              </Array>
              <mxPoint x="738" y="690" as="sourcePoint" />
            </mxGeometry>
          </mxCell>
        </UserObject>
        <mxCell id="yhz_Zr8qX37oR2WssUpI-205" style="fontFamily=GOST type B Standard;" parent="yhz_Zr8qX37oR2WssUpI-1" vertex="1">
          <mxGeometry x="60" y="11" as="geometry" />
        </mxCell>
        <UserObject label="" tags="Блок-схема Соединительная_линия Flowchart Background Блок-схема Соединительная_линия Flowchart Background Незакрепленное_оборудование Мебель" id="yhz_Zr8qX37oR2WssUpI-232">
          <mxCell parent="yhz_Zr8qX37oR2WssUpI-1" vertex="1" visible="0">
            <mxGeometry as="geometry" />
          </mxCell>
        </UserObject>
        <UserObject label="&lt;div style=&quot;font-size: 1px&quot;&gt;&lt;font style=&quot;font-size: 11.29px; color: rgb(0, 0, 0); direction: ltr; letter-spacing: 0px; line-height: 120%; opacity: 1;&quot;&gt;&lt;i&gt;Начало&lt;/i&gt;&lt;/font&gt;&lt;font style=&quot;font-size: 15.52px; color: rgb(0, 0, 0); direction: ltr; letter-spacing: 0px; line-height: 120%; opacity: 1;&quot;&gt;&lt;br&gt;&lt;/font&gt;&lt;/div&gt;" tags="Блок-схема" id="2xx8nG_RzWmWFD2ZeUco-5">
          <mxCell style="verticalAlign=middle;align=center;overflow=width;vsdxID=567;fillColor=#FFFFFF;gradientColor=none;shape=stencil(tVLLDsIgEPwajiQIMfFe638Qu22JCM2Ctv69kK0Rm9qDibeZndkXC1NV6PUATIoQ0V9gNE3smToyKY3rAU1MiKmaqar1CB36m2uIDzo7M7r6e64wUZ4UOUWKB9GdIH4irzWu8B42vRrPScNFXZzN+5mvl3qJXE8mcPRRR+Pdh2Y1dsBTE95a3c0TkBRGgKEIb6wg1/r+ssCXd/vLCgm8z9caa+n6pb48dwrRV1H1Ew==);strokeColor=#000000;spacingTop=-1;spacingBottom=-1;spacingLeft=-1;spacingRight=-1;points=[[0.5,1,0],[0.5,0,0],[0,0.5,0],[1,0.5,0]];labelBackgroundColor=none;rounded=0;html=1;whiteSpace=wrap;fontFamily=GOST type B Standard;" parent="yhz_Zr8qX37oR2WssUpI-1" vertex="1">
            <mxGeometry x="453.18" y="25.120000000000005" width="100" height="40" as="geometry" />
          </mxCell>
        </UserObject>
        <UserObject label="&lt;div style=&quot;&quot;&gt;&lt;p style=&quot;text-align: center; margin: 0px; text-indent: 0px; vertical-align: middle; direction: rtl;&quot;&gt;&lt;i style=&quot;font-size: 11.29px;&quot;&gt;Чтение файла input.txt&lt;/i&gt;&lt;/p&gt;&lt;/div&gt;" tags="Блок-схема" id="2xx8nG_RzWmWFD2ZeUco-6">
          <mxCell style="verticalAlign=middle;align=center;overflow=width;vsdxID=583;fillColor=#FFFFFF;gradientColor=none;shape=stencil(nZBLDoAgDERP0z3SIyjew0SURgSD+Lu9kMZoXLhwN9O+tukAlrNpJg1SzDH4QW/URgNYgZTkjA4UkwJUgGXng+6DX1zLfmoymdXo17xh5zmRJ6Q42BWCfc2oJfdAr+Yv+AP9Cb7OJ3H/2JG1HNGz/84klThPVCc=);strokeColor=#000000;spacingTop=-1;spacingBottom=-1;spacingLeft=-1;spacingRight=-1;points=[[1,0.5,0],[0.5,0.5,0],[0.5,0,0]];labelBackgroundColor=none;rounded=0;html=1;whiteSpace=wrap;fontFamily=GOST type B Standard;" parent="yhz_Zr8qX37oR2WssUpI-1" vertex="1">
            <mxGeometry x="433.18" y="83.12" width="139" height="38" as="geometry" />
          </mxCell>
        </UserObject>
        <UserObject label="" tags="Соединительная_линия" id="2xx8nG_RzWmWFD2ZeUco-13">
          <mxCell style="vsdxID=585;edgeStyle=none;startArrow=none;endArrow=none;startSize=5;endSize=5;strokeColor=#000000;spacingTop=0;spacingBottom=0;spacingLeft=0;spacingRight=0;verticalAlign=middle;html=1;labelBackgroundColor=#ffffff;rounded=0;exitX=0.494;exitY=0.999;exitDx=0;exitDy=0;exitPerimeter=0;entryX=0.5;entryY=0;entryDx=0;entryDy=0;entryPerimeter=0;fontFamily=GOST type B Standard;startFill=0;" parent="yhz_Zr8qX37oR2WssUpI-1" source="2xx8nG_RzWmWFD2ZeUco-5" target="2xx8nG_RzWmWFD2ZeUco-6" edge="1">
            <mxGeometry relative="1" as="geometry">
              <mxPoint x="9" y="-1" as="offset" />
              <Array as="points" />
            </mxGeometry>
          </mxCell>
        </UserObject>
        <UserObject label="" tags="Соединительная_линия" id="2xx8nG_RzWmWFD2ZeUco-14">
          <mxCell style="vsdxID=843;edgeStyle=none;startArrow=none;endArrow=block;startSize=5;endSize=5;strokeColor=#000000;spacingTop=0;spacingBottom=0;spacingLeft=0;spacingRight=0;verticalAlign=middle;html=1;labelBackgroundColor=#ffffff;rounded=0;exitX=0.5;exitY=1;exitDx=0;exitDy=0;exitPerimeter=0;entryX=0.485;entryY=-0.011;entryDx=0;entryDy=0;entryPerimeter=0;fontFamily=GOST type B Standard;" parent="yhz_Zr8qX37oR2WssUpI-1" edge="1">
            <mxGeometry relative="1" as="geometry">
              <mxPoint x="-10" as="offset" />
              <Array as="points" />
              <mxPoint x="503.5799999999999" y="216.46000000000004" as="targetPoint" />
              <mxPoint x="503.68000000000006" y="197.12" as="sourcePoint" />
            </mxGeometry>
          </mxCell>
        </UserObject>
        <mxCell id="Q_ALC1n42v8BfdbiarjF-7" style="edgeStyle=orthogonalEdgeStyle;rounded=0;orthogonalLoop=1;jettySize=auto;html=1;entryX=0.5;entryY=0;entryDx=0;entryDy=0;endArrow=none;endFill=0;fontFamily=GOST type B Standard;startFill=0;" parent="yhz_Zr8qX37oR2WssUpI-1" source="Q_ALC1n42v8BfdbiarjF-0" target="Q_ALC1n42v8BfdbiarjF-5" edge="1">
          <mxGeometry relative="1" as="geometry" />
        </mxCell>
        <mxCell id="LGpfwvGQ7l3M24DVwtJx-1" style="edgeStyle=orthogonalEdgeStyle;rounded=0;orthogonalLoop=1;jettySize=auto;html=1;curved=0;endArrow=none;endFill=0;entryX=0.5;entryY=0;entryDx=0;entryDy=0;" parent="yhz_Zr8qX37oR2WssUpI-1" source="Q_ALC1n42v8BfdbiarjF-0" target="DLEuB_bgCSQKNgTlU9a6-4" edge="1">
          <mxGeometry relative="1" as="geometry">
            <mxPoint x="333" y="204" as="targetPoint" />
          </mxGeometry>
        </mxCell>
        <mxCell id="Q_ALC1n42v8BfdbiarjF-0" value="&lt;span style=&quot;font-size: 11.29px;&quot;&gt;&lt;i&gt;Файл существует?&lt;/i&gt;&lt;/span&gt;" style="rhombus;whiteSpace=wrap;html=1;fontFamily=GOST type B Standard;" parent="yhz_Zr8qX37oR2WssUpI-1" vertex="1">
          <mxGeometry x="423.18" y="151.12" width="158" height="80" as="geometry" />
        </mxCell>
        <mxCell id="DLEuB_bgCSQKNgTlU9a6-38" style="edgeStyle=orthogonalEdgeStyle;rounded=0;orthogonalLoop=1;jettySize=auto;html=1;entryX=0.5;entryY=0;entryDx=0;entryDy=0;endArrow=none;endFill=0;" edge="1" parent="yhz_Zr8qX37oR2WssUpI-1" source="Q_ALC1n42v8BfdbiarjF-5" target="DLEuB_bgCSQKNgTlU9a6-0">
          <mxGeometry relative="1" as="geometry" />
        </mxCell>
        <mxCell id="Q_ALC1n42v8BfdbiarjF-5" value="&lt;i style=&quot;font-size: 11.29px;&quot;&gt;Ошибка: файл не найден&lt;/i&gt;" style="rounded=0;whiteSpace=wrap;html=1;fontFamily=GOST type B Standard;" parent="yhz_Zr8qX37oR2WssUpI-1" vertex="1">
          <mxGeometry x="647.68" y="275.12" width="120" height="45" as="geometry" />
        </mxCell>
        <mxCell id="Q_ALC1n42v8BfdbiarjF-8" value="&lt;i style=&quot;forced-color-adjust: none; color: rgb(0, 0, 0); font-size: 11.29px; font-variant-ligatures: normal; font-variant-caps: normal; font-weight: 400; letter-spacing: normal; orphans: 2; text-align: center; text-indent: 0px; text-transform: none; widows: 2; word-spacing: 0px; -webkit-text-stroke-width: 0px; white-space: nowrap; text-decoration-thickness: initial; text-decoration-style: initial; text-decoration-color: initial;&quot;&gt;Нет&lt;/i&gt;" style="text;whiteSpace=wrap;html=1;fontFamily=GOST type B Standard;labelBackgroundColor=none;labelBorderColor=none;" parent="yhz_Zr8qX37oR2WssUpI-1" vertex="1">
          <mxGeometry x="579.68" y="170.12" width="32.5" height="20" as="geometry" />
        </mxCell>
        <mxCell id="Q_ALC1n42v8BfdbiarjF-18" style="edgeStyle=orthogonalEdgeStyle;rounded=0;orthogonalLoop=1;jettySize=auto;html=1;entryX=0.5;entryY=0;entryDx=0;entryDy=0;endArrow=none;endFill=1;fontFamily=GOST type B Standard;startFill=0;" parent="yhz_Zr8qX37oR2WssUpI-1" target="Q_ALC1n42v8BfdbiarjF-0" edge="1">
          <mxGeometry relative="1" as="geometry">
            <mxPoint x="502.65619047619043" y="121.12" as="sourcePoint" />
          </mxGeometry>
        </mxCell>
        <mxCell id="LGpfwvGQ7l3M24DVwtJx-2" value="&lt;i style=&quot;forced-color-adjust: none; color: rgb(0, 0, 0); font-size: 11.29px; font-variant-ligatures: normal; font-variant-caps: normal; font-weight: 400; letter-spacing: normal; orphans: 2; text-align: center; text-indent: 0px; text-transform: none; widows: 2; word-spacing: 0px; -webkit-text-stroke-width: 0px; white-space: nowrap; text-decoration-thickness: initial; text-decoration-style: initial; text-decoration-color: initial;&quot;&gt;Да&lt;/i&gt;" style="text;whiteSpace=wrap;html=1;fontFamily=GOST type B Standard;labelBackgroundColor=none;labelBorderColor=none;" parent="yhz_Zr8qX37oR2WssUpI-1" vertex="1">
          <mxGeometry x="414" y="170.12" width="32.5" height="20" as="geometry" />
        </mxCell>
        <mxCell id="LGpfwvGQ7l3M24DVwtJx-8" value="&lt;span style=&quot;font-size: 11.29px;&quot;&gt;&lt;i&gt;Выравнивание текста до 16 байт&lt;/i&gt;&lt;/span&gt;" style="rounded=0;whiteSpace=wrap;html=1;fontFamily=GOST type B Standard;" parent="yhz_Zr8qX37oR2WssUpI-1" vertex="1">
          <mxGeometry x="71.75" y="344" width="100" height="44" as="geometry" />
        </mxCell>
        <mxCell id="LGpfwvGQ7l3M24DVwtJx-14" style="edgeStyle=orthogonalEdgeStyle;rounded=0;orthogonalLoop=1;jettySize=auto;html=1;entryX=0.5;entryY=0;entryDx=0;entryDy=0;endArrow=none;endFill=0;" parent="yhz_Zr8qX37oR2WssUpI-1" source="LGpfwvGQ7l3M24DVwtJx-10" target="LGpfwvGQ7l3M24DVwtJx-13" edge="1">
          <mxGeometry relative="1" as="geometry" />
        </mxCell>
        <UserObject label="&lt;div style=&quot;&quot;&gt;&lt;font style=&quot;color: rgb(0, 0, 0); direction: ltr; letter-spacing: 0px; line-height: 120%; opacity: 1;&quot;&gt;&lt;i style=&quot;font-size: 11.29px;&quot;&gt;Цикл обработки блоков по 16 байт&lt;/i&gt;&lt;/font&gt;&lt;/div&gt;" tags="Фон" id="LGpfwvGQ7l3M24DVwtJx-10">
          <mxCell style="verticalAlign=middle;align=center;overflow=width;vsdxID=823;fillColor=#FFFFFF;gradientColor=none;shape=stencil(nZHNDsIgEISfZq8E2DTlXut7NCktRISG4t/bC26MtWrSeJtZviGbWcBmNt2kQfI5xXDQF9snA7gDKa03OtqUFWAL2Awh6jGGk+/JT10hizqGc/nhSjleEpLfyKFgFT4me4Kd9QtYIBPqLcB/w6piajMs+GoRZLXajj/9V/hv9KONLF49DtY5OsPyfd17HtHNsL0D);strokeColor=#000000;spacingTop=-1;spacingBottom=-1;spacingLeft=-1;spacingRight=-1;points=[];labelBackgroundColor=none;rounded=0;html=1;whiteSpace=wrap;fontFamily=GOST type B Standard;" parent="yhz_Zr8qX37oR2WssUpI-1" vertex="1">
            <mxGeometry x="61.75" y="406" width="120" height="38" as="geometry" />
          </mxCell>
        </UserObject>
        <mxCell id="LGpfwvGQ7l3M24DVwtJx-12" style="edgeStyle=orthogonalEdgeStyle;rounded=0;orthogonalLoop=1;jettySize=auto;html=1;entryX=0.493;entryY=0.033;entryDx=0;entryDy=0;entryPerimeter=0;endArrow=none;endFill=0;" parent="yhz_Zr8qX37oR2WssUpI-1" source="LGpfwvGQ7l3M24DVwtJx-8" target="LGpfwvGQ7l3M24DVwtJx-10" edge="1">
          <mxGeometry relative="1" as="geometry" />
        </mxCell>
        <mxCell id="LGpfwvGQ7l3M24DVwtJx-13" value="&lt;i style=&quot;font-size: 11.29px;&quot;&gt;Преобразование текста в символы ASCII&lt;/i&gt;" style="rounded=0;whiteSpace=wrap;html=1;fontFamily=GOST type B Standard;" parent="yhz_Zr8qX37oR2WssUpI-1" vertex="1">
          <mxGeometry x="71.75" y="461" width="100" height="44" as="geometry" />
        </mxCell>
        <mxCell id="LGpfwvGQ7l3M24DVwtJx-22" style="edgeStyle=orthogonalEdgeStyle;rounded=0;orthogonalLoop=1;jettySize=auto;html=1;entryX=0.5;entryY=0;entryDx=0;entryDy=0;endArrow=none;endFill=0;" parent="yhz_Zr8qX37oR2WssUpI-1" source="LGpfwvGQ7l3M24DVwtJx-19" target="LGpfwvGQ7l3M24DVwtJx-21" edge="1">
          <mxGeometry relative="1" as="geometry" />
        </mxCell>
        <mxCell id="LGpfwvGQ7l3M24DVwtJx-19" value="&lt;i style=&quot;font-size: 11.29px;&quot;&gt;Создание объекта класса&amp;nbsp;&lt;/i&gt;&lt;span style=&quot;font-size: 11.29px;&quot;&gt;&lt;i&gt;STB3410131&lt;/i&gt;&lt;/span&gt;" style="rounded=0;whiteSpace=wrap;html=1;fontFamily=GOST type B Standard;" parent="yhz_Zr8qX37oR2WssUpI-1" vertex="1">
          <mxGeometry x="63.25" y="589" width="120" height="40" as="geometry" />
        </mxCell>
        <mxCell id="LGpfwvGQ7l3M24DVwtJx-21" value="&lt;i style=&quot;font-size: 11.29px;&quot;&gt;Разделение блока на подблоки a. b. c. d&lt;/i&gt;" style="rounded=0;whiteSpace=wrap;html=1;fontFamily=GOST type B Standard;" parent="yhz_Zr8qX37oR2WssUpI-1" vertex="1">
          <mxGeometry x="63.25" y="644" width="120" height="40" as="geometry" />
        </mxCell>
        <mxCell id="DLEuB_bgCSQKNgTlU9a6-62" style="edgeStyle=orthogonalEdgeStyle;rounded=0;orthogonalLoop=1;jettySize=auto;html=1;entryX=0.5;entryY=0;entryDx=0;entryDy=0;endArrow=none;endFill=0;" edge="1" parent="yhz_Zr8qX37oR2WssUpI-1" source="LGpfwvGQ7l3M24DVwtJx-25" target="DLEuB_bgCSQKNgTlU9a6-14">
          <mxGeometry relative="1" as="geometry" />
        </mxCell>
        <mxCell id="LGpfwvGQ7l3M24DVwtJx-25" value="&lt;i style=&quot;font-size: 11.29px;&quot;&gt;Преобразование подблока b с использованием подблока a, G-функции, подключа, операции XOR и сложения по модулю&lt;/i&gt;" style="rounded=0;whiteSpace=wrap;html=1;fontFamily=GOST type B Standard;" parent="yhz_Zr8qX37oR2WssUpI-1" vertex="1">
          <mxGeometry x="27.75" y="780" width="184.5" height="70" as="geometry" />
        </mxCell>
        <UserObject label="" tags="Фон" id="LGpfwvGQ7l3M24DVwtJx-27">
          <mxCell style="vsdxID=820;rotation=180;fillColor=#FFFFFF;gradientColor=none;shape=stencil(nZHNDsIgEISfZq8E2DTlXut7NCktRISG4t/bC26MtWrSeJtZviGbWcBmNt2kQfI5xXDQF9snA7gDKa03OtqUFWAL2Awh6jGGk+/JT10hizqGc/nhSjleEpLfyKFgFT4me4Kd9QtYIBPqLcB/w6piajMs+GoRZLXajj/9V/hv9KONLF49DtY5OsPyfd17HtHNsL0D);strokeColor=#000000;spacingTop=-1;spacingBottom=-1;spacingLeft=-1;spacingRight=-1;points=[];labelBackgroundColor=none;rounded=0;html=1;whiteSpace=wrap;fontColor=default;fontFamily=GOST type B Standard;" parent="yhz_Zr8qX37oR2WssUpI-1" vertex="1">
            <mxGeometry x="344.12" y="1040" width="119.98" height="50.01" as="geometry" />
          </mxCell>
        </UserObject>
        <mxCell id="LGpfwvGQ7l3M24DVwtJx-28" value="&lt;div style=&quot;font-size: 1px&quot;&gt;&lt;font style=&quot;font-size: 11.29px; color: rgb(0, 0, 0); direction: ltr; letter-spacing: 0px; line-height: 120%; opacity: 1;&quot;&gt;&lt;i&gt;Цикл шифрования/дешифрования&lt;/i&gt;&lt;/font&gt;&lt;font style=&quot;font-size: 15.52px; color: rgb(0, 0, 0); direction: ltr; letter-spacing: 0px; line-height: 120%; opacity: 1;&quot;&gt;&lt;br&gt;&lt;/font&gt;&lt;/div&gt;" style="text;vsdxID=820;rotation=0.09;fillColor=none;gradientColor=none;strokeColor=none;spacingTop=-1;spacingBottom=-1;spacingLeft=-1;spacingRight=-1;points=[];labelBackgroundColor=none;rounded=0;html=1;whiteSpace=wrap;verticalAlign=middle;align=center;overflow=width;;html=1;fontFamily=GOST type B Standard;" parent="LGpfwvGQ7l3M24DVwtJx-27" vertex="1">
          <mxGeometry x="-1.02" y="0.01" width="121" height="50" as="geometry" />
        </mxCell>
        <mxCell id="LGpfwvGQ7l3M24DVwtJx-32" value="&lt;i style=&quot;font-size: 11.29px;&quot;&gt;Возврат переменных в порядке b, d, a, c&lt;/i&gt;" style="rounded=0;whiteSpace=wrap;html=1;fontFamily=GOST type B Standard;" parent="yhz_Zr8qX37oR2WssUpI-1" vertex="1">
          <mxGeometry x="516.43" y="620" width="120" height="40" as="geometry" />
        </mxCell>
        <UserObject label="" tags="Фон" id="LGpfwvGQ7l3M24DVwtJx-34">
          <mxCell style="vsdxID=820;rotation=180;fillColor=#FFFFFF;gradientColor=none;shape=stencil(nZHNDsIgEISfZq8E2DTlXut7NCktRISG4t/bC26MtWrSeJtZviGbWcBmNt2kQfI5xXDQF9snA7gDKa03OtqUFWAL2Awh6jGGk+/JT10hizqGc/nhSjleEpLfyKFgFT4me4Kd9QtYIBPqLcB/w6piajMs+GoRZLXajj/9V/hv9KONLF49DtY5OsPyfd17HtHNsL0D);strokeColor=#000000;spacingTop=-1;spacingBottom=-1;spacingLeft=-1;spacingRight=-1;points=[];labelBackgroundColor=none;rounded=0;html=1;whiteSpace=wrap;fontColor=default;fontFamily=GOST type B Standard;" parent="yhz_Zr8qX37oR2WssUpI-1" vertex="1">
            <mxGeometry x="590.92" y="695" width="113" height="34" as="geometry" />
          </mxCell>
        </UserObject>
        <mxCell id="LGpfwvGQ7l3M24DVwtJx-35" value="&lt;div style=&quot;font-size: 1px&quot;&gt;&lt;font style=&quot;font-size: 11.29px; color: rgb(0, 0, 0); direction: ltr; letter-spacing: 0px; line-height: 120%; opacity: 1;&quot;&gt;&lt;i&gt;Цикл обработки блока&lt;/i&gt;&lt;/font&gt;&lt;font style=&quot;font-size: 15.52px; color: rgb(0, 0, 0); direction: ltr; letter-spacing: 0px; line-height: 120%; opacity: 1;&quot;&gt;&lt;br&gt;&lt;/font&gt;&lt;/div&gt;" style="text;vsdxID=820;rotation=0.09;fillColor=none;gradientColor=none;strokeColor=none;spacingTop=-1;spacingBottom=-1;spacingLeft=-1;spacingRight=-1;points=[];labelBackgroundColor=none;rounded=0;html=1;whiteSpace=wrap;verticalAlign=middle;align=center;overflow=width;;html=1;fontFamily=GOST type B Standard;" parent="LGpfwvGQ7l3M24DVwtJx-34" vertex="1">
          <mxGeometry x="-1.0028571428571453" y="0.003333333333332078" width="113" height="34" as="geometry" />
        </mxCell>
        <mxCell id="DLEuB_bgCSQKNgTlU9a6-69" style="edgeStyle=orthogonalEdgeStyle;rounded=0;orthogonalLoop=1;jettySize=auto;html=1;entryX=0.5;entryY=0;entryDx=0;entryDy=0;endArrow=none;endFill=0;" edge="1" parent="yhz_Zr8qX37oR2WssUpI-1" source="LGpfwvGQ7l3M24DVwtJx-37" target="DLEuB_bgCSQKNgTlU9a6-35">
          <mxGeometry relative="1" as="geometry" />
        </mxCell>
        <mxCell id="LGpfwvGQ7l3M24DVwtJx-37" value="&lt;i style=&quot;font-size: 11.29px;&quot;&gt;Удаление дополняющих символов&lt;/i&gt;" style="rounded=0;whiteSpace=wrap;html=1;fontFamily=GOST type B Standard;" parent="yhz_Zr8qX37oR2WssUpI-1" vertex="1">
          <mxGeometry x="587.42" y="755" width="120" height="40" as="geometry" />
        </mxCell>
        <mxCell id="LGpfwvGQ7l3M24DVwtJx-38" style="edgeStyle=orthogonalEdgeStyle;rounded=0;orthogonalLoop=1;jettySize=auto;html=1;entryX=0.5;entryY=0;entryDx=0;entryDy=0;endArrow=none;endFill=0;" parent="yhz_Zr8qX37oR2WssUpI-1" source="LGpfwvGQ7l3M24DVwtJx-35" target="LGpfwvGQ7l3M24DVwtJx-37" edge="1">
          <mxGeometry relative="1" as="geometry" />
        </mxCell>
        <mxCell id="DLEuB_bgCSQKNgTlU9a6-0" value="&lt;i style=&quot;font-size: 11.29px;&quot;&gt;Завершение программы&lt;/i&gt;" style="rounded=0;whiteSpace=wrap;html=1;fontFamily=GOST type B Standard;" vertex="1" parent="yhz_Zr8qX37oR2WssUpI-1">
          <mxGeometry x="647.68" y="394" width="120" height="45" as="geometry" />
        </mxCell>
        <mxCell id="DLEuB_bgCSQKNgTlU9a6-5" style="edgeStyle=orthogonalEdgeStyle;rounded=0;orthogonalLoop=1;jettySize=auto;html=1;entryX=0.5;entryY=0;entryDx=0;entryDy=0;endArrow=none;endFill=0;" edge="1" parent="yhz_Zr8qX37oR2WssUpI-1" source="DLEuB_bgCSQKNgTlU9a6-4" target="LGpfwvGQ7l3M24DVwtJx-8">
          <mxGeometry relative="1" as="geometry" />
        </mxCell>
        <mxCell id="DLEuB_bgCSQKNgTlU9a6-7" style="edgeStyle=orthogonalEdgeStyle;rounded=0;orthogonalLoop=1;jettySize=auto;html=1;entryX=0.5;entryY=0;entryDx=0;entryDy=0;endArrow=none;endFill=0;" edge="1" parent="yhz_Zr8qX37oR2WssUpI-1" source="DLEuB_bgCSQKNgTlU9a6-4" target="DLEuB_bgCSQKNgTlU9a6-6">
          <mxGeometry relative="1" as="geometry" />
        </mxCell>
        <mxCell id="DLEuB_bgCSQKNgTlU9a6-4" value="&lt;span style=&quot;font-size: 11.29px;&quot;&gt;&lt;i&gt;Кодировка UTF-8?&lt;/i&gt;&lt;/span&gt;" style="rhombus;whiteSpace=wrap;html=1;fontFamily=GOST type B Standard;" vertex="1" parent="yhz_Zr8qX37oR2WssUpI-1">
          <mxGeometry x="203" y="220" width="158" height="80" as="geometry" />
        </mxCell>
        <mxCell id="DLEuB_bgCSQKNgTlU9a6-39" style="edgeStyle=orthogonalEdgeStyle;rounded=0;orthogonalLoop=1;jettySize=auto;html=1;entryX=0;entryY=0.5;entryDx=0;entryDy=0;endArrow=none;endFill=0;" edge="1" parent="yhz_Zr8qX37oR2WssUpI-1" source="DLEuB_bgCSQKNgTlU9a6-6" target="DLEuB_bgCSQKNgTlU9a6-0">
          <mxGeometry relative="1" as="geometry" />
        </mxCell>
        <mxCell id="DLEuB_bgCSQKNgTlU9a6-6" value="&lt;span style=&quot;font-size: 11.29px;&quot;&gt;&lt;i&gt;Ошибка: неверная кодировка&lt;/i&gt;&lt;/span&gt;" style="rounded=0;whiteSpace=wrap;html=1;fontFamily=GOST type B Standard;" vertex="1" parent="yhz_Zr8qX37oR2WssUpI-1">
          <mxGeometry x="446.5" y="300" width="100" height="44" as="geometry" />
        </mxCell>
        <mxCell id="DLEuB_bgCSQKNgTlU9a6-9" value="&lt;i style=&quot;forced-color-adjust: none; color: rgb(0, 0, 0); font-size: 11.29px; font-variant-ligatures: normal; font-variant-caps: normal; font-weight: 400; letter-spacing: normal; orphans: 2; text-align: center; text-indent: 0px; text-transform: none; widows: 2; word-spacing: 0px; -webkit-text-stroke-width: 0px; white-space: nowrap; text-decoration-thickness: initial; text-decoration-style: initial; text-decoration-color: initial;&quot;&gt;Нет&lt;/i&gt;" style="text;whiteSpace=wrap;html=1;fontFamily=GOST type B Standard;labelBackgroundColor=none;labelBorderColor=none;" vertex="1" parent="yhz_Zr8qX37oR2WssUpI-1">
          <mxGeometry x="361" y="231.12" width="32.5" height="20" as="geometry" />
        </mxCell>
        <mxCell id="DLEuB_bgCSQKNgTlU9a6-10" value="&lt;i style=&quot;forced-color-adjust: none; color: rgb(0, 0, 0); font-size: 11.29px; font-variant-ligatures: normal; font-variant-caps: normal; font-weight: 400; letter-spacing: normal; orphans: 2; text-align: center; text-indent: 0px; text-transform: none; widows: 2; word-spacing: 0px; -webkit-text-stroke-width: 0px; white-space: nowrap; text-decoration-thickness: initial; text-decoration-style: initial; text-decoration-color: initial;&quot;&gt;Да&lt;/i&gt;" style="text;whiteSpace=wrap;html=1;fontFamily=GOST type B Standard;labelBackgroundColor=none;labelBorderColor=none;" vertex="1" parent="yhz_Zr8qX37oR2WssUpI-1">
          <mxGeometry x="184.25" y="231.12" width="32.5" height="20" as="geometry" />
        </mxCell>
        <mxCell id="DLEuB_bgCSQKNgTlU9a6-59" style="edgeStyle=orthogonalEdgeStyle;rounded=0;orthogonalLoop=1;jettySize=auto;html=1;entryX=0.5;entryY=0;entryDx=0;entryDy=0;endArrow=none;endFill=0;" edge="1" parent="yhz_Zr8qX37oR2WssUpI-1" source="DLEuB_bgCSQKNgTlU9a6-12" target="LGpfwvGQ7l3M24DVwtJx-19">
          <mxGeometry relative="1" as="geometry" />
        </mxCell>
        <mxCell id="DLEuB_bgCSQKNgTlU9a6-12" value="&lt;i style=&quot;font-size: 11.29px;&quot;&gt;Генерация случайного ключа&lt;/i&gt;" style="rounded=0;whiteSpace=wrap;html=1;fontFamily=GOST type B Standard;" vertex="1" parent="yhz_Zr8qX37oR2WssUpI-1">
          <mxGeometry x="63.25" y="523" width="120" height="44" as="geometry" />
        </mxCell>
        <mxCell id="DLEuB_bgCSQKNgTlU9a6-61" style="edgeStyle=orthogonalEdgeStyle;rounded=0;orthogonalLoop=1;jettySize=auto;html=1;entryX=0.5;entryY=0;entryDx=0;entryDy=0;endArrow=none;endFill=0;" edge="1" parent="yhz_Zr8qX37oR2WssUpI-1" source="DLEuB_bgCSQKNgTlU9a6-13" target="LGpfwvGQ7l3M24DVwtJx-25">
          <mxGeometry relative="1" as="geometry" />
        </mxCell>
        <UserObject label="&lt;div style=&quot;&quot;&gt;&lt;font style=&quot;color: rgb(0, 0, 0); direction: ltr; letter-spacing: 0px; line-height: 120%; opacity: 1;&quot;&gt;&lt;i style=&quot;font-size: 11.29px;&quot;&gt;Цикл шифрования/дешифрования блока (8 раундов)&lt;/i&gt;&lt;/font&gt;&lt;/div&gt;" tags="Фон" id="DLEuB_bgCSQKNgTlU9a6-13">
          <mxCell style="verticalAlign=middle;align=center;overflow=width;vsdxID=823;fillColor=#FFFFFF;gradientColor=none;shape=stencil(nZHNDsIgEISfZq8E2DTlXut7NCktRISG4t/bC26MtWrSeJtZviGbWcBmNt2kQfI5xXDQF9snA7gDKa03OtqUFWAL2Awh6jGGk+/JT10hizqGc/nhSjleEpLfyKFgFT4me4Kd9QtYIBPqLcB/w6piajMs+GoRZLXajj/9V/hv9KONLF49DtY5OsPyfd17HtHNsL0D);strokeColor=#000000;spacingTop=-1;spacingBottom=-1;spacingLeft=-1;spacingRight=-1;points=[];labelBackgroundColor=none;rounded=0;html=1;whiteSpace=wrap;fontFamily=GOST type B Standard;" vertex="1" parent="yhz_Zr8qX37oR2WssUpI-1">
            <mxGeometry x="60" y="705" width="120" height="50" as="geometry" />
          </mxCell>
        </UserObject>
        <mxCell id="DLEuB_bgCSQKNgTlU9a6-63" style="edgeStyle=orthogonalEdgeStyle;rounded=0;orthogonalLoop=1;jettySize=auto;html=1;entryX=0.5;entryY=0;entryDx=0;entryDy=0;endArrow=none;endFill=0;" edge="1" parent="yhz_Zr8qX37oR2WssUpI-1" source="DLEuB_bgCSQKNgTlU9a6-14" target="DLEuB_bgCSQKNgTlU9a6-15">
          <mxGeometry relative="1" as="geometry" />
        </mxCell>
        <mxCell id="DLEuB_bgCSQKNgTlU9a6-14" value="&lt;i style=&quot;font-size: 11.29px;&quot;&gt;Преобразование подблока c с использованием подблока d, G-функции, подключа, операции XOR и сложения по модулю&lt;/i&gt;" style="rounded=0;whiteSpace=wrap;html=1;fontFamily=GOST type B Standard;" vertex="1" parent="yhz_Zr8qX37oR2WssUpI-1">
          <mxGeometry x="24" y="870" width="184.5" height="70" as="geometry" />
        </mxCell>
        <mxCell id="DLEuB_bgCSQKNgTlU9a6-42" style="edgeStyle=orthogonalEdgeStyle;rounded=0;orthogonalLoop=1;jettySize=auto;html=1;entryX=0.5;entryY=0;entryDx=0;entryDy=0;endArrow=none;endFill=0;" edge="1" parent="yhz_Zr8qX37oR2WssUpI-1" source="DLEuB_bgCSQKNgTlU9a6-15" target="DLEuB_bgCSQKNgTlU9a6-41">
          <mxGeometry relative="1" as="geometry" />
        </mxCell>
        <mxCell id="DLEuB_bgCSQKNgTlU9a6-15" value="&lt;i style=&quot;font-size: 11.29px;&quot;&gt;Преобразование подблока a с использованием подблока a, b, G-функции, подключа, вычитания и сложения по модулю&lt;/i&gt;" style="rounded=0;whiteSpace=wrap;html=1;fontFamily=GOST type B Standard;" vertex="1" parent="yhz_Zr8qX37oR2WssUpI-1">
          <mxGeometry x="24" y="965" width="184.5" height="70" as="geometry" />
        </mxCell>
        <mxCell id="DLEuB_bgCSQKNgTlU9a6-46" style="edgeStyle=orthogonalEdgeStyle;rounded=0;orthogonalLoop=1;jettySize=auto;html=1;entryX=0.5;entryY=0;entryDx=0;entryDy=0;endArrow=none;endFill=0;" edge="1" parent="yhz_Zr8qX37oR2WssUpI-1" source="DLEuB_bgCSQKNgTlU9a6-16" target="DLEuB_bgCSQKNgTlU9a6-17">
          <mxGeometry relative="1" as="geometry" />
        </mxCell>
        <mxCell id="DLEuB_bgCSQKNgTlU9a6-16" value="&lt;i style=&quot;font-size: 11.29px;&quot;&gt;Создание переменной e с использованием подблока b, c, G-функции, подключа и сложения по модулю&lt;/i&gt;" style="rounded=0;whiteSpace=wrap;html=1;fontFamily=GOST type B Standard;" vertex="1" parent="yhz_Zr8qX37oR2WssUpI-1">
          <mxGeometry x="314" y="439" width="184.5" height="70" as="geometry" />
        </mxCell>
        <mxCell id="DLEuB_bgCSQKNgTlU9a6-47" style="edgeStyle=orthogonalEdgeStyle;rounded=0;orthogonalLoop=1;jettySize=auto;html=1;entryX=0.5;entryY=0;entryDx=0;entryDy=0;endArrow=none;endFill=0;" edge="1" parent="yhz_Zr8qX37oR2WssUpI-1" source="DLEuB_bgCSQKNgTlU9a6-17" target="DLEuB_bgCSQKNgTlU9a6-18">
          <mxGeometry relative="1" as="geometry" />
        </mxCell>
        <mxCell id="DLEuB_bgCSQKNgTlU9a6-17" value="&lt;i style=&quot;font-size: 11.29px;&quot;&gt;Преобразование подблока b с использованием сложения по модулю подблока b и переменной e&lt;/i&gt;" style="rounded=0;whiteSpace=wrap;html=1;fontFamily=GOST type B Standard;" vertex="1" parent="yhz_Zr8qX37oR2WssUpI-1">
          <mxGeometry x="314" y="535" width="184.5" height="70" as="geometry" />
        </mxCell>
        <mxCell id="DLEuB_bgCSQKNgTlU9a6-48" style="edgeStyle=orthogonalEdgeStyle;rounded=0;orthogonalLoop=1;jettySize=auto;html=1;entryX=0.5;entryY=0;entryDx=0;entryDy=0;" edge="1" parent="yhz_Zr8qX37oR2WssUpI-1" source="DLEuB_bgCSQKNgTlU9a6-18" target="DLEuB_bgCSQKNgTlU9a6-19">
          <mxGeometry relative="1" as="geometry" />
        </mxCell>
        <mxCell id="DLEuB_bgCSQKNgTlU9a6-18" value="&lt;i style=&quot;font-size: 11.29px;&quot;&gt;Преобразование подблока c с использованием вычитания по модулю между подблоком c и переменной e&lt;/i&gt;" style="rounded=0;whiteSpace=wrap;html=1;fontFamily=GOST type B Standard;" vertex="1" parent="yhz_Zr8qX37oR2WssUpI-1">
          <mxGeometry x="314" y="629" width="184.5" height="70" as="geometry" />
        </mxCell>
        <mxCell id="DLEuB_bgCSQKNgTlU9a6-49" style="edgeStyle=orthogonalEdgeStyle;rounded=0;orthogonalLoop=1;jettySize=auto;html=1;entryX=0.5;entryY=0;entryDx=0;entryDy=0;endArrow=none;endFill=0;" edge="1" parent="yhz_Zr8qX37oR2WssUpI-1" source="DLEuB_bgCSQKNgTlU9a6-19" target="DLEuB_bgCSQKNgTlU9a6-20">
          <mxGeometry relative="1" as="geometry" />
        </mxCell>
        <mxCell id="DLEuB_bgCSQKNgTlU9a6-19" value="&lt;i style=&quot;font-size: 11.29px;&quot;&gt;Преобразование подблока d с использованием подблока d, c, G-функции, подключа и сложения по модулю&lt;/i&gt;" style="rounded=0;whiteSpace=wrap;html=1;fontFamily=GOST type B Standard;" vertex="1" parent="yhz_Zr8qX37oR2WssUpI-1">
          <mxGeometry x="314" y="715" width="184.5" height="70" as="geometry" />
        </mxCell>
        <mxCell id="DLEuB_bgCSQKNgTlU9a6-50" style="edgeStyle=orthogonalEdgeStyle;rounded=0;orthogonalLoop=1;jettySize=auto;html=1;entryX=0.5;entryY=0;entryDx=0;entryDy=0;" edge="1" parent="yhz_Zr8qX37oR2WssUpI-1" source="DLEuB_bgCSQKNgTlU9a6-20" target="DLEuB_bgCSQKNgTlU9a6-21">
          <mxGeometry relative="1" as="geometry" />
        </mxCell>
        <mxCell id="DLEuB_bgCSQKNgTlU9a6-20" value="&lt;i style=&quot;font-size: 11.29px;&quot;&gt;Преобразование подблока b с использованием подблока a, G-функции, подключа, сложения по модулю и операции XOR&lt;/i&gt;" style="rounded=0;whiteSpace=wrap;html=1;fontFamily=GOST type B Standard;" vertex="1" parent="yhz_Zr8qX37oR2WssUpI-1">
          <mxGeometry x="314" y="805" width="184.5" height="70" as="geometry" />
        </mxCell>
        <mxCell id="DLEuB_bgCSQKNgTlU9a6-51" style="edgeStyle=orthogonalEdgeStyle;rounded=0;orthogonalLoop=1;jettySize=auto;html=1;entryX=0.5;entryY=0;entryDx=0;entryDy=0;endArrow=none;endFill=0;" edge="1" parent="yhz_Zr8qX37oR2WssUpI-1" source="DLEuB_bgCSQKNgTlU9a6-21" target="DLEuB_bgCSQKNgTlU9a6-22">
          <mxGeometry relative="1" as="geometry" />
        </mxCell>
        <mxCell id="DLEuB_bgCSQKNgTlU9a6-21" value="&lt;i style=&quot;font-size: 11.29px;&quot;&gt;Преобразование подблока c с использованием подблока d, G-функции, подключа, сложения по модулю и операции XOR&lt;/i&gt;" style="rounded=0;whiteSpace=wrap;html=1;fontFamily=GOST type B Standard;" vertex="1" parent="yhz_Zr8qX37oR2WssUpI-1">
          <mxGeometry x="314" y="890" width="180.25" height="70" as="geometry" />
        </mxCell>
        <mxCell id="DLEuB_bgCSQKNgTlU9a6-22" value="&lt;i style=&quot;font-size: 11.29px;&quot;&gt;Перестановка переменных&lt;/i&gt;" style="rounded=0;whiteSpace=wrap;html=1;fontFamily=GOST type B Standard;" vertex="1" parent="yhz_Zr8qX37oR2WssUpI-1">
          <mxGeometry x="344.12" y="980" width="120" height="40" as="geometry" />
        </mxCell>
        <mxCell id="DLEuB_bgCSQKNgTlU9a6-25" style="edgeStyle=orthogonalEdgeStyle;rounded=0;orthogonalLoop=1;jettySize=auto;html=1;entryX=0.5;entryY=0;entryDx=0;entryDy=0;endArrow=none;endFill=0;" edge="1" parent="yhz_Zr8qX37oR2WssUpI-1" source="DLEuB_bgCSQKNgTlU9a6-24" target="LGpfwvGQ7l3M24DVwtJx-32">
          <mxGeometry relative="1" as="geometry" />
        </mxCell>
        <mxCell id="DLEuB_bgCSQKNgTlU9a6-24" value="&lt;span style=&quot;font-size: 11.29px;&quot;&gt;&lt;i&gt;Процесс шифрования?&lt;/i&gt;&lt;/span&gt;" style="rhombus;whiteSpace=wrap;html=1;fontFamily=GOST type B Standard;" vertex="1" parent="yhz_Zr8qX37oR2WssUpI-1">
          <mxGeometry x="568.42" y="509" width="158" height="80" as="geometry" />
        </mxCell>
        <mxCell id="DLEuB_bgCSQKNgTlU9a6-27" value="&lt;i style=&quot;forced-color-adjust: none; color: rgb(0, 0, 0); font-size: 11.29px; font-variant-ligatures: normal; font-variant-caps: normal; font-weight: 400; letter-spacing: normal; orphans: 2; text-align: center; text-indent: 0px; text-transform: none; widows: 2; word-spacing: 0px; -webkit-text-stroke-width: 0px; white-space: nowrap; text-decoration-thickness: initial; text-decoration-style: initial; text-decoration-color: initial;&quot;&gt;Да&lt;/i&gt;" style="text;whiteSpace=wrap;html=1;fontFamily=GOST type B Standard;labelBackgroundColor=none;labelBorderColor=none;" vertex="1" parent="yhz_Zr8qX37oR2WssUpI-1">
          <mxGeometry x="603.93" y="585" width="32.5" height="20" as="geometry" />
        </mxCell>
        <mxCell id="DLEuB_bgCSQKNgTlU9a6-28" value="&lt;i style=&quot;forced-color-adjust: none; color: rgb(0, 0, 0); font-size: 11.29px; font-variant-ligatures: normal; font-variant-caps: normal; font-weight: 400; letter-spacing: normal; orphans: 2; text-align: center; text-indent: 0px; text-transform: none; widows: 2; word-spacing: 0px; -webkit-text-stroke-width: 0px; white-space: nowrap; text-decoration-thickness: initial; text-decoration-style: initial; text-decoration-color: initial;&quot;&gt;Нет&lt;/i&gt;" style="text;whiteSpace=wrap;html=1;fontFamily=GOST type B Standard;labelBackgroundColor=none;labelBorderColor=none;" vertex="1" parent="yhz_Zr8qX37oR2WssUpI-1">
          <mxGeometry x="691.43" y="585" width="32.5" height="20" as="geometry" />
        </mxCell>
        <mxCell id="DLEuB_bgCSQKNgTlU9a6-29" value="&lt;i style=&quot;font-size: 11.29px;&quot;&gt;Возврат переменных в порядке c, a, d, b&lt;/i&gt;" style="rounded=0;whiteSpace=wrap;html=1;fontFamily=GOST type B Standard;" vertex="1" parent="yhz_Zr8qX37oR2WssUpI-1">
          <mxGeometry x="647.68" y="620" width="120" height="40" as="geometry" />
        </mxCell>
        <mxCell id="DLEuB_bgCSQKNgTlU9a6-32" style="edgeStyle=orthogonalEdgeStyle;rounded=0;orthogonalLoop=1;jettySize=auto;html=1;entryX=0.568;entryY=0.039;entryDx=0;entryDy=0;entryPerimeter=0;endArrow=none;endFill=0;" edge="1" parent="yhz_Zr8qX37oR2WssUpI-1" source="DLEuB_bgCSQKNgTlU9a6-24" target="DLEuB_bgCSQKNgTlU9a6-29">
          <mxGeometry relative="1" as="geometry" />
        </mxCell>
        <mxCell id="DLEuB_bgCSQKNgTlU9a6-34" style="edgeStyle=orthogonalEdgeStyle;rounded=0;orthogonalLoop=1;jettySize=auto;html=1;entryX=0.5;entryY=0.976;entryDx=0;entryDy=0;entryPerimeter=0;endArrow=none;endFill=0;" edge="1" parent="yhz_Zr8qX37oR2WssUpI-1" source="DLEuB_bgCSQKNgTlU9a6-29" target="LGpfwvGQ7l3M24DVwtJx-34">
          <mxGeometry relative="1" as="geometry" />
        </mxCell>
        <mxCell id="DLEuB_bgCSQKNgTlU9a6-70" style="edgeStyle=orthogonalEdgeStyle;rounded=0;orthogonalLoop=1;jettySize=auto;html=1;entryX=0.5;entryY=0;entryDx=0;entryDy=0;endArrow=none;endFill=0;" edge="1" parent="yhz_Zr8qX37oR2WssUpI-1" source="DLEuB_bgCSQKNgTlU9a6-35" target="DLEuB_bgCSQKNgTlU9a6-36">
          <mxGeometry relative="1" as="geometry" />
        </mxCell>
        <mxCell id="DLEuB_bgCSQKNgTlU9a6-35" value="&lt;i style=&quot;font-size: 11.29px;&quot;&gt;Сохранение результатов в файлы&lt;/i&gt;" style="rounded=0;whiteSpace=wrap;html=1;fontFamily=GOST type B Standard;" vertex="1" parent="yhz_Zr8qX37oR2WssUpI-1">
          <mxGeometry x="587.42" y="810" width="120" height="40" as="geometry" />
        </mxCell>
        <mxCell id="DLEuB_bgCSQKNgTlU9a6-53" style="edgeStyle=orthogonalEdgeStyle;rounded=0;orthogonalLoop=1;jettySize=auto;html=1;endArrow=block;endFill=1;" edge="1" parent="yhz_Zr8qX37oR2WssUpI-1" source="DLEuB_bgCSQKNgTlU9a6-36">
          <mxGeometry relative="1" as="geometry">
            <mxPoint x="768" y="433" as="targetPoint" />
            <Array as="points">
              <mxPoint x="780" y="895" />
              <mxPoint x="780" y="433" />
            </Array>
          </mxGeometry>
        </mxCell>
        <mxCell id="DLEuB_bgCSQKNgTlU9a6-36" value="&lt;i style=&quot;font-size: 11.29px;&quot;&gt;Сравнение исходных данных и расшифрованных&lt;/i&gt;" style="rounded=0;whiteSpace=wrap;html=1;fontFamily=GOST type B Standard;" vertex="1" parent="yhz_Zr8qX37oR2WssUpI-1">
          <mxGeometry x="587.42" y="875" width="120" height="40" as="geometry" />
        </mxCell>
        <mxCell id="DLEuB_bgCSQKNgTlU9a6-40" style="edgeStyle=orthogonalEdgeStyle;rounded=0;orthogonalLoop=1;jettySize=auto;html=1;entryX=0.001;entryY=0.478;entryDx=0;entryDy=0;entryPerimeter=0;endArrow=block;endFill=1;" edge="1" parent="yhz_Zr8qX37oR2WssUpI-1" source="LGpfwvGQ7l3M24DVwtJx-32" target="DLEuB_bgCSQKNgTlU9a6-13">
          <mxGeometry relative="1" as="geometry">
            <Array as="points">
              <mxPoint x="576" y="1160" />
              <mxPoint x="10" y="1160" />
              <mxPoint x="10" y="729" />
            </Array>
          </mxGeometry>
        </mxCell>
        <mxCell id="DLEuB_bgCSQKNgTlU9a6-41" value="&lt;font face=&quot;GOST type B Standard&quot;&gt;1&lt;/font&gt;" style="ellipse;whiteSpace=wrap;html=1;aspect=fixed;" vertex="1" parent="yhz_Zr8qX37oR2WssUpI-1">
          <mxGeometry x="101.25" y="1050" width="30" height="30" as="geometry" />
        </mxCell>
        <mxCell id="DLEuB_bgCSQKNgTlU9a6-44" style="edgeStyle=orthogonalEdgeStyle;rounded=0;orthogonalLoop=1;jettySize=auto;html=1;entryX=0.5;entryY=0;entryDx=0;entryDy=0;endArrow=none;endFill=0;" edge="1" parent="yhz_Zr8qX37oR2WssUpI-1" source="DLEuB_bgCSQKNgTlU9a6-43" target="DLEuB_bgCSQKNgTlU9a6-16">
          <mxGeometry relative="1" as="geometry" />
        </mxCell>
        <mxCell id="DLEuB_bgCSQKNgTlU9a6-43" value="&lt;font face=&quot;GOST type B Standard&quot;&gt;1&lt;/font&gt;" style="ellipse;whiteSpace=wrap;html=1;aspect=fixed;" vertex="1" parent="yhz_Zr8qX37oR2WssUpI-1">
          <mxGeometry x="391.25" y="381" width="30" height="30" as="geometry" />
        </mxCell>
        <mxCell id="DLEuB_bgCSQKNgTlU9a6-52" style="edgeStyle=orthogonalEdgeStyle;rounded=0;orthogonalLoop=1;jettySize=auto;html=1;entryX=0.503;entryY=1.013;entryDx=0;entryDy=0;entryPerimeter=0;endArrow=none;endFill=0;" edge="1" parent="yhz_Zr8qX37oR2WssUpI-1" source="DLEuB_bgCSQKNgTlU9a6-22" target="LGpfwvGQ7l3M24DVwtJx-27">
          <mxGeometry relative="1" as="geometry" />
        </mxCell>
        <mxCell id="DLEuB_bgCSQKNgTlU9a6-58" style="edgeStyle=orthogonalEdgeStyle;rounded=0;orthogonalLoop=1;jettySize=auto;html=1;entryX=0.488;entryY=-0.114;entryDx=0;entryDy=0;entryPerimeter=0;endArrow=none;endFill=0;" edge="1" parent="yhz_Zr8qX37oR2WssUpI-1" source="LGpfwvGQ7l3M24DVwtJx-13" target="DLEuB_bgCSQKNgTlU9a6-12">
          <mxGeometry relative="1" as="geometry" />
        </mxCell>
        <mxCell id="DLEuB_bgCSQKNgTlU9a6-60" style="edgeStyle=orthogonalEdgeStyle;rounded=0;orthogonalLoop=1;jettySize=auto;html=1;entryX=0.526;entryY=-0.015;entryDx=0;entryDy=0;entryPerimeter=0;endArrow=none;endFill=0;" edge="1" parent="yhz_Zr8qX37oR2WssUpI-1" source="LGpfwvGQ7l3M24DVwtJx-21" target="DLEuB_bgCSQKNgTlU9a6-13">
          <mxGeometry relative="1" as="geometry" />
        </mxCell>
        <mxCell id="DLEuB_bgCSQKNgTlU9a6-64" value="&lt;font face=&quot;GOST type B Standard&quot;&gt;2&lt;/font&gt;" style="ellipse;whiteSpace=wrap;html=1;aspect=fixed;" vertex="1" parent="yhz_Zr8qX37oR2WssUpI-1">
          <mxGeometry x="389.11" y="1110" width="30" height="30" as="geometry" />
        </mxCell>
        <mxCell id="DLEuB_bgCSQKNgTlU9a6-65" style="edgeStyle=orthogonalEdgeStyle;rounded=0;orthogonalLoop=1;jettySize=auto;html=1;entryX=0.5;entryY=0;entryDx=0;entryDy=0;endArrow=none;endFill=0;" edge="1" parent="yhz_Zr8qX37oR2WssUpI-1" source="LGpfwvGQ7l3M24DVwtJx-28" target="DLEuB_bgCSQKNgTlU9a6-64">
          <mxGeometry relative="1" as="geometry" />
        </mxCell>
        <mxCell id="DLEuB_bgCSQKNgTlU9a6-67" style="edgeStyle=orthogonalEdgeStyle;rounded=0;orthogonalLoop=1;jettySize=auto;html=1;entryX=0.5;entryY=0;entryDx=0;entryDy=0;endArrow=none;endFill=0;" edge="1" parent="yhz_Zr8qX37oR2WssUpI-1" source="DLEuB_bgCSQKNgTlU9a6-66" target="DLEuB_bgCSQKNgTlU9a6-24">
          <mxGeometry relative="1" as="geometry" />
        </mxCell>
        <mxCell id="DLEuB_bgCSQKNgTlU9a6-66" value="&lt;font face=&quot;GOST type B Standard&quot;&gt;2&lt;/font&gt;" style="ellipse;whiteSpace=wrap;html=1;aspect=fixed;" vertex="1" parent="yhz_Zr8qX37oR2WssUpI-1">
          <mxGeometry x="632.42" y="459" width="30" height="30" as="geometry" />
        </mxCell>
      </root>
    </mxGraphModel>
  </diagram>
  <diagram name="Блок схема алгоритма 2" id="t_5x_X6aIu9eBUdovwT_">
    <mxGraphModel dx="1042" dy="562" grid="1" gridSize="10" guides="1" tooltips="1" connect="1" arrows="1" fold="1" page="1" pageScale="1" pageWidth="1654" pageHeight="1169" math="0" shadow="0">
      <root>
        <mxCell id="berjVdsdgL8grTKteqkr-0" />
        <mxCell id="berjVdsdgL8grTKteqkr-1" parent="berjVdsdgL8grTKteqkr-0" />
        <UserObject label="" tags="Фон" id="berjVdsdgL8grTKteqkr-60">
          <mxCell style="vsdxID=1;fillColor=#FFFFFF;gradientColor=none;shape=stencil(UzV2Ls5ILEhVNTIoLinKz04tz0wpyVA1dlE1MsrMy0gtyiwBslSNXVWNndPyi1LTi/JL81Ig/IJEkEoQKze/DGRCBUSfAUiHkUElMs8NojAnMw+nQkMDPEphkmQpRlEKZCAcDvEzshy6J4FCkAAydgUA);strokeColor=#000000;spacingTop=-1;spacingBottom=-1;spacingLeft=-1;spacingRight=-1;points=[];labelBackgroundColor=#ffffff;rounded=0;html=1;whiteSpace=wrap;" parent="berjVdsdgL8grTKteqkr-1" vertex="1">
            <mxGeometry x="61" y="10" width="1579" height="1148" as="geometry" />
          </mxCell>
        </UserObject>
        <UserObject label="" tags="Фон" id="berjVdsdgL8grTKteqkr-3">
          <mxCell style="vsdxID=3;fillColor=#FFFFFF;gradientColor=none;shape=stencil(nY9LDoAgDERP0z3SI/i5BwkoRAUC+Lu9kGo0Lt3NtK/tFLCOWngFnMUU3Kg2I5MGbIBzY7UKJmUF2ALWvQtqCG6xkrwXhSxqdmvZsNNcxViZ4ewgT64jdDL2hf4E7wsXmsWThd549765c4l+xvYE);strokeColor=#000000;spacingTop=-1;spacingBottom=-1;spacingLeft=-1;spacingRight=-1;points=[];labelBackgroundColor=#ffffff;rounded=0;html=1;whiteSpace=wrap;" parent="berjVdsdgL8grTKteqkr-1" vertex="1">
            <mxGeometry x="909" y="947" width="728" height="209" as="geometry" />
          </mxCell>
        </UserObject>
        <UserObject label="&lt;div style=&quot;font-size: 1px&quot;&gt;&lt;font style=&quot;font-size:14.11px;font-family:GOST type B;color:#000000;direction:ltr;letter-spacing:0px;line-height:120%;opacity:1&quot;&gt;&lt;i&gt;Лист&lt;br/&gt;&lt;/i&gt;&lt;/font&gt;&lt;/div&gt;" tags="Фон" id="berjVdsdgL8grTKteqkr-4">
          <mxCell style="verticalAlign=middle;align=center;overflow=width;vsdxID=30;fillColor=none;gradientColor=none;shape=stencil(nZBLDoAgDERP0z3SIyjew0SURgSD+Lu9kMZoXLhwN9O+tukAlrNpJg1SzDH4QW/URgNYgZTkjA4UkwJUgGXng+6DX1zLfmoymdXo17xh5zmRJ6Q42BWCfc2oJfdAr+Yv+AP9Cb7OJ3H/2JG1HNGz/84klThPVCc=);strokeColor=none;spacingTop=-1;spacingBottom=-1;spacingLeft=-1;spacingRight=-1;points=[];labelBackgroundColor=none;rounded=0;html=1;whiteSpace=wrap;" parent="berjVdsdgL8grTKteqkr-1" vertex="1">
            <mxGeometry x="938" y="1026" width="40" height="15" as="geometry" />
          </mxCell>
        </UserObject>
        <UserObject label="&lt;div style=&quot;font-size: 1px&quot;&gt;&lt;font style=&quot;font-size:14.11px;font-family:GOST type B;color:#000000;direction:ltr;letter-spacing:0px;line-height:120%;opacity:1&quot;&gt;&lt;i&gt;№ докум.&lt;/i&gt;&lt;/font&gt;&lt;font style=&quot;font-size:11.29px;font-family:ISOCPEUR;color:#000000;direction:ltr;letter-spacing:0px;line-height:120%;opacity:1&quot;&gt;&lt;br/&gt;&lt;/font&gt;&lt;/div&gt;" tags="Фон" id="berjVdsdgL8grTKteqkr-5">
          <mxCell style="verticalAlign=middle;align=center;overflow=width;vsdxID=31;fillColor=none;gradientColor=none;shape=stencil(nZBLDoAgDERP0z3SIyjew0SURgSD+Lu9kMZoXLhwN9O+tukAlrNpJg1SzDH4QW/URgNYgZTkjA4UkwJUgGXng+6DX1zLfmoymdXo17xh5zmRJ6Q42BWCfc2oJfdAr+Yv+AP9Cb7OJ3H/2JG1HNGz/84klThPVCc=);strokeColor=none;spacingTop=-1;spacingBottom=-1;spacingLeft=-1;spacingRight=-1;points=[];labelBackgroundColor=none;rounded=0;html=1;whiteSpace=wrap;" parent="berjVdsdgL8grTKteqkr-1" vertex="1">
            <mxGeometry x="978" y="1025" width="86" height="15" as="geometry" />
          </mxCell>
        </UserObject>
        <UserObject label="&lt;div style=&quot;font-size: 1px&quot;&gt;&lt;font style=&quot;font-size:14.11px;font-family:GOST type B;color:#000000;direction:ltr;letter-spacing:0px;line-height:120%;opacity:1&quot;&gt;&lt;i&gt;Подп.&lt;br/&gt;&lt;/i&gt;&lt;/font&gt;&lt;/div&gt;" tags="Фон" id="berjVdsdgL8grTKteqkr-6">
          <mxCell style="verticalAlign=middle;align=center;overflow=width;vsdxID=32;fillColor=none;gradientColor=none;shape=stencil(nZBLDoAgDERP0z3SIyjew0SURgSD+Lu9kMZoXLhwN9O+tukAlrNpJg1SzDH4QW/URgNYgZTkjA4UkwJUgGXng+6DX1zLfmoymdXo17xh5zmRJ6Q42BWCfc2oJfdAr+Yv+AP9Cb7OJ3H/2JG1HNGz/84klThPVCc=);strokeColor=none;spacingTop=-1;spacingBottom=-1;spacingLeft=-1;spacingRight=-1;points=[];labelBackgroundColor=none;rounded=0;html=1;whiteSpace=wrap;" parent="berjVdsdgL8grTKteqkr-1" vertex="1">
            <mxGeometry x="1069" y="1026" width="47" height="14" as="geometry" />
          </mxCell>
        </UserObject>
        <UserObject label="&lt;div style=&quot;font-size: 1px&quot;&gt;&lt;font style=&quot;font-size:14.11px;font-family:GOST type B;color:#000000;direction:ltr;letter-spacing:0px;line-height:120%;opacity:1&quot;&gt;&lt;i&gt;Дата&lt;br/&gt;&lt;/i&gt;&lt;/font&gt;&lt;/div&gt;" tags="Фон" id="berjVdsdgL8grTKteqkr-7">
          <mxCell style="verticalAlign=middle;align=center;overflow=width;vsdxID=33;fillColor=none;gradientColor=none;shape=stencil(nZBLDoAgDERP0z3SIyjew0SURgSD+Lu9kMZoXLhwN9O+tukAlrNpJg1SzDH4QW/URgNYgZTkjA4UkwJUgGXng+6DX1zLfmoymdXo17xh5zmRJ6Q42BWCfc2oJfdAr+Yv+AP9Cb7OJ3H/2JG1HNGz/84klThPVCc=);strokeColor=none;spacingTop=-1;spacingBottom=-1;spacingLeft=-1;spacingRight=-1;points=[];labelBackgroundColor=none;rounded=0;html=1;whiteSpace=wrap;" parent="berjVdsdgL8grTKteqkr-1" vertex="1">
            <mxGeometry x="1122" y="1025" width="41" height="15" as="geometry" />
          </mxCell>
        </UserObject>
        <UserObject label="&lt;div style=&quot;font-size: 1px&quot;&gt;&lt;font style=&quot;font-size:14.11px;font-family:GOST type B;color:#000000;direction:ltr;letter-spacing:0px;line-height:120%;opacity:1&quot;&gt;&lt;i&gt;Лит.&lt;br/&gt;&lt;/i&gt;&lt;/font&gt;&lt;/div&gt;" tags="Фон" id="berjVdsdgL8grTKteqkr-8">
          <mxCell style="verticalAlign=middle;align=center;overflow=width;vsdxID=34;fillColor=none;gradientColor=none;shape=stencil(nZBLDoAgDERP0z3SIyjew0SURgSD+Lu9kMZoXLhwN9O+tukAlrNpJg1SzDH4QW/URgNYgZTkjA4UkwJUgGXng+6DX1zLfmoymdXo17xh5zmRJ6Q42BWCfc2oJfdAr+Yv+AP9Cb7OJ3H/2JG1HNGz/84klThPVCc=);strokeColor=none;spacingTop=-1;spacingBottom=-1;spacingLeft=-1;spacingRight=-1;points=[];labelBackgroundColor=none;rounded=0;html=1;whiteSpace=wrap;" parent="berjVdsdgL8grTKteqkr-1" vertex="1">
            <mxGeometry x="1443" y="1006" width="55" height="15" as="geometry" />
          </mxCell>
        </UserObject>
        <UserObject label="&lt;div style=&quot;font-size: 1px&quot;&gt;&lt;font style=&quot;font-size:14.11px;font-family:GOST type B;color:#000000;direction:ltr;letter-spacing:0px;line-height:120%;opacity:1&quot;&gt;&lt;i&gt;Масса&lt;br/&gt;&lt;/i&gt;&lt;/font&gt;&lt;/div&gt;" tags="Фон" id="berjVdsdgL8grTKteqkr-9">
          <mxCell style="verticalAlign=middle;align=center;overflow=width;vsdxID=35;fillColor=none;gradientColor=none;shape=stencil(nZBLDoAgDERP0z3SIyjew0SURgSD+Lu9kMZoXLhwN9O+tukAlrNpJg1SzDH4QW/URgNYgZTkjA4UkwJUgGXng+6DX1zLfmoymdXo17xh5zmRJ6Q42BWCfc2oJfdAr+Yv+AP9Cb7OJ3H/2JG1HNGz/84klThPVCc=);strokeColor=none;spacingTop=-1;spacingBottom=-1;spacingLeft=-1;spacingRight=-1;points=[];labelBackgroundColor=none;rounded=0;html=1;whiteSpace=wrap;" parent="berjVdsdgL8grTKteqkr-1" vertex="1">
            <mxGeometry x="1502" y="1006" width="64" height="15" as="geometry" />
          </mxCell>
        </UserObject>
        <UserObject label="&lt;div style=&quot;font-size: 1px&quot;&gt;&lt;font style=&quot;font-size:14.11px;font-family:GOST type B;color:#000000;direction:ltr;letter-spacing:0px;line-height:120%;opacity:1&quot;&gt;&lt;i&gt;Масштаб&lt;br/&gt;&lt;/i&gt;&lt;/font&gt;&lt;/div&gt;" tags="Фон" id="berjVdsdgL8grTKteqkr-10">
          <mxCell style="verticalAlign=middle;align=center;overflow=width;vsdxID=36;fillColor=none;gradientColor=none;shape=stencil(nZBLDoAgDERP0z3SIyjew0SURgSD+Lu9kMZoXLhwN9O+tukAlrNpJg1SzDH4QW/URgNYgZTkjA4UkwJUgGXng+6DX1zLfmoymdXo17xh5zmRJ6Q42BWCfc2oJfdAr+Yv+AP9Cb7OJ3H/2JG1HNGz/84klThPVCc=);strokeColor=none;spacingTop=-1;spacingBottom=-1;spacingLeft=-1;spacingRight=-1;points=[];labelBackgroundColor=none;rounded=0;html=1;whiteSpace=wrap;" parent="berjVdsdgL8grTKteqkr-1" vertex="1">
            <mxGeometry x="1565" y="1004" width="78" height="19" as="geometry" />
          </mxCell>
        </UserObject>
        <UserObject label="&lt;div style=&quot;font-size: 1px&quot;&gt;&lt;p style=&quot;text-align:center;margin-left:0;margin-right:0;margin-top:0px;margin-bottom:0px;text-indent:0;vertical-align:middle;direction:ltr;&quot;&gt;&lt;font style=&quot;font-size:33.87px;font-family:GOST type B;color:#000000;direction:ltr;letter-spacing:0px;line-height:120%;opacity:1&quot;&gt;&lt;i&gt;ГУИР.400401&lt;/i&gt;&lt;/font&gt;&lt;font style=&quot;font-size:33.87px;font-family:GOST type B;color:#000000;direction:ltr;letter-spacing:0px;line-height:120%;opacity:1&quot;&gt;&lt;i&gt;.&lt;/i&gt;&lt;/font&gt;&lt;font style=&quot;font-size:33.87px;font-family:GOST type B;color:#000000;direction:ltr;letter-spacing:0px;line-height:120%;opacity:1&quot;&gt;&lt;i&gt;008.02&lt;/i&gt;&lt;/font&gt;&lt;font style=&quot;font-size:33.87px;font-family:GOST type B;color:#000000;direction:ltr;letter-spacing:0px;line-height:120%;opacity:1&quot;&gt;&lt;i&gt;&lt;br&gt;&lt;/i&gt;&lt;/font&gt;&lt;/p&gt;&lt;/div&gt;" tags="Фон" id="berjVdsdgL8grTKteqkr-11">
          <mxCell style="verticalAlign=middle;align=center;overflow=width;vsdxID=85;fillColor=none;gradientColor=none;shape=stencil(nZBLDoAgDERP0z3SIyjew0SURgSD+Lu9kMZoXLhwN9O+tukAlrNpJg1SzDH4QW/URgNYgZTkjA4UkwJUgGXng+6DX1zLfmoymdXo17xh5zmRJ6Q42BWCfc2oJfdAr+Yv+AP9Cb7OJ3H/2JG1HNGz/84klThPVCc=);strokeColor=none;spacingTop=-2;spacingBottom=-2;spacingLeft=-2;spacingRight=-2;points=[];labelBackgroundColor=none;rounded=0;html=1;whiteSpace=wrap;" parent="berjVdsdgL8grTKteqkr-1" vertex="1">
            <mxGeometry x="1167" y="947" width="472" height="59" as="geometry" />
          </mxCell>
        </UserObject>
        <UserObject label="&lt;div style=&quot;font-size: 1px&quot;&gt;&lt;p style=&quot;text-align:center;margin-left:0;margin-right:0;margin-top:0px;margin-bottom:0px;text-indent:0;vertical-align:middle;direction:ltr;&quot;&gt;&lt;font style=&quot;font-size:22.58px;font-family:GOST type B;color:#000000;direction:ltr;letter-spacing:0px;line-height:120%;opacity:1&quot;&gt;&lt;i&gt;Блок схема алгоритма, реализующего &lt;/i&gt;&lt;/font&gt;&lt;font style=&quot;font-size:22.58px;font-family:GOST type B;color:#000000;direction:ltr;letter-spacing:0px;line-height:120%;opacity:1&quot;&gt;&lt;i&gt;&lt;br/&gt;&lt;/i&gt;&lt;/font&gt;&lt;font style=&quot;font-size:22.58px;font-family:GOST type B;color:#000000;direction:ltr;letter-spacing:0px;line-height:120%;opacity:1&quot;&gt;&lt;i&gt;программное средство &lt;/i&gt;&lt;/font&gt;&lt;font style=&quot;font-size:22.58px;font-family:GOST type B;color:#000000;direction:ltr;letter-spacing:0px;line-height:120%;opacity:1&quot;&gt;&lt;i&gt;&lt;br/&gt;&lt;/i&gt;&lt;/font&gt;&lt;/p&gt;&lt;/div&gt;" tags="Фон" id="berjVdsdgL8grTKteqkr-12">
          <mxCell style="verticalAlign=middle;align=center;overflow=width;vsdxID=86;fillColor=none;gradientColor=none;shape=stencil(nZBLDoAgDERP0z3SIyjew0SURgSD+Lu9kMZoXLhwN9O+tukAlrNpJg1SzDH4QW/URgNYgZTkjA4UkwJUgGXng+6DX1zLfmoymdXo17xh5zmRJ6Q42BWCfc2oJfdAr+Yv+AP9Cb7OJ3H/2JG1HNGz/84klThPVCc=);strokeColor=none;spacingTop=-2;spacingBottom=-2;spacingLeft=-2;spacingRight=-2;points=[];labelBackgroundColor=none;rounded=0;html=1;whiteSpace=wrap;" parent="berjVdsdgL8grTKteqkr-1" vertex="1">
            <mxGeometry x="1163" y="1004" width="275" height="96" as="geometry" />
          </mxCell>
        </UserObject>
        <UserObject label="&lt;div style=&quot;font-size: 1px&quot;&gt;&lt;p style=&quot;text-align:center;margin-left:0;margin-right:0;margin-top:0px;margin-bottom:0px;text-indent:0;vertical-align:middle;direction:ltr;&quot;&gt;&lt;font style=&quot;font-size:16.93px;font-family:GOST type B;color:#000000;direction:ltr;letter-spacing:0px;line-height:120%;opacity:1&quot;&gt;&lt;i&gt;Кафедра информатики&lt;br/&gt;группа 253502&lt;br/&gt;&lt;/i&gt;&lt;/font&gt;&lt;/p&gt;&lt;/div&gt;" tags="Фон" id="berjVdsdgL8grTKteqkr-13">
          <mxCell style="verticalAlign=middle;align=center;overflow=width;vsdxID=88;fillColor=none;gradientColor=none;shape=stencil(nZBLDoAgDERP0z3SIyjew0SURgSD+Lu9kMZoXLhwN9O+tukAlrNpJg1SzDH4QW/URgNYgZTkjA4UkwJUgGXng+6DX1zLfmoymdXo17xh5zmRJ6Q42BWCfc2oJfdAr+Yv+AP9Cb7OJ3H/2JG1HNGz/84klThPVCc=);strokeColor=none;spacingTop=-2;spacingBottom=-2;spacingLeft=-2;spacingRight=-2;points=[[0.64,1,0],[1,1,0]];labelBackgroundColor=none;rounded=0;html=1;whiteSpace=wrap;" parent="berjVdsdgL8grTKteqkr-1" vertex="1">
            <mxGeometry x="1442" y="1100" width="196" height="58" as="geometry" />
          </mxCell>
        </UserObject>
        <UserObject label="&lt;div style=&quot;font-size: 1px&quot;&gt;&lt;p style=&quot;text-align:center;margin-left:0;margin-right:0;margin-top:0px;margin-bottom:0px;text-indent:0;vertical-align:middle;direction:ltr;&quot;&gt;&lt;font style=&quot;font-size:14.11px;font-family:GOST type B;color:#000000;direction:ltr;letter-spacing:0px;line-height:120%;opacity:1&quot;&gt;&lt;i&gt;Листов 5&lt;/i&gt;&lt;/font&gt;&lt;font style=&quot;font-size:14.11px;font-family:GOST type B;color:#000000;direction:ltr;letter-spacing:0px;line-height:120%;opacity:1&quot;&gt;&lt;i&gt;&lt;br&gt;&lt;/i&gt;&lt;/font&gt;&lt;/p&gt;&lt;/div&gt;" tags="Фон" id="berjVdsdgL8grTKteqkr-14">
          <mxCell style="verticalAlign=middle;align=center;overflow=width;vsdxID=89;fillColor=none;gradientColor=none;shape=stencil(nZBLDoAgDERP0z3SIyjew0SURgSD+Lu9kMZoXLhwN9O+tukAlrNpJg1SzDH4QW/URgNYgZTkjA4UkwJUgGXng+6DX1zLfmoymdXo17xh5zmRJ6Q42BWCfc2oJfdAr+Yv+AP9Cb7OJ3H/2JG1HNGz/84klThPVCc=);strokeColor=none;spacingTop=-2;spacingBottom=-2;spacingLeft=-2;spacingRight=-2;points=[];labelBackgroundColor=none;rounded=0;html=1;whiteSpace=wrap;" parent="berjVdsdgL8grTKteqkr-1" vertex="1">
            <mxGeometry x="1520" y="1081" width="118" height="19" as="geometry" />
          </mxCell>
        </UserObject>
        <UserObject label="&lt;div style=&quot;font-size: 1px&quot;&gt;&lt;p style=&quot;text-align:center;margin-left:0;margin-right:0;margin-top:0px;margin-bottom:0px;text-indent:0;vertical-align:middle;direction:ltr;&quot;&gt;&lt;font style=&quot;font-size:14.11px;font-family:GOST type B;color:#000000;direction:ltr;letter-spacing:0px;line-height:120%;opacity:1&quot;&gt;&lt;i&gt;Лист 2&lt;br&gt;&lt;/i&gt;&lt;/font&gt;&lt;/p&gt;&lt;/div&gt;" tags="Фон" id="berjVdsdgL8grTKteqkr-15">
          <mxCell style="verticalAlign=middle;align=center;overflow=width;vsdxID=90;fillColor=none;gradientColor=none;shape=stencil(nZBLDoAgDERP0z3SIyjew0SURgSD+Lu9kMZoXLhwN9O+tukAlrNpJg1SzDH4QW/URgNYgZTkjA4UkwJUgGXng+6DX1zLfmoymdXo17xh5zmRJ6Q42BWCfc2oJfdAr+Yv+AP9Cb7OJ3H/2JG1HNGz/84klThPVCc=);strokeColor=none;spacingTop=-2;spacingBottom=-2;spacingLeft=-2;spacingRight=-2;points=[];labelBackgroundColor=none;rounded=0;html=1;whiteSpace=wrap;" parent="berjVdsdgL8grTKteqkr-1" vertex="1">
            <mxGeometry x="1442" y="1082" width="78" height="17" as="geometry" />
          </mxCell>
        </UserObject>
        <UserObject label="&lt;div style=&quot;&quot;&gt;&lt;p style=&quot;text-align: center; margin: 0px; text-indent: 0px; vertical-align: middle; direction: ltr;&quot;&gt;&lt;font style=&quot;font-family: &amp;quot;GOST type B&amp;quot;; color: rgb(0, 0, 0); direction: ltr; letter-spacing: 0px; line-height: 120%; opacity: 1;&quot;&gt;&lt;i style=&quot;&quot;&gt;&lt;font style=&quot;font-size: 14.11px;&quot;&gt;Формат А3&lt;/font&gt;&lt;br&gt;&lt;/i&gt;&lt;/font&gt;&lt;/p&gt;&lt;/div&gt;" tags="Фон" id="berjVdsdgL8grTKteqkr-16">
          <mxCell style="verticalAlign=middle;align=center;overflow=width;vsdxID=360;fillColor=none;gradientColor=none;shape=stencil(nZBLDoAgDERP0z3SIyjew0SURgSD+Lu9kMZoXLhwN9O+tukAlrNpJg1SzDH4QW/URgNYgZTkjA4UkwJUgGXng+6DX1zLfmoymdXo17xh5zmRJ6Q42BWCfc2oJfdAr+Yv+AP9Cb7OJ3H/2JG1HNGz/84klThPVCc=);strokeColor=none;spacingTop=-2;spacingBottom=-2;spacingLeft=-2;spacingRight=-2;points=[[0.64,1,0],[1,1,0]];labelBackgroundColor=none;rounded=0;html=1;whiteSpace=wrap;" parent="berjVdsdgL8grTKteqkr-1" vertex="1">
            <mxGeometry x="1553" y="1155" width="86" height="14" as="geometry" />
          </mxCell>
        </UserObject>
        <UserObject label="&lt;div style=&quot;font-size: 1px&quot;&gt;&lt;p style=&quot;text-align:center;margin-left:0;margin-right:0;margin-top:0px;margin-bottom:0px;text-indent:0;vertical-align:middle;direction:ltr;&quot;&gt;&lt;font style=&quot;font-size:14.11px;font-family:GOST type B;color:#000000;direction:ltr;letter-spacing:0px;line-height:120%;opacity:1&quot;&gt;&lt;i&gt;Изм.&lt;/i&gt;&lt;/font&gt;&lt;font style=&quot;font-size:14.11px;font-family:GOST type B;color:#000000;direction:ltr;letter-spacing:0px;line-height:120%;opacity:1&quot;&gt;&lt;i&gt;&lt;br/&gt;&lt;/i&gt;&lt;/font&gt;&lt;/p&gt;&lt;/div&gt;" tags="Фон" id="berjVdsdgL8grTKteqkr-17">
          <mxCell style="verticalAlign=middle;align=center;overflow=width;vsdxID=386;fillColor=none;gradientColor=none;shape=stencil(nZBLDoAgDERP0z3SIyjew0SURgSD+Lu9kMZoXLhwN9O+tukAlrNpJg1SzDH4QW/URgNYgZTkjA4UkwJUgGXng+6DX1zLfmoymdXo17xh5zmRJ6Q42BWCfc2oJfdAr+Yv+AP9Cb7OJ3H/2JG1HNGz/84klThPVCc=);strokeColor=none;spacingTop=-2;spacingBottom=-2;spacingLeft=-2;spacingRight=-2;points=[];labelBackgroundColor=none;rounded=0;html=1;whiteSpace=wrap;" parent="berjVdsdgL8grTKteqkr-1" vertex="1">
            <mxGeometry x="908" y="1026" width="36" height="15" as="geometry" />
          </mxCell>
        </UserObject>
        <UserObject label="&lt;div style=&quot;font-size: 1px&quot;&gt;&lt;p style=&quot;margin: 0px; text-indent: 0px; vertical-align: middle; direction: rtl;&quot;&gt;&lt;font style=&quot;font-size:14.11px;font-family:GOST type B;color:#000000;direction:ltr;letter-spacing:0px;line-height:120%;opacity:1&quot;&gt;&lt;i&gt;.Разраб&lt;/i&gt;&lt;/font&gt;&lt;/p&gt;&lt;/div&gt;" tags="Фон" id="berjVdsdgL8grTKteqkr-18">
          <mxCell style="verticalAlign=middle;align=left;overflow=width;vsdxID=396;fillColor=none;gradientColor=none;shape=stencil(nZBLDoAgDERP0z3SIyjew0SURgSD+Lu9kMZoXLhwN9O+tukAlrNpJg1SzDH4QW/URgNYgZTkjA4UkwJUgGXng+6DX1zLfmoymdXo17xh5zmRJ6Q42BWCfc2oJfdAr+Yv+AP9Cb7OJ3H/2JG1HNGz/84klThPVCc=);strokeColor=none;spacingTop=-1;spacingBottom=-1;spacingLeft=-1;spacingRight=-1;points=[];labelBackgroundColor=none;rounded=0;html=1;whiteSpace=wrap;" parent="berjVdsdgL8grTKteqkr-1" vertex="1">
            <mxGeometry x="911" y="1045" width="63" height="15" as="geometry" />
          </mxCell>
        </UserObject>
        <UserObject label="&lt;div style=&quot;font-size: 1px&quot;&gt;&lt;p style=&quot;text-align: left; margin: 0px; text-indent: 0px; vertical-align: middle; direction: rtl;&quot;&gt;&lt;font style=&quot;font-size:14.11px;font-family:GOST type B;color:#000000;direction:ltr;letter-spacing:0px;line-height:120%;opacity:1&quot;&gt;&lt;i&gt;.Пров&lt;br&gt;&lt;/i&gt;&lt;/font&gt;&lt;/p&gt;&lt;/div&gt;" tags="Фон" id="berjVdsdgL8grTKteqkr-19">
          <mxCell style="verticalAlign=middle;align=right;overflow=width;vsdxID=397;fillColor=none;gradientColor=none;shape=stencil(nZBLDoAgDERP0z3SIyjew0SURgSD+Lu9kMZoXLhwN9O+tukAlrNpJg1SzDH4QW/URgNYgZTkjA4UkwJUgGXng+6DX1zLfmoymdXo17xh5zmRJ6Q42BWCfc2oJfdAr+Yv+AP9Cb7OJ3H/2JG1HNGz/84klThPVCc=);strokeColor=none;spacingTop=-1;spacingBottom=-1;spacingLeft=-1;spacingRight=-1;points=[];labelBackgroundColor=none;rounded=0;html=1;whiteSpace=wrap;" parent="berjVdsdgL8grTKteqkr-1" vertex="1">
            <mxGeometry x="912" y="1062" width="63" height="19" as="geometry" />
          </mxCell>
        </UserObject>
        <UserObject label="&lt;div style=&quot;font-size: 1px&quot;&gt;&lt;p style=&quot;text-align: left; margin: 0px; text-indent: 0px; vertical-align: middle; direction: rtl;&quot;&gt;&lt;font style=&quot;font-size:14.11px;font-family:GOST type B;color:#000000;direction:ltr;letter-spacing:0px;line-height:120%;opacity:1&quot;&gt;&lt;i&gt;.Н.контр&lt;br&gt;&lt;/i&gt;&lt;/font&gt;&lt;/p&gt;&lt;/div&gt;" tags="Фон" id="berjVdsdgL8grTKteqkr-20">
          <mxCell style="verticalAlign=middle;align=right;overflow=width;vsdxID=398;fillColor=none;gradientColor=none;shape=stencil(nZBLDoAgDERP0z3SIyjew0SURgSD+Lu9kMZoXLhwN9O+tukAlrNpJg1SzDH4QW/URgNYgZTkjA4UkwJUgGXng+6DX1zLfmoymdXo17xh5zmRJ6Q42BWCfc2oJfdAr+Yv+AP9Cb7OJ3H/2JG1HNGz/84klThPVCc=);strokeColor=none;spacingTop=-1;spacingBottom=-1;spacingLeft=-1;spacingRight=-1;points=[];labelBackgroundColor=none;rounded=0;html=1;whiteSpace=wrap;" parent="berjVdsdgL8grTKteqkr-1" vertex="1">
            <mxGeometry x="912" y="1102" width="63" height="19" as="geometry" />
          </mxCell>
        </UserObject>
        <UserObject label="&lt;div style=&quot;font-size: 1px&quot;&gt;&lt;p style=&quot;text-align: left; margin: 0px; text-indent: 0px; vertical-align: middle; direction: rtl;&quot;&gt;&lt;font style=&quot;font-size:14.11px;font-family:GOST type B;color:#000000;direction:ltr;letter-spacing:0px;line-height:120%;opacity:1&quot;&gt;&lt;i&gt;.Утв&lt;br&gt;&lt;/i&gt;&lt;/font&gt;&lt;/p&gt;&lt;/div&gt;" tags="Фон" id="berjVdsdgL8grTKteqkr-21">
          <mxCell style="verticalAlign=middle;align=right;overflow=width;vsdxID=399;fillColor=none;gradientColor=none;shape=stencil(nZBLDoAgDERP0z3SIyjew0SURgSD+Lu9kMZoXLhwN9O+tukAlrNpJg1SzDH4QW/URgNYgZTkjA4UkwJUgGXng+6DX1zLfmoymdXo17xh5zmRJ6Q42BWCfc2oJfdAr+Yv+AP9Cb7OJ3H/2JG1HNGz/84klThPVCc=);strokeColor=none;spacingTop=-1;spacingBottom=-1;spacingLeft=-1;spacingRight=-1;points=[];labelBackgroundColor=none;rounded=0;html=1;whiteSpace=wrap;" parent="berjVdsdgL8grTKteqkr-1" vertex="1">
            <mxGeometry x="912" y="1120" width="63" height="18" as="geometry" />
          </mxCell>
        </UserObject>
        <UserObject label="&lt;div style=&quot;font-size: 1px&quot;&gt;&lt;p style=&quot;text-align: left; margin: 0px; text-indent: 0px; vertical-align: middle; direction: rtl;&quot;&gt;&lt;font style=&quot;font-size:14.11px;font-family:GOST type B;color:#000000;direction:ltr;letter-spacing:0px;line-height:120%;opacity:1&quot;&gt;&lt;i&gt;Канавальчик&lt;br&gt;&lt;/i&gt;&lt;/font&gt;&lt;/p&gt;&lt;/div&gt;" tags="Фон" id="berjVdsdgL8grTKteqkr-22">
          <mxCell style="verticalAlign=middle;align=right;overflow=width;vsdxID=400;fillColor=none;gradientColor=none;shape=stencil(nZBLDoAgDERP0z3SIyjew0SURgSD+Lu9kMZoXLhwN9O+tukAlrNpJg1SzDH4QW/URgNYgZTkjA4UkwJUgGXng+6DX1zLfmoymdXo17xh5zmRJ6Q42BWCfc2oJfdAr+Yv+AP9Cb7OJ3H/2JG1HNGz/84klThPVCc=);strokeColor=none;spacingTop=-1;spacingBottom=-1;spacingLeft=-1;spacingRight=-1;points=[];labelBackgroundColor=none;rounded=0;html=1;whiteSpace=wrap;" parent="berjVdsdgL8grTKteqkr-1" vertex="1">
            <mxGeometry x="978" y="1045" width="86" height="16" as="geometry" />
          </mxCell>
        </UserObject>
        <UserObject label="&lt;div style=&quot;font-size: 1px&quot;&gt;&lt;p style=&quot;text-align: left; margin: 0px; text-indent: 0px; vertical-align: middle; direction: rtl;&quot;&gt;&lt;font style=&quot;font-size:14.11px;font-family:GOST type B;color:#000000;direction:ltr;letter-spacing:0px;line-height:120%;opacity:1&quot;&gt;&lt;i&gt;Марков&lt;br&gt;&lt;/i&gt;&lt;/font&gt;&lt;/p&gt;&lt;/div&gt;" tags="Фон" id="berjVdsdgL8grTKteqkr-23">
          <mxCell style="verticalAlign=middle;align=right;overflow=width;vsdxID=401;fillColor=none;gradientColor=none;shape=stencil(nZBLDoAgDERP0z3SIyjew0SURgSD+Lu9kMZoXLhwN9O+tukAlrNpJg1SzDH4QW/URgNYgZTkjA4UkwJUgGXng+6DX1zLfmoymdXo17xh5zmRJ6Q42BWCfc2oJfdAr+Yv+AP9Cb7OJ3H/2JG1HNGz/84klThPVCc=);strokeColor=none;spacingTop=-1;spacingBottom=-1;spacingLeft=-1;spacingRight=-1;points=[];labelBackgroundColor=none;rounded=0;html=1;whiteSpace=wrap;" parent="berjVdsdgL8grTKteqkr-1" vertex="1">
            <mxGeometry x="978" y="1062" width="86" height="18" as="geometry" />
          </mxCell>
        </UserObject>
        <UserObject label="&lt;div style=&quot;font-size: 1px&quot;&gt;&lt;p style=&quot;text-align: left; margin: 0px; text-indent: 0px; vertical-align: middle; direction: rtl;&quot;&gt;&lt;font style=&quot;font-size:14.11px;font-family:GOST type B;color:#000000;direction:ltr;letter-spacing:0px;line-height:120%;opacity:1&quot;&gt;&lt;i&gt;Калиновская&lt;br&gt;&lt;/i&gt;&lt;/font&gt;&lt;/p&gt;&lt;/div&gt;" tags="Фон" id="berjVdsdgL8grTKteqkr-24">
          <mxCell style="verticalAlign=middle;align=right;overflow=width;vsdxID=402;fillColor=none;gradientColor=none;shape=stencil(nZBLDoAgDERP0z3SIyjew0SURgSD+Lu9kMZoXLhwN9O+tukAlrNpJg1SzDH4QW/URgNYgZTkjA4UkwJUgGXng+6DX1zLfmoymdXo17xh5zmRJ6Q42BWCfc2oJfdAr+Yv+AP9Cb7OJ3H/2JG1HNGz/84klThPVCc=);strokeColor=none;spacingTop=-1;spacingBottom=-1;spacingLeft=-1;spacingRight=-1;points=[];labelBackgroundColor=none;rounded=0;html=1;whiteSpace=wrap;" parent="berjVdsdgL8grTKteqkr-1" vertex="1">
            <mxGeometry x="979" y="1101" width="84" height="18" as="geometry" />
          </mxCell>
        </UserObject>
        <UserObject label="&lt;div style=&quot;font-size: 1px&quot;&gt;&lt;p style=&quot;text-align: left; margin: 0px; text-indent: 0px; vertical-align: middle; direction: rtl;&quot;&gt;&lt;font style=&quot;font-size:14.11px;font-family:GOST type B;color:#000000;direction:ltr;letter-spacing:0px;line-height:120%;opacity:1&quot;&gt;&lt;i&gt;Марков&lt;/i&gt;&lt;/font&gt;&lt;font style=&quot;font-size:14.11px;font-family:GOST type B;color:#000000;direction:ltr;letter-spacing:0px;line-height:120%;opacity:1&quot;&gt;&lt;i&gt;&lt;br&gt;&lt;/i&gt;&lt;/font&gt;&lt;/p&gt;&lt;/div&gt;" tags="Фон" id="berjVdsdgL8grTKteqkr-25">
          <mxCell style="verticalAlign=middle;align=right;overflow=width;vsdxID=403;fillColor=none;gradientColor=none;shape=stencil(nZBLDoAgDERP0z3SIyjew0SURgSD+Lu9kMZoXLhwN9O+tukAlrNpJg1SzDH4QW/URgNYgZTkjA4UkwJUgGXng+6DX1zLfmoymdXo17xh5zmRJ6Q42BWCfc2oJfdAr+Yv+AP9Cb7OJ3H/2JG1HNGz/84klThPVCc=);strokeColor=none;spacingTop=-1;spacingBottom=-1;spacingLeft=-1;spacingRight=-1;points=[];labelBackgroundColor=none;rounded=0;html=1;whiteSpace=wrap;" parent="berjVdsdgL8grTKteqkr-1" vertex="1">
            <mxGeometry x="979" y="1119" width="84" height="19" as="geometry" />
          </mxCell>
        </UserObject>
        <UserObject label="&lt;div style=&quot;font-size: 1px&quot;&gt;&lt;p style=&quot;text-align: left; margin: 0px; text-indent: 0px; vertical-align: middle; direction: rtl;&quot;&gt;&lt;font style=&quot;font-size:14.11px;font-family:GOST type B;color:#000000;direction:ltr;letter-spacing:0px;line-height:120%;opacity:1&quot;&gt;&lt;i&gt;.Рец&lt;br&gt;&lt;/i&gt;&lt;/font&gt;&lt;/p&gt;&lt;/div&gt;" tags="Фон" id="berjVdsdgL8grTKteqkr-26">
          <mxCell style="verticalAlign=middle;align=right;overflow=width;vsdxID=404;fillColor=none;gradientColor=none;shape=stencil(nZBLDoAgDERP0z3SIyjew0SURgSD+Lu9kMZoXLhwN9O+tukAlrNpJg1SzDH4QW/URgNYgZTkjA4UkwJUgGXng+6DX1zLfmoymdXo17xh5zmRJ6Q42BWCfc2oJfdAr+Yv+AP9Cb7OJ3H/2JG1HNGz/84klThPVCc=);strokeColor=none;spacingTop=-1;spacingBottom=-1;spacingLeft=-1;spacingRight=-1;points=[];labelBackgroundColor=none;rounded=0;html=1;whiteSpace=wrap;" parent="berjVdsdgL8grTKteqkr-1" vertex="1">
            <mxGeometry x="912" y="1080" width="63" height="20" as="geometry" />
          </mxCell>
        </UserObject>
        <UserObject label="" tags="Фон" id="berjVdsdgL8grTKteqkr-27">
          <mxCell style="vsdxID=5;edgeStyle=none;startArrow=none;endArrow=none;startSize=5;endSize=5;strokeColor=#000000;spacingTop=-1;spacingBottom=-1;spacingLeft=-1;spacingRight=-1;verticalAlign=middle;html=1;labelBackgroundColor=#ffffff;rounded=0;" parent="berjVdsdgL8grTKteqkr-1" edge="1">
            <mxGeometry relative="1" as="geometry">
              <Array as="points" />
              <mxPoint x="1639" y="1004" as="sourcePoint" />
              <mxPoint x="1165" y="1004" as="targetPoint" />
            </mxGeometry>
          </mxCell>
        </UserObject>
        <UserObject label="" tags="Фон" id="berjVdsdgL8grTKteqkr-28">
          <mxCell style="vsdxID=4;edgeStyle=none;startArrow=none;endArrow=none;startSize=5;endSize=5;strokeColor=#000000;spacingTop=-1;spacingBottom=-1;spacingLeft=-1;spacingRight=-1;verticalAlign=middle;html=1;labelBackgroundColor=#ffffff;rounded=0;" parent="berjVdsdgL8grTKteqkr-1" edge="1">
            <mxGeometry relative="1" as="geometry">
              <Array as="points" />
              <mxPoint x="1165" y="947" as="sourcePoint" />
              <mxPoint x="1165" y="1157" as="targetPoint" />
            </mxGeometry>
          </mxCell>
        </UserObject>
        <UserObject label="" tags="Фон" id="berjVdsdgL8grTKteqkr-29">
          <mxCell style="vsdxID=6;edgeStyle=none;startArrow=none;endArrow=none;startSize=5;endSize=5;strokeColor=#000000;spacingTop=-1;spacingBottom=-1;spacingLeft=-1;spacingRight=-1;verticalAlign=middle;html=1;labelBackgroundColor=#ffffff;rounded=0;" parent="berjVdsdgL8grTKteqkr-1" edge="1">
            <mxGeometry relative="1" as="geometry">
              <Array as="points" />
              <mxPoint x="1638" y="1100" as="sourcePoint" />
              <mxPoint x="1165" y="1100" as="targetPoint" />
            </mxGeometry>
          </mxCell>
        </UserObject>
        <UserObject label="" tags="Фон" id="berjVdsdgL8grTKteqkr-30">
          <mxCell style="vsdxID=7;edgeStyle=none;startArrow=none;endArrow=none;startSize=5;endSize=5;strokeColor=#000000;spacingTop=-1;spacingBottom=-1;spacingLeft=-1;spacingRight=-1;verticalAlign=middle;html=1;labelBackgroundColor=#ffffff;rounded=0;" parent="berjVdsdgL8grTKteqkr-1" edge="1">
            <mxGeometry relative="1" as="geometry">
              <Array as="points" />
              <mxPoint x="1441" y="1004" as="sourcePoint" />
              <mxPoint x="1441" y="1157" as="targetPoint" />
            </mxGeometry>
          </mxCell>
        </UserObject>
        <UserObject label="" tags="Фон" id="berjVdsdgL8grTKteqkr-31">
          <mxCell style="vsdxID=9;edgeStyle=none;startArrow=none;endArrow=none;startSize=5;endSize=5;strokeColor=#000000;spacingTop=-1;spacingBottom=-1;spacingLeft=-1;spacingRight=-1;verticalAlign=middle;html=1;labelBackgroundColor=#ffffff;rounded=0;" parent="berjVdsdgL8grTKteqkr-1" edge="1">
            <mxGeometry relative="1" as="geometry">
              <mxPoint as="offset" />
              <Array as="points" />
              <mxPoint x="1441" y="1081" as="sourcePoint" />
              <mxPoint x="1638" y="1081" as="targetPoint" />
            </mxGeometry>
          </mxCell>
        </UserObject>
        <UserObject label="" tags="Фон" id="berjVdsdgL8grTKteqkr-32">
          <mxCell style="vsdxID=10;edgeStyle=none;startArrow=none;endArrow=none;startSize=5;endSize=5;strokeColor=#000000;spacingTop=-1;spacingBottom=-1;spacingLeft=-1;spacingRight=-1;verticalAlign=middle;html=1;labelBackgroundColor=#ffffff;rounded=0;" parent="berjVdsdgL8grTKteqkr-1" edge="1">
            <mxGeometry relative="1" as="geometry">
              <Array as="points" />
              <mxPoint x="1500" y="1004" as="sourcePoint" />
              <mxPoint x="1500" y="1081" as="targetPoint" />
            </mxGeometry>
          </mxCell>
        </UserObject>
        <UserObject label="" tags="Фон" id="berjVdsdgL8grTKteqkr-33">
          <mxCell style="vsdxID=12;edgeStyle=none;startArrow=none;endArrow=none;startSize=5;endSize=5;strokeColor=#000000;spacingTop=-1;spacingBottom=-1;spacingLeft=-1;spacingRight=-1;verticalAlign=middle;html=1;labelBackgroundColor=#ffffff;rounded=0;" parent="berjVdsdgL8grTKteqkr-1" edge="1">
            <mxGeometry relative="1" as="geometry">
              <Array as="points" />
              <mxPoint x="1460" y="1023" as="sourcePoint" />
              <mxPoint x="1460" y="1081" as="targetPoint" />
            </mxGeometry>
          </mxCell>
        </UserObject>
        <UserObject label="" tags="Фон" id="berjVdsdgL8grTKteqkr-34">
          <mxCell style="vsdxID=13;edgeStyle=none;startArrow=none;endArrow=none;startSize=5;endSize=5;strokeColor=#000000;spacingTop=-1;spacingBottom=-1;spacingLeft=-1;spacingRight=-1;verticalAlign=middle;html=1;labelBackgroundColor=#ffffff;rounded=0;" parent="berjVdsdgL8grTKteqkr-1" edge="1">
            <mxGeometry relative="1" as="geometry">
              <Array as="points" />
              <mxPoint x="1480" y="1023" as="sourcePoint" />
              <mxPoint x="1480" y="1081" as="targetPoint" />
            </mxGeometry>
          </mxCell>
        </UserObject>
        <UserObject label="" tags="Фон" id="berjVdsdgL8grTKteqkr-35">
          <mxCell style="vsdxID=11;edgeStyle=none;startArrow=none;endArrow=none;startSize=5;endSize=5;strokeColor=#000000;spacingTop=-1;spacingBottom=-1;spacingLeft=-1;spacingRight=-1;verticalAlign=middle;html=1;labelBackgroundColor=#ffffff;rounded=0;" parent="berjVdsdgL8grTKteqkr-1" edge="1">
            <mxGeometry relative="1" as="geometry">
              <Array as="points" />
              <mxPoint x="1519" y="1081" as="sourcePoint" />
              <mxPoint x="1519" y="1100" as="targetPoint" />
            </mxGeometry>
          </mxCell>
        </UserObject>
        <UserObject label="" tags="Фон" id="berjVdsdgL8grTKteqkr-36">
          <mxCell style="vsdxID=14;edgeStyle=none;startArrow=none;endArrow=none;startSize=5;endSize=5;strokeColor=#000000;spacingTop=-1;spacingBottom=-1;spacingLeft=-1;spacingRight=-1;verticalAlign=middle;html=1;labelBackgroundColor=#ffffff;rounded=0;" parent="berjVdsdgL8grTKteqkr-1" edge="1">
            <mxGeometry relative="1" as="geometry">
              <Array as="points" />
              <mxPoint x="1569" y="1004" as="sourcePoint" />
              <mxPoint x="1569" y="1081" as="targetPoint" />
            </mxGeometry>
          </mxCell>
        </UserObject>
        <UserObject label="" tags="Фон" id="berjVdsdgL8grTKteqkr-37">
          <mxCell style="vsdxID=15;edgeStyle=none;startArrow=none;endArrow=none;startSize=5;endSize=5;strokeColor=#000000;spacingTop=-1;spacingBottom=-1;spacingLeft=-1;spacingRight=-1;verticalAlign=middle;html=1;labelBackgroundColor=#ffffff;rounded=0;" parent="berjVdsdgL8grTKteqkr-1" edge="1">
            <mxGeometry relative="1" as="geometry">
              <Array as="points" />
              <mxPoint x="1118" y="947" as="sourcePoint" />
              <mxPoint x="1118" y="1157" as="targetPoint" />
            </mxGeometry>
          </mxCell>
        </UserObject>
        <UserObject label="" tags="Фон" id="berjVdsdgL8grTKteqkr-38">
          <mxCell style="vsdxID=16;edgeStyle=none;startArrow=none;endArrow=none;startSize=5;endSize=5;strokeColor=#000000;spacingTop=-1;spacingBottom=-1;spacingLeft=-1;spacingRight=-1;verticalAlign=middle;html=1;labelBackgroundColor=#ffffff;rounded=0;" parent="berjVdsdgL8grTKteqkr-1" edge="1">
            <mxGeometry relative="1" as="geometry">
              <Array as="points" />
              <mxPoint x="1067" y="947" as="sourcePoint" />
              <mxPoint x="1067" y="1157" as="targetPoint" />
            </mxGeometry>
          </mxCell>
        </UserObject>
        <UserObject label="" tags="Фон" id="berjVdsdgL8grTKteqkr-39">
          <mxCell style="vsdxID=17;edgeStyle=none;startArrow=none;endArrow=none;startSize=5;endSize=5;strokeColor=#000000;spacingTop=-1;spacingBottom=-1;spacingLeft=-1;spacingRight=-1;verticalAlign=middle;html=1;labelBackgroundColor=#ffffff;rounded=0;" parent="berjVdsdgL8grTKteqkr-1" edge="1">
            <mxGeometry relative="1" as="geometry">
              <Array as="points" />
              <mxPoint x="976" y="947" as="sourcePoint" />
              <mxPoint x="976" y="1157" as="targetPoint" />
            </mxGeometry>
          </mxCell>
        </UserObject>
        <UserObject label="" tags="Фон" id="berjVdsdgL8grTKteqkr-40">
          <mxCell style="vsdxID=18;edgeStyle=none;startArrow=none;endArrow=none;startSize=5;endSize=5;strokeColor=#000000;spacingTop=-1;spacingBottom=-1;spacingLeft=-1;spacingRight=-1;verticalAlign=middle;html=1;labelBackgroundColor=#ffffff;rounded=0;" parent="berjVdsdgL8grTKteqkr-1" edge="1">
            <mxGeometry relative="1" as="geometry">
              <mxPoint x="-1" as="offset" />
              <Array as="points" />
              <mxPoint x="909" y="966" as="sourcePoint" />
              <mxPoint x="1165" y="966" as="targetPoint" />
            </mxGeometry>
          </mxCell>
        </UserObject>
        <UserObject label="" tags="Фон" id="berjVdsdgL8grTKteqkr-41">
          <mxCell style="vsdxID=19;edgeStyle=none;startArrow=none;endArrow=none;startSize=5;endSize=5;strokeColor=#000000;spacingTop=-1;spacingBottom=-1;spacingLeft=-1;spacingRight=-1;verticalAlign=middle;html=1;labelBackgroundColor=#ffffff;rounded=0;" parent="berjVdsdgL8grTKteqkr-1" edge="1">
            <mxGeometry relative="1" as="geometry">
              <mxPoint x="-1" as="offset" />
              <Array as="points" />
              <mxPoint x="909" y="985" as="sourcePoint" />
              <mxPoint x="1165" y="985" as="targetPoint" />
            </mxGeometry>
          </mxCell>
        </UserObject>
        <UserObject label="" tags="Фон" id="berjVdsdgL8grTKteqkr-42">
          <mxCell style="vsdxID=20;edgeStyle=none;startArrow=none;endArrow=none;startSize=5;endSize=5;strokeColor=#000000;spacingTop=-1;spacingBottom=-1;spacingLeft=-1;spacingRight=-1;verticalAlign=middle;html=1;labelBackgroundColor=#ffffff;rounded=0;" parent="berjVdsdgL8grTKteqkr-1" edge="1">
            <mxGeometry relative="1" as="geometry">
              <mxPoint x="-1" as="offset" />
              <Array as="points" />
              <mxPoint x="909" y="1004" as="sourcePoint" />
              <mxPoint x="1165" y="1004" as="targetPoint" />
            </mxGeometry>
          </mxCell>
        </UserObject>
        <UserObject label="" tags="Фон" id="berjVdsdgL8grTKteqkr-43">
          <mxCell style="vsdxID=21;edgeStyle=none;startArrow=none;endArrow=none;startSize=5;endSize=5;strokeColor=#000000;spacingTop=-1;spacingBottom=-1;spacingLeft=-1;spacingRight=-1;verticalAlign=middle;html=1;labelBackgroundColor=#ffffff;rounded=0;" parent="berjVdsdgL8grTKteqkr-1" edge="1">
            <mxGeometry relative="1" as="geometry">
              <mxPoint x="-1" as="offset" />
              <Array as="points" />
              <mxPoint x="909" y="1023" as="sourcePoint" />
              <mxPoint x="1165" y="1023" as="targetPoint" />
            </mxGeometry>
          </mxCell>
        </UserObject>
        <UserObject label="" tags="Фон" id="berjVdsdgL8grTKteqkr-44">
          <mxCell style="vsdxID=22;edgeStyle=none;startArrow=none;endArrow=none;startSize=5;endSize=5;strokeColor=#000000;spacingTop=-1;spacingBottom=-1;spacingLeft=-1;spacingRight=-1;verticalAlign=middle;html=1;labelBackgroundColor=#ffffff;rounded=0;" parent="berjVdsdgL8grTKteqkr-1" edge="1">
            <mxGeometry relative="1" as="geometry">
              <mxPoint x="-1" as="offset" />
              <Array as="points" />
              <mxPoint x="909" y="1042" as="sourcePoint" />
              <mxPoint x="1165" y="1042" as="targetPoint" />
            </mxGeometry>
          </mxCell>
        </UserObject>
        <UserObject label="" tags="Фон" id="berjVdsdgL8grTKteqkr-45">
          <mxCell style="vsdxID=23;edgeStyle=none;startArrow=none;endArrow=none;startSize=5;endSize=5;strokeColor=#000000;spacingTop=-1;spacingBottom=-1;spacingLeft=-1;spacingRight=-1;verticalAlign=middle;html=1;labelBackgroundColor=#ffffff;rounded=0;" parent="berjVdsdgL8grTKteqkr-1" edge="1">
            <mxGeometry relative="1" as="geometry">
              <mxPoint x="-1" as="offset" />
              <Array as="points" />
              <mxPoint x="909" y="1061" as="sourcePoint" />
              <mxPoint x="1165" y="1061" as="targetPoint" />
            </mxGeometry>
          </mxCell>
        </UserObject>
        <UserObject label="" tags="Фон" id="berjVdsdgL8grTKteqkr-46">
          <mxCell style="vsdxID=24;edgeStyle=none;startArrow=none;endArrow=none;startSize=5;endSize=5;strokeColor=#000000;spacingTop=-1;spacingBottom=-1;spacingLeft=-1;spacingRight=-1;verticalAlign=middle;html=1;labelBackgroundColor=#ffffff;rounded=0;" parent="berjVdsdgL8grTKteqkr-1" edge="1">
            <mxGeometry relative="1" as="geometry">
              <mxPoint x="-1" as="offset" />
              <Array as="points" />
              <mxPoint x="909" y="1081" as="sourcePoint" />
              <mxPoint x="1165" y="1081" as="targetPoint" />
            </mxGeometry>
          </mxCell>
        </UserObject>
        <UserObject label="" tags="Фон" id="berjVdsdgL8grTKteqkr-47">
          <mxCell style="vsdxID=25;edgeStyle=none;startArrow=none;endArrow=none;startSize=5;endSize=5;strokeColor=#000000;spacingTop=-1;spacingBottom=-1;spacingLeft=-1;spacingRight=-1;verticalAlign=middle;html=1;labelBackgroundColor=#ffffff;rounded=0;" parent="berjVdsdgL8grTKteqkr-1" edge="1">
            <mxGeometry relative="1" as="geometry">
              <mxPoint as="offset" />
              <Array as="points" />
              <mxPoint x="909" y="1100" as="sourcePoint" />
              <mxPoint x="1166" y="1100" as="targetPoint" />
            </mxGeometry>
          </mxCell>
        </UserObject>
        <UserObject label="" tags="Фон" id="berjVdsdgL8grTKteqkr-48">
          <mxCell style="vsdxID=26;edgeStyle=none;startArrow=none;endArrow=none;startSize=5;endSize=5;strokeColor=#000000;spacingTop=-1;spacingBottom=-1;spacingLeft=-1;spacingRight=-1;verticalAlign=middle;html=1;labelBackgroundColor=#ffffff;rounded=0;" parent="berjVdsdgL8grTKteqkr-1" edge="1">
            <mxGeometry relative="1" as="geometry">
              <mxPoint x="-1" as="offset" />
              <Array as="points" />
              <mxPoint x="909" y="1119" as="sourcePoint" />
              <mxPoint x="1165" y="1119" as="targetPoint" />
            </mxGeometry>
          </mxCell>
        </UserObject>
        <UserObject label="" tags="Фон" id="berjVdsdgL8grTKteqkr-49">
          <mxCell style="vsdxID=27;edgeStyle=none;startArrow=none;endArrow=none;startSize=5;endSize=5;strokeColor=#000000;spacingTop=-1;spacingBottom=-1;spacingLeft=-1;spacingRight=-1;verticalAlign=middle;html=1;labelBackgroundColor=#ffffff;rounded=0;" parent="berjVdsdgL8grTKteqkr-1" edge="1">
            <mxGeometry relative="1" as="geometry">
              <mxPoint x="-1" as="offset" />
              <Array as="points" />
              <mxPoint x="909" y="1138" as="sourcePoint" />
              <mxPoint x="1165" y="1138" as="targetPoint" />
            </mxGeometry>
          </mxCell>
        </UserObject>
        <UserObject label="" tags="Фон" id="berjVdsdgL8grTKteqkr-50">
          <mxCell style="vsdxID=28;edgeStyle=none;startArrow=none;endArrow=none;startSize=5;endSize=5;strokeColor=#000000;spacingTop=-1;spacingBottom=-1;spacingLeft=-1;spacingRight=-1;verticalAlign=middle;html=1;labelBackgroundColor=#ffffff;rounded=0;" parent="berjVdsdgL8grTKteqkr-1" edge="1">
            <mxGeometry relative="1" as="geometry">
              <Array as="points" />
              <mxPoint x="941" y="947" as="sourcePoint" />
              <mxPoint x="941" y="1042" as="targetPoint" />
            </mxGeometry>
          </mxCell>
        </UserObject>
        <UserObject label="&lt;div style=&quot;font-size: 1px&quot;&gt;&lt;font style=&quot;font-size:11.29px;font-family:GOST type B;color:#000000;direction:ltr;letter-spacing:0px;line-height:120%;opacity:1&quot;&gt;&lt;i&gt;Нет&lt;/i&gt;&lt;/font&gt;&lt;font style=&quot;font-size:11.29px;font-family:Arial;color:#000000;direction:ltr;letter-spacing:0px;line-height:120%;opacity:1&quot;&gt;&lt;br/&gt;&lt;/font&gt;&lt;/div&gt;" tags="Соединительная_линия" id="berjVdsdgL8grTKteqkr-52">
          <mxCell style="vsdxID=1082;edgeStyle=none;startArrow=none;endArrow=block;startSize=5;endSize=5;strokeColor=#000000;spacingTop=0;spacingBottom=0;spacingLeft=0;spacingRight=0;verticalAlign=middle;html=1;labelBackgroundColor=#ffffff;rounded=0;align=center;exitX=1;exitY=0.5;exitDx=0;exitDy=0;exitPerimeter=0;entryX=0.5;entryY=0;entryDx=0;entryDy=0;entryPerimeter=0;" parent="berjVdsdgL8grTKteqkr-1" edge="1">
            <mxGeometry relative="1" as="geometry">
              <mxPoint x="-60" y="-122" as="offset" />
              <Array as="points">
                <mxPoint x="810" y="690" />
                <mxPoint x="810" y="820.48" />
                <mxPoint x="658" y="820.48" />
              </Array>
              <mxPoint x="738" y="690" as="sourcePoint" />
            </mxGeometry>
          </mxCell>
        </UserObject>
        <mxCell id="berjVdsdgL8grTKteqkr-53" parent="berjVdsdgL8grTKteqkr-1" vertex="1">
          <mxGeometry x="1441" y="1023" as="geometry" />
        </mxCell>
        <mxCell id="berjVdsdgL8grTKteqkr-54" parent="berjVdsdgL8grTKteqkr-1" vertex="1">
          <mxGeometry x="1640" y="1024" as="geometry" />
        </mxCell>
        <UserObject label="" tags="Фон" id="berjVdsdgL8grTKteqkr-55">
          <mxCell style="vsdxID=8;edgeStyle=none;startArrow=none;endArrow=none;startSize=5;endSize=5;strokeColor=#000000;spacingTop=-1;spacingBottom=-1;spacingLeft=-1;spacingRight=-1;verticalAlign=middle;html=1;labelBackgroundColor=#ffffff;rounded=0;" parent="berjVdsdgL8grTKteqkr-1" source="berjVdsdgL8grTKteqkr-53" target="berjVdsdgL8grTKteqkr-54" edge="1">
            <mxGeometry relative="1" as="geometry">
              <Array as="points" />
            </mxGeometry>
          </mxCell>
        </UserObject>
        <mxCell id="berjVdsdgL8grTKteqkr-56" parent="berjVdsdgL8grTKteqkr-1" vertex="1">
          <mxGeometry x="1640" y="10" as="geometry" />
        </mxCell>
        <mxCell id="berjVdsdgL8grTKteqkr-57" parent="berjVdsdgL8grTKteqkr-1" vertex="1">
          <mxGeometry x="60" y="10" as="geometry" />
        </mxCell>
        <UserObject label="" tags="Фон" id="berjVdsdgL8grTKteqkr-58">
          <mxCell style="vsdxID=2;edgeStyle=none;startArrow=none;endArrow=none;startSize=5;endSize=5;strokeColor=#000000;spacingTop=-1;spacingBottom=-1;spacingLeft=-1;spacingRight=-1;verticalAlign=middle;html=1;labelBackgroundColor=#ffffff;rounded=0;" parent="berjVdsdgL8grTKteqkr-1" source="berjVdsdgL8grTKteqkr-56" target="berjVdsdgL8grTKteqkr-57" edge="1">
            <mxGeometry relative="1" as="geometry">
              <Array as="points" />
            </mxGeometry>
          </mxCell>
        </UserObject>
        <UserObject label="" tags="Блок-схема Соединительная_линия Flowchart Background Блок-схема Соединительная_линия Flowchart Background Незакрепленное_оборудование Мебель" id="berjVdsdgL8grTKteqkr-59">
          <mxCell parent="berjVdsdgL8grTKteqkr-1" vertex="1" visible="0">
            <mxGeometry as="geometry" />
          </mxCell>
        </UserObject>
        <mxCell id="qgMCNEnHbo8gnDN44Nzg-0" style="edgeStyle=orthogonalEdgeStyle;rounded=0;orthogonalLoop=1;jettySize=auto;html=1;entryX=0.5;entryY=0;entryDx=0;entryDy=0;endArrow=block;endFill=1;" parent="berjVdsdgL8grTKteqkr-1" source="qgMCNEnHbo8gnDN44Nzg-1" target="qgMCNEnHbo8gnDN44Nzg-28" edge="1">
          <mxGeometry relative="1" as="geometry" />
        </mxCell>
        <mxCell id="qgMCNEnHbo8gnDN44Nzg-1" value="&lt;font style=&quot;font-size: 11px;&quot; face=&quot;GOST type B&quot;&gt;&lt;i style=&quot;line-height: 90%;&quot;&gt;Значения расстояний до объекта со всех сторон для обоих парковочных мест равны между собой и не равны 0 ?&lt;/i&gt;&lt;/font&gt;" style="rhombus;whiteSpace=wrap;html=1;" parent="berjVdsdgL8grTKteqkr-1" vertex="1">
          <mxGeometry x="119.5" y="20" width="160" height="90" as="geometry" />
        </mxCell>
        <mxCell id="qgMCNEnHbo8gnDN44Nzg-2" value="" style="edgeStyle=orthogonalEdgeStyle;rounded=0;orthogonalLoop=1;jettySize=auto;html=1;endArrow=block;endFill=1;" parent="berjVdsdgL8grTKteqkr-1" source="qgMCNEnHbo8gnDN44Nzg-3" target="qgMCNEnHbo8gnDN44Nzg-5" edge="1">
          <mxGeometry relative="1" as="geometry">
            <Array as="points">
              <mxPoint x="1051.75" y="136" />
              <mxPoint x="1051.75" y="136" />
            </Array>
          </mxGeometry>
        </mxCell>
        <mxCell id="qgMCNEnHbo8gnDN44Nzg-3" value="&lt;i style=&quot;font-family: &amp;quot;GOST type B&amp;quot;; font-size: 11.29px;&quot;&gt;Фиксируем ошибку отключения АЦП от Raspberry Pi в переменных, хранящих информацию о парковочных местах&lt;/i&gt;" style="rounded=0;whiteSpace=wrap;html=1;" parent="berjVdsdgL8grTKteqkr-1" vertex="1">
          <mxGeometry x="996" y="20" width="120" height="90" as="geometry" />
        </mxCell>
        <mxCell id="qgMCNEnHbo8gnDN44Nzg-4" value="" style="edgeStyle=orthogonalEdgeStyle;rounded=0;orthogonalLoop=1;jettySize=auto;html=1;endArrow=block;endFill=1;" parent="berjVdsdgL8grTKteqkr-1" source="qgMCNEnHbo8gnDN44Nzg-5" target="qgMCNEnHbo8gnDN44Nzg-7" edge="1">
          <mxGeometry relative="1" as="geometry" />
        </mxCell>
        <mxCell id="qgMCNEnHbo8gnDN44Nzg-5" value="&lt;i style=&quot;font-family: &amp;quot;GOST type B&amp;quot;; font-size: 11.29px;&quot;&gt;Выводим сообщение об ошибке на ЖКД&lt;/i&gt;" style="rounded=0;whiteSpace=wrap;html=1;" parent="berjVdsdgL8grTKteqkr-1" vertex="1">
          <mxGeometry x="998.75" y="136" width="120" height="50" as="geometry" />
        </mxCell>
        <mxCell id="qgMCNEnHbo8gnDN44Nzg-6" value="" style="edgeStyle=orthogonalEdgeStyle;rounded=0;orthogonalLoop=1;jettySize=auto;html=1;endArrow=block;endFill=1;" parent="berjVdsdgL8grTKteqkr-1" source="qgMCNEnHbo8gnDN44Nzg-7" target="qgMCNEnHbo8gnDN44Nzg-12" edge="1">
          <mxGeometry relative="1" as="geometry" />
        </mxCell>
        <mxCell id="qgMCNEnHbo8gnDN44Nzg-7" value="&lt;font face=&quot;GOST type B&quot;&gt;&lt;span style=&quot;font-size: 11.29px;&quot;&gt;&lt;i&gt;Первый ИК датчик обнаружил объект?&lt;/i&gt;&lt;/span&gt;&lt;/font&gt;" style="rhombus;whiteSpace=wrap;html=1;" parent="berjVdsdgL8grTKteqkr-1" vertex="1">
          <mxGeometry x="993.75" y="206" width="130" height="80" as="geometry" />
        </mxCell>
        <mxCell id="qgMCNEnHbo8gnDN44Nzg-8" value="&lt;i style=&quot;font-family: &amp;quot;GOST type B&amp;quot;; font-size: 11.29px;&quot;&gt;Фиксируем занятость парковочного места и время начала парковки&amp;nbsp;&lt;/i&gt;&lt;i style=&quot;font-family: &amp;quot;GOST type B&amp;quot;; font-size: 11.29px;&quot;&gt;в переменной&lt;/i&gt;&lt;i style=&quot;font-family: &amp;quot;GOST type B&amp;quot;; font-size: 11.29px;&quot;&gt;, хранящей информацию о 1 парковочном месте&lt;/i&gt;" style="rounded=0;whiteSpace=wrap;html=1;" parent="berjVdsdgL8grTKteqkr-1" vertex="1">
          <mxGeometry x="1257.75" y="316" width="120" height="93" as="geometry" />
        </mxCell>
        <mxCell id="qgMCNEnHbo8gnDN44Nzg-9" value="&lt;font face=&quot;GOST type B&quot;&gt;&lt;span style=&quot;font-size: 11.29px;&quot;&gt;&lt;i&gt;Статус парковочного места 1 указывает на занятость?&lt;/i&gt;&lt;/span&gt;&lt;/font&gt;" style="rhombus;whiteSpace=wrap;html=1;" parent="berjVdsdgL8grTKteqkr-1" vertex="1">
          <mxGeometry x="1109.75" y="263" width="140" height="80" as="geometry" />
        </mxCell>
        <mxCell id="qgMCNEnHbo8gnDN44Nzg-10" style="edgeStyle=orthogonalEdgeStyle;rounded=0;orthogonalLoop=1;jettySize=auto;html=1;entryX=0.5;entryY=0;entryDx=0;entryDy=0;endArrow=block;endFill=1;" parent="berjVdsdgL8grTKteqkr-1" source="qgMCNEnHbo8gnDN44Nzg-12" target="qgMCNEnHbo8gnDN44Nzg-16" edge="1">
          <mxGeometry relative="1" as="geometry" />
        </mxCell>
        <mxCell id="qgMCNEnHbo8gnDN44Nzg-11" style="edgeStyle=orthogonalEdgeStyle;rounded=0;orthogonalLoop=1;jettySize=auto;html=1;entryX=0.5;entryY=0;entryDx=0;entryDy=0;exitX=1;exitY=0.5;exitDx=0;exitDy=0;endArrow=block;endFill=1;" parent="berjVdsdgL8grTKteqkr-1" source="qgMCNEnHbo8gnDN44Nzg-12" target="qgMCNEnHbo8gnDN44Nzg-13" edge="1">
          <mxGeometry relative="1" as="geometry">
            <mxPoint x="1161.75" y="476" as="targetPoint" />
          </mxGeometry>
        </mxCell>
        <mxCell id="qgMCNEnHbo8gnDN44Nzg-12" value="&lt;i style=&quot;font-family: &amp;quot;GOST type B&amp;quot;; font-size: 11.29px;&quot;&gt;Статус парковочного места 1 указывает на занятость?&lt;/i&gt;" style="rhombus;whiteSpace=wrap;html=1;" parent="berjVdsdgL8grTKteqkr-1" vertex="1">
          <mxGeometry x="986.25" y="356" width="145" height="90" as="geometry" />
        </mxCell>
        <mxCell id="qgMCNEnHbo8gnDN44Nzg-13" value="&lt;i style=&quot;font-family: &amp;quot;GOST type B&amp;quot;; font-size: 11.29px;&quot;&gt;Фиксируем освобождение парковочного места и сбрасываем время начала парковки&amp;nbsp;&lt;/i&gt;&lt;i style=&quot;font-family: &amp;quot;GOST type B&amp;quot;; font-size: 11.29px;&quot;&gt;в переменной&lt;/i&gt;&lt;i style=&quot;font-family: &amp;quot;GOST type B&amp;quot;; font-size: 11.29px;&quot;&gt;, хранящей информацию о 1 парковочном месте&lt;/i&gt;" style="rounded=0;whiteSpace=wrap;html=1;" parent="berjVdsdgL8grTKteqkr-1" vertex="1">
          <mxGeometry x="1105.25" y="438" width="133" height="90" as="geometry" />
        </mxCell>
        <mxCell id="qgMCNEnHbo8gnDN44Nzg-14" style="edgeStyle=orthogonalEdgeStyle;rounded=0;orthogonalLoop=1;jettySize=auto;html=1;entryX=0.5;entryY=0;entryDx=0;entryDy=0;endArrow=block;endFill=1;" parent="berjVdsdgL8grTKteqkr-1" source="qgMCNEnHbo8gnDN44Nzg-16" target="qgMCNEnHbo8gnDN44Nzg-18" edge="1">
          <mxGeometry relative="1" as="geometry" />
        </mxCell>
        <mxCell id="qgMCNEnHbo8gnDN44Nzg-15" style="edgeStyle=orthogonalEdgeStyle;rounded=0;orthogonalLoop=1;jettySize=auto;html=1;entryX=0.5;entryY=0;entryDx=0;entryDy=0;endArrow=block;endFill=1;" parent="berjVdsdgL8grTKteqkr-1" source="qgMCNEnHbo8gnDN44Nzg-16" target="qgMCNEnHbo8gnDN44Nzg-23" edge="1">
          <mxGeometry relative="1" as="geometry" />
        </mxCell>
        <mxCell id="qgMCNEnHbo8gnDN44Nzg-16" value="&lt;font face=&quot;GOST type B&quot;&gt;&lt;span style=&quot;font-size: 11.29px;&quot;&gt;&lt;i&gt;Второй ИК датчик обнаружил объект?&lt;/i&gt;&lt;/span&gt;&lt;/font&gt;" style="rhombus;whiteSpace=wrap;html=1;" parent="berjVdsdgL8grTKteqkr-1" vertex="1">
          <mxGeometry x="993.5" y="554" width="130" height="80" as="geometry" />
        </mxCell>
        <mxCell id="qgMCNEnHbo8gnDN44Nzg-17" style="edgeStyle=orthogonalEdgeStyle;rounded=0;orthogonalLoop=1;jettySize=auto;html=1;entryX=0.5;entryY=0;entryDx=0;entryDy=0;endArrow=block;endFill=1;" parent="berjVdsdgL8grTKteqkr-1" source="qgMCNEnHbo8gnDN44Nzg-18" target="qgMCNEnHbo8gnDN44Nzg-20" edge="1">
          <mxGeometry relative="1" as="geometry">
            <Array as="points">
              <mxPoint x="1339.5" y="655" />
            </Array>
          </mxGeometry>
        </mxCell>
        <mxCell id="qgMCNEnHbo8gnDN44Nzg-18" value="&lt;font face=&quot;GOST type B&quot;&gt;&lt;span style=&quot;font-size: 11.29px;&quot;&gt;&lt;i&gt;Статус парковочного места 2 указывает на занятость?&lt;/i&gt;&lt;/span&gt;&lt;/font&gt;" style="rhombus;whiteSpace=wrap;html=1;" parent="berjVdsdgL8grTKteqkr-1" vertex="1">
          <mxGeometry x="1127.5" y="615" width="140" height="80" as="geometry" />
        </mxCell>
        <mxCell id="qgMCNEnHbo8gnDN44Nzg-19" style="edgeStyle=orthogonalEdgeStyle;rounded=0;orthogonalLoop=1;jettySize=auto;html=1;exitX=0.5;exitY=1;exitDx=0;exitDy=0;endArrow=none;endFill=0;" parent="berjVdsdgL8grTKteqkr-1" edge="1">
          <mxGeometry relative="1" as="geometry">
            <mxPoint x="1223.5" y="874" as="targetPoint" />
            <Array as="points">
              <mxPoint x="1339.5" y="874" />
            </Array>
            <mxPoint x="1339.5" y="744" as="sourcePoint" />
          </mxGeometry>
        </mxCell>
        <mxCell id="qgMCNEnHbo8gnDN44Nzg-20" value="&lt;i style=&quot;font-family: &amp;quot;GOST type B&amp;quot;; font-size: 11.29px;&quot;&gt;Фиксируем занятость парковочного места и время начала парковки&amp;nbsp;&lt;/i&gt;&lt;i style=&quot;font-family: &amp;quot;GOST type B&amp;quot;; font-size: 11.29px;&quot;&gt;в переменной&lt;/i&gt;&lt;i style=&quot;font-family: &amp;quot;GOST type B&amp;quot;; font-size: 11.29px;&quot;&gt;, хранящей информацию о 2 парковочном месте&lt;/i&gt;" style="rounded=0;whiteSpace=wrap;html=1;" parent="berjVdsdgL8grTKteqkr-1" vertex="1">
          <mxGeometry x="1279.5" y="669" width="120" height="89" as="geometry" />
        </mxCell>
        <mxCell id="qgMCNEnHbo8gnDN44Nzg-21" style="edgeStyle=orthogonalEdgeStyle;rounded=0;orthogonalLoop=1;jettySize=auto;html=1;entryX=0.5;entryY=0;entryDx=0;entryDy=0;endArrow=block;endFill=1;exitX=1;exitY=0.5;exitDx=0;exitDy=0;" parent="berjVdsdgL8grTKteqkr-1" source="qgMCNEnHbo8gnDN44Nzg-23" target="qgMCNEnHbo8gnDN44Nzg-25" edge="1">
          <mxGeometry relative="1" as="geometry" />
        </mxCell>
        <mxCell id="qgMCNEnHbo8gnDN44Nzg-22" style="edgeStyle=orthogonalEdgeStyle;rounded=0;orthogonalLoop=1;jettySize=auto;html=1;exitX=0.5;exitY=1;exitDx=0;exitDy=0;endArrow=none;endFill=0;" parent="berjVdsdgL8grTKteqkr-1" source="qgMCNEnHbo8gnDN44Nzg-23" edge="1">
          <mxGeometry relative="1" as="geometry">
            <mxPoint x="1223.5" y="914" as="targetPoint" />
            <Array as="points">
              <mxPoint x="1058.5" y="874" />
              <mxPoint x="1223.5" y="874" />
            </Array>
          </mxGeometry>
        </mxCell>
        <mxCell id="qgMCNEnHbo8gnDN44Nzg-23" value="&lt;i style=&quot;font-family: &amp;quot;GOST type B&amp;quot;; font-size: 11.29px;&quot;&gt;Статус парковочного места 2 указывает на занятость?&lt;/i&gt;" style="rhombus;whiteSpace=wrap;html=1;" parent="berjVdsdgL8grTKteqkr-1" vertex="1">
          <mxGeometry x="985" y="689" width="147" height="80" as="geometry" />
        </mxCell>
        <mxCell id="qgMCNEnHbo8gnDN44Nzg-24" style="edgeStyle=orthogonalEdgeStyle;rounded=0;orthogonalLoop=1;jettySize=auto;html=1;entryX=0.5;entryY=0;entryDx=0;entryDy=0;endArrow=block;endFill=1;" parent="berjVdsdgL8grTKteqkr-1" source="qgMCNEnHbo8gnDN44Nzg-25" target="qgMCNEnHbo8gnDN44Nzg-99" edge="1">
          <mxGeometry relative="1" as="geometry">
            <Array as="points">
              <mxPoint x="1171.5" y="874" />
              <mxPoint x="1222.5" y="874" />
            </Array>
          </mxGeometry>
        </mxCell>
        <mxCell id="qgMCNEnHbo8gnDN44Nzg-25" value="&lt;i style=&quot;font-family: &amp;quot;GOST type B&amp;quot;; font-size: 11.29px;&quot;&gt;Фиксируем освобождение парковочного места и сбрасываем время начала парковки&amp;nbsp;&lt;/i&gt;&lt;i style=&quot;font-family: &amp;quot;GOST type B&amp;quot;; font-size: 11.29px;&quot;&gt;в переменной&lt;/i&gt;&lt;i style=&quot;font-family: &amp;quot;GOST type B&amp;quot;; font-size: 11.29px;&quot;&gt;, хранящей информацию о 2 парковочном месте&lt;/i&gt;" style="rounded=0;whiteSpace=wrap;html=1;" parent="berjVdsdgL8grTKteqkr-1" vertex="1">
          <mxGeometry x="1105" y="779" width="133" height="80" as="geometry" />
        </mxCell>
        <mxCell id="qgMCNEnHbo8gnDN44Nzg-26" style="edgeStyle=orthogonalEdgeStyle;rounded=0;orthogonalLoop=1;jettySize=auto;html=1;entryX=0.5;entryY=0;entryDx=0;entryDy=0;endArrow=block;endFill=1;" parent="berjVdsdgL8grTKteqkr-1" source="qgMCNEnHbo8gnDN44Nzg-28" target="qgMCNEnHbo8gnDN44Nzg-29" edge="1">
          <mxGeometry relative="1" as="geometry" />
        </mxCell>
        <mxCell id="qgMCNEnHbo8gnDN44Nzg-27" style="edgeStyle=orthogonalEdgeStyle;rounded=0;orthogonalLoop=1;jettySize=auto;html=1;entryX=0.5;entryY=0;entryDx=0;entryDy=0;endArrow=block;endFill=1;" parent="berjVdsdgL8grTKteqkr-1" source="qgMCNEnHbo8gnDN44Nzg-28" target="qgMCNEnHbo8gnDN44Nzg-33" edge="1">
          <mxGeometry relative="1" as="geometry" />
        </mxCell>
        <mxCell id="qgMCNEnHbo8gnDN44Nzg-28" value="&lt;i style=&quot;font-family: &amp;quot;GOST type B&amp;quot;; font-size: 11px; line-height: 9.9px;&quot;&gt;Хоть одно из значений расстояний до 1 объекта не равно 0 и первый ИК датчик НЕ обнаружил объект?&lt;/i&gt;" style="rhombus;whiteSpace=wrap;html=1;" parent="berjVdsdgL8grTKteqkr-1" vertex="1">
          <mxGeometry x="123.75" y="142" width="151.5" height="90" as="geometry" />
        </mxCell>
        <mxCell id="qgMCNEnHbo8gnDN44Nzg-29" value="&lt;i style=&quot;font-family: &amp;quot;GOST type B&amp;quot;; font-size: 11.29px;&quot;&gt;Фиксируем поломку 1 ИК датчика в переменной, хранящей информацию о 1 парковочном месте&lt;/i&gt;" style="rounded=0;whiteSpace=wrap;html=1;" parent="berjVdsdgL8grTKteqkr-1" vertex="1">
          <mxGeometry x="277" y="207" width="120" height="80" as="geometry" />
        </mxCell>
        <mxCell id="qgMCNEnHbo8gnDN44Nzg-30" value="&lt;i style=&quot;font-family: &amp;quot;GOST type B&amp;quot;; font-size: 11.29px;&quot;&gt;Выводим сообщение об ошибке на ЖКД&lt;/i&gt;" style="rounded=0;whiteSpace=wrap;html=1;" parent="berjVdsdgL8grTKteqkr-1" vertex="1">
          <mxGeometry x="277" y="301" width="120" height="60" as="geometry" />
        </mxCell>
        <mxCell id="qgMCNEnHbo8gnDN44Nzg-31" style="edgeStyle=orthogonalEdgeStyle;rounded=0;orthogonalLoop=1;jettySize=auto;html=1;entryX=0;entryY=0.5;entryDx=0;entryDy=0;endArrow=block;endFill=1;" parent="berjVdsdgL8grTKteqkr-1" source="qgMCNEnHbo8gnDN44Nzg-130" target="qgMCNEnHbo8gnDN44Nzg-36" edge="1">
          <mxGeometry relative="1" as="geometry" />
        </mxCell>
        <mxCell id="qgMCNEnHbo8gnDN44Nzg-32" style="edgeStyle=orthogonalEdgeStyle;rounded=0;orthogonalLoop=1;jettySize=auto;html=1;entryX=0.5;entryY=0;entryDx=0;entryDy=0;endArrow=block;endFill=1;" parent="berjVdsdgL8grTKteqkr-1" source="qgMCNEnHbo8gnDN44Nzg-33" target="qgMCNEnHbo8gnDN44Nzg-135" edge="1">
          <mxGeometry relative="1" as="geometry" />
        </mxCell>
        <mxCell id="qgMCNEnHbo8gnDN44Nzg-33" value="&lt;font face=&quot;GOST type B&quot;&gt;&lt;span style=&quot;font-size: 11.29px;&quot;&gt;&lt;i&gt;Хоть одно из возвращенных значений функции считывания каналов 0-3 АЦП является строкой?&lt;/i&gt;&lt;/span&gt;&lt;/font&gt;" style="rhombus;whiteSpace=wrap;html=1;" parent="berjVdsdgL8grTKteqkr-1" vertex="1">
          <mxGeometry x="129.5" y="390" width="140" height="80" as="geometry" />
        </mxCell>
        <mxCell id="qgMCNEnHbo8gnDN44Nzg-34" style="edgeStyle=orthogonalEdgeStyle;rounded=0;orthogonalLoop=1;jettySize=auto;html=1;entryX=0.5;entryY=0;entryDx=0;entryDy=0;endArrow=block;endFill=1;" parent="berjVdsdgL8grTKteqkr-1" source="qgMCNEnHbo8gnDN44Nzg-36" target="qgMCNEnHbo8gnDN44Nzg-38" edge="1">
          <mxGeometry relative="1" as="geometry" />
        </mxCell>
        <mxCell id="qgMCNEnHbo8gnDN44Nzg-35" style="edgeStyle=orthogonalEdgeStyle;rounded=0;orthogonalLoop=1;jettySize=auto;html=1;entryX=0.5;entryY=0;entryDx=0;entryDy=0;endArrow=block;endFill=1;" parent="berjVdsdgL8grTKteqkr-1" source="qgMCNEnHbo8gnDN44Nzg-36" target="qgMCNEnHbo8gnDN44Nzg-43" edge="1">
          <mxGeometry relative="1" as="geometry" />
        </mxCell>
        <mxCell id="qgMCNEnHbo8gnDN44Nzg-36" value="&lt;font face=&quot;GOST type B&quot;&gt;&lt;span style=&quot;font-size: 11.29px;&quot;&gt;&lt;i&gt;Функция считывания значения с 0 канала АЦП вернула строку?&lt;/i&gt;&lt;/span&gt;&lt;/font&gt;" style="rhombus;whiteSpace=wrap;html=1;" parent="berjVdsdgL8grTKteqkr-1" vertex="1">
          <mxGeometry x="595" y="104.5" width="180" height="80" as="geometry" />
        </mxCell>
        <mxCell id="qgMCNEnHbo8gnDN44Nzg-37" style="edgeStyle=orthogonalEdgeStyle;rounded=0;orthogonalLoop=1;jettySize=auto;html=1;entryX=0.5;entryY=0;entryDx=0;entryDy=0;endArrow=block;endFill=1;" parent="berjVdsdgL8grTKteqkr-1" source="qgMCNEnHbo8gnDN44Nzg-38" target="qgMCNEnHbo8gnDN44Nzg-40" edge="1">
          <mxGeometry relative="1" as="geometry" />
        </mxCell>
        <mxCell id="qgMCNEnHbo8gnDN44Nzg-38" value="&lt;i style=&quot;font-family: &amp;quot;GOST type B&amp;quot;; font-size: 11.29px;&quot;&gt;Фиксируем поломку 1 потенциометра в переменной, хранящей информацию о 1 парковочном месте&lt;/i&gt;" style="rounded=0;whiteSpace=wrap;html=1;" parent="berjVdsdgL8grTKteqkr-1" vertex="1">
          <mxGeometry x="777.5" y="164.5" width="120" height="80" as="geometry" />
        </mxCell>
        <mxCell id="qgMCNEnHbo8gnDN44Nzg-39" style="edgeStyle=orthogonalEdgeStyle;rounded=0;orthogonalLoop=1;jettySize=auto;html=1;endArrow=none;endFill=0;" parent="berjVdsdgL8grTKteqkr-1" source="qgMCNEnHbo8gnDN44Nzg-40" edge="1">
          <mxGeometry relative="1" as="geometry">
            <mxPoint x="685" y="294.5" as="targetPoint" />
          </mxGeometry>
        </mxCell>
        <mxCell id="qgMCNEnHbo8gnDN44Nzg-40" value="&lt;i style=&quot;font-family: &amp;quot;GOST type B&amp;quot;; font-size: 11.29px;&quot;&gt;Выводим сообщение об ошибке на ЖКД&lt;/i&gt;" style="rounded=0;whiteSpace=wrap;html=1;" parent="berjVdsdgL8grTKteqkr-1" vertex="1">
          <mxGeometry x="777.5" y="264.5" width="120" height="60" as="geometry" />
        </mxCell>
        <mxCell id="qgMCNEnHbo8gnDN44Nzg-41" style="edgeStyle=orthogonalEdgeStyle;rounded=0;orthogonalLoop=1;jettySize=auto;html=1;entryX=0.5;entryY=0;entryDx=0;entryDy=0;endArrow=block;endFill=1;" parent="berjVdsdgL8grTKteqkr-1" source="qgMCNEnHbo8gnDN44Nzg-43" target="qgMCNEnHbo8gnDN44Nzg-45" edge="1">
          <mxGeometry relative="1" as="geometry" />
        </mxCell>
        <mxCell id="qgMCNEnHbo8gnDN44Nzg-42" style="edgeStyle=orthogonalEdgeStyle;rounded=0;orthogonalLoop=1;jettySize=auto;html=1;entryX=0.5;entryY=0;entryDx=0;entryDy=0;endArrow=block;endFill=1;" parent="berjVdsdgL8grTKteqkr-1" source="qgMCNEnHbo8gnDN44Nzg-43" target="qgMCNEnHbo8gnDN44Nzg-50" edge="1">
          <mxGeometry relative="1" as="geometry" />
        </mxCell>
        <mxCell id="qgMCNEnHbo8gnDN44Nzg-43" value="&lt;font face=&quot;GOST type B&quot;&gt;&lt;span style=&quot;font-size: 11.29px;&quot;&gt;&lt;i&gt;Функция считывания значения с 1 канала АЦП вернула строку?&lt;/i&gt;&lt;/span&gt;&lt;/font&gt;" style="rhombus;whiteSpace=wrap;html=1;" parent="berjVdsdgL8grTKteqkr-1" vertex="1">
          <mxGeometry x="595" y="319.5" width="180" height="80" as="geometry" />
        </mxCell>
        <mxCell id="qgMCNEnHbo8gnDN44Nzg-44" value="" style="edgeStyle=orthogonalEdgeStyle;rounded=0;orthogonalLoop=1;jettySize=auto;html=1;endArrow=block;endFill=1;" parent="berjVdsdgL8grTKteqkr-1" source="qgMCNEnHbo8gnDN44Nzg-45" target="qgMCNEnHbo8gnDN44Nzg-47" edge="1">
          <mxGeometry relative="1" as="geometry" />
        </mxCell>
        <mxCell id="qgMCNEnHbo8gnDN44Nzg-45" value="&lt;i style=&quot;font-family: &amp;quot;GOST type B&amp;quot;; font-size: 11.29px;&quot;&gt;Фиксируем поломку 2 потенциометра в переменной, хранящей информацию о 1 парковочном месте&lt;/i&gt;" style="rounded=0;whiteSpace=wrap;html=1;" parent="berjVdsdgL8grTKteqkr-1" vertex="1">
          <mxGeometry x="778.5" y="379.5" width="120" height="80" as="geometry" />
        </mxCell>
        <mxCell id="qgMCNEnHbo8gnDN44Nzg-46" style="edgeStyle=orthogonalEdgeStyle;rounded=0;orthogonalLoop=1;jettySize=auto;html=1;exitX=0;exitY=0.5;exitDx=0;exitDy=0;endArrow=none;endFill=0;" parent="berjVdsdgL8grTKteqkr-1" source="qgMCNEnHbo8gnDN44Nzg-47" edge="1">
          <mxGeometry relative="1" as="geometry">
            <mxPoint x="685" y="484.5" as="targetPoint" />
            <Array as="points">
              <mxPoint x="685" y="509.5" />
            </Array>
          </mxGeometry>
        </mxCell>
        <mxCell id="qgMCNEnHbo8gnDN44Nzg-47" value="&lt;i style=&quot;font-family: &amp;quot;GOST type B&amp;quot;; font-size: 11.29px;&quot;&gt;Выводим сообщение об ошибке на ЖКД&lt;/i&gt;" style="rounded=0;whiteSpace=wrap;html=1;" parent="berjVdsdgL8grTKteqkr-1" vertex="1">
          <mxGeometry x="778.5" y="479.5" width="120" height="60" as="geometry" />
        </mxCell>
        <mxCell id="qgMCNEnHbo8gnDN44Nzg-48" style="edgeStyle=orthogonalEdgeStyle;rounded=0;orthogonalLoop=1;jettySize=auto;html=1;entryX=0.5;entryY=0;entryDx=0;entryDy=0;endArrow=block;endFill=1;" parent="berjVdsdgL8grTKteqkr-1" source="qgMCNEnHbo8gnDN44Nzg-50" target="qgMCNEnHbo8gnDN44Nzg-57" edge="1">
          <mxGeometry relative="1" as="geometry" />
        </mxCell>
        <mxCell id="qgMCNEnHbo8gnDN44Nzg-49" style="edgeStyle=orthogonalEdgeStyle;rounded=0;orthogonalLoop=1;jettySize=auto;html=1;entryX=0.5;entryY=0;entryDx=0;entryDy=0;endArrow=block;endFill=1;" parent="berjVdsdgL8grTKteqkr-1" source="qgMCNEnHbo8gnDN44Nzg-50" target="qgMCNEnHbo8gnDN44Nzg-59" edge="1">
          <mxGeometry relative="1" as="geometry" />
        </mxCell>
        <mxCell id="qgMCNEnHbo8gnDN44Nzg-50" value="&lt;font face=&quot;GOST type B&quot;&gt;&lt;span style=&quot;font-size: 11.29px;&quot;&gt;&lt;i&gt;Функция считывания значения со 2 канала АЦП вернула строку?&lt;/i&gt;&lt;/span&gt;&lt;/font&gt;" style="rhombus;whiteSpace=wrap;html=1;" parent="berjVdsdgL8grTKteqkr-1" vertex="1">
          <mxGeometry x="595" y="534.5" width="180" height="80" as="geometry" />
        </mxCell>
        <mxCell id="qgMCNEnHbo8gnDN44Nzg-51" style="edgeStyle=orthogonalEdgeStyle;rounded=0;orthogonalLoop=1;jettySize=auto;html=1;entryX=0.5;entryY=0;entryDx=0;entryDy=0;endArrow=block;endFill=1;" parent="berjVdsdgL8grTKteqkr-1" source="qgMCNEnHbo8gnDN44Nzg-52" target="qgMCNEnHbo8gnDN44Nzg-54" edge="1">
          <mxGeometry relative="1" as="geometry" />
        </mxCell>
        <mxCell id="qgMCNEnHbo8gnDN44Nzg-52" value="&lt;i style=&quot;font-family: &amp;quot;GOST type B&amp;quot;; font-size: 11.29px;&quot;&gt;Фиксируем поломку 4 потенциометра в переменной, хранящей информацию о 1 парковочном месте&lt;/i&gt;" style="rounded=0;whiteSpace=wrap;html=1;" parent="berjVdsdgL8grTKteqkr-1" vertex="1">
          <mxGeometry x="777.5" y="835.5" width="120" height="80" as="geometry" />
        </mxCell>
        <mxCell id="qgMCNEnHbo8gnDN44Nzg-53" style="edgeStyle=orthogonalEdgeStyle;rounded=0;orthogonalLoop=1;jettySize=auto;html=1;endArrow=none;endFill=0;" parent="berjVdsdgL8grTKteqkr-1" source="qgMCNEnHbo8gnDN44Nzg-54" edge="1">
          <mxGeometry relative="1" as="geometry">
            <mxPoint x="685" y="964.5" as="targetPoint" />
          </mxGeometry>
        </mxCell>
        <mxCell id="qgMCNEnHbo8gnDN44Nzg-54" value="&lt;i style=&quot;font-family: &amp;quot;GOST type B&amp;quot;; font-size: 11.29px;&quot;&gt;Выводим сообщение об ошибке на ЖКД&lt;/i&gt;" style="rounded=0;whiteSpace=wrap;html=1;" parent="berjVdsdgL8grTKteqkr-1" vertex="1">
          <mxGeometry x="777.5" y="935.5" width="120" height="60" as="geometry" />
        </mxCell>
        <mxCell id="qgMCNEnHbo8gnDN44Nzg-55" style="edgeStyle=orthogonalEdgeStyle;rounded=0;orthogonalLoop=1;jettySize=auto;html=1;entryX=0.5;entryY=0;entryDx=0;entryDy=0;endArrow=block;endFill=1;" parent="berjVdsdgL8grTKteqkr-1" source="qgMCNEnHbo8gnDN44Nzg-57" target="qgMCNEnHbo8gnDN44Nzg-52" edge="1">
          <mxGeometry relative="1" as="geometry" />
        </mxCell>
        <mxCell id="qgMCNEnHbo8gnDN44Nzg-56" style="edgeStyle=orthogonalEdgeStyle;rounded=0;orthogonalLoop=1;jettySize=auto;html=1;entryX=0.5;entryY=0;entryDx=0;entryDy=0;endArrow=block;endFill=1;" parent="berjVdsdgL8grTKteqkr-1" source="qgMCNEnHbo8gnDN44Nzg-57" target="qgMCNEnHbo8gnDN44Nzg-142" edge="1">
          <mxGeometry relative="1" as="geometry" />
        </mxCell>
        <mxCell id="qgMCNEnHbo8gnDN44Nzg-57" value="&lt;font face=&quot;GOST type B&quot;&gt;&lt;span style=&quot;font-size: 11.29px;&quot;&gt;&lt;i&gt;Функция считывания значения с 3 канала АЦП вернула строку?&lt;/i&gt;&lt;/span&gt;&lt;/font&gt;" style="rhombus;whiteSpace=wrap;html=1;" parent="berjVdsdgL8grTKteqkr-1" vertex="1">
          <mxGeometry x="595" y="772.5" width="180" height="80" as="geometry" />
        </mxCell>
        <mxCell id="qgMCNEnHbo8gnDN44Nzg-58" style="edgeStyle=orthogonalEdgeStyle;rounded=0;orthogonalLoop=1;jettySize=auto;html=1;entryX=0.5;entryY=0;entryDx=0;entryDy=0;endArrow=block;endFill=1;" parent="berjVdsdgL8grTKteqkr-1" source="qgMCNEnHbo8gnDN44Nzg-59" target="qgMCNEnHbo8gnDN44Nzg-61" edge="1">
          <mxGeometry relative="1" as="geometry" />
        </mxCell>
        <mxCell id="qgMCNEnHbo8gnDN44Nzg-59" value="&lt;i style=&quot;font-family: &amp;quot;GOST type B&amp;quot;; font-size: 11.29px;&quot;&gt;Фиксируем поломку 3 потенциометра в переменной, хранящей информацию о 1 парковочном месте&lt;/i&gt;" style="rounded=0;whiteSpace=wrap;html=1;" parent="berjVdsdgL8grTKteqkr-1" vertex="1">
          <mxGeometry x="777.5" y="594.5" width="120" height="80" as="geometry" />
        </mxCell>
        <mxCell id="qgMCNEnHbo8gnDN44Nzg-60" style="edgeStyle=orthogonalEdgeStyle;rounded=0;orthogonalLoop=1;jettySize=auto;html=1;endArrow=none;endFill=0;" parent="berjVdsdgL8grTKteqkr-1" source="qgMCNEnHbo8gnDN44Nzg-61" edge="1">
          <mxGeometry relative="1" as="geometry">
            <mxPoint x="685" y="674.5" as="targetPoint" />
            <Array as="points">
              <mxPoint x="685" y="724.5" />
            </Array>
          </mxGeometry>
        </mxCell>
        <mxCell id="qgMCNEnHbo8gnDN44Nzg-61" value="&lt;i style=&quot;font-family: &amp;quot;GOST type B&amp;quot;; font-size: 11.29px;&quot;&gt;Выводим сообщение об ошибке на ЖКД&lt;/i&gt;" style="rounded=0;whiteSpace=wrap;html=1;" parent="berjVdsdgL8grTKteqkr-1" vertex="1">
          <mxGeometry x="777.5" y="694.5" width="120" height="60" as="geometry" />
        </mxCell>
        <mxCell id="qgMCNEnHbo8gnDN44Nzg-62" style="edgeStyle=orthogonalEdgeStyle;rounded=0;orthogonalLoop=1;jettySize=auto;html=1;entryX=0.5;entryY=0;entryDx=0;entryDy=0;endArrow=block;endFill=1;" parent="berjVdsdgL8grTKteqkr-1" source="qgMCNEnHbo8gnDN44Nzg-64" target="qgMCNEnHbo8gnDN44Nzg-81" edge="1">
          <mxGeometry relative="1" as="geometry" />
        </mxCell>
        <mxCell id="qgMCNEnHbo8gnDN44Nzg-63" style="edgeStyle=orthogonalEdgeStyle;rounded=0;orthogonalLoop=1;jettySize=auto;html=1;entryX=0.5;entryY=0;entryDx=0;entryDy=0;endArrow=block;endFill=1;" parent="berjVdsdgL8grTKteqkr-1" source="qgMCNEnHbo8gnDN44Nzg-64" target="qgMCNEnHbo8gnDN44Nzg-141" edge="1">
          <mxGeometry relative="1" as="geometry" />
        </mxCell>
        <mxCell id="qgMCNEnHbo8gnDN44Nzg-64" value="&lt;font face=&quot;GOST type B&quot;&gt;&lt;span style=&quot;font-size: 11.29px;&quot;&gt;&lt;i&gt;Первый ИК датчик обнаружил объект и размер объекта удовлетворяет диапазону размеров мотоцикла?&lt;/i&gt;&lt;/span&gt;&lt;/font&gt;" style="rhombus;whiteSpace=wrap;html=1;" parent="berjVdsdgL8grTKteqkr-1" vertex="1">
          <mxGeometry x="129.5" y="859" width="140" height="80" as="geometry" />
        </mxCell>
        <mxCell id="qgMCNEnHbo8gnDN44Nzg-65" style="edgeStyle=orthogonalEdgeStyle;rounded=0;orthogonalLoop=1;jettySize=auto;html=1;endArrow=none;endFill=0;" parent="berjVdsdgL8grTKteqkr-1" source="qgMCNEnHbo8gnDN44Nzg-66" edge="1">
          <mxGeometry relative="1" as="geometry">
            <mxPoint x="334" y="855" as="targetPoint" />
            <Array as="points">
              <mxPoint x="371" y="862" />
              <mxPoint x="371" y="856" />
              <mxPoint x="334" y="856" />
            </Array>
          </mxGeometry>
        </mxCell>
        <mxCell id="qgMCNEnHbo8gnDN44Nzg-66" value="&lt;i style=&quot;font-family: &amp;quot;GOST type B&amp;quot;; font-size: 11.29px;&quot;&gt;Фиксируем занятость парковочного места и время начала парковки&amp;nbsp;&lt;/i&gt;&lt;i style=&quot;font-family: &amp;quot;GOST type B&amp;quot;; font-size: 11.29px;&quot;&gt;в переменной&lt;/i&gt;&lt;i style=&quot;font-family: &amp;quot;GOST type B&amp;quot;; font-size: 11.29px;&quot;&gt;, хранящей информацию о 1 парковочном месте&lt;/i&gt;" style="rounded=0;whiteSpace=wrap;html=1;" parent="berjVdsdgL8grTKteqkr-1" vertex="1">
          <mxGeometry x="407.5" y="817" width="120" height="90" as="geometry" />
        </mxCell>
        <mxCell id="qgMCNEnHbo8gnDN44Nzg-67" style="edgeStyle=orthogonalEdgeStyle;rounded=0;orthogonalLoop=1;jettySize=auto;html=1;entryX=0.5;entryY=0;entryDx=0;entryDy=0;endArrow=block;endFill=1;" parent="berjVdsdgL8grTKteqkr-1" source="qgMCNEnHbo8gnDN44Nzg-69" target="qgMCNEnHbo8gnDN44Nzg-66" edge="1">
          <mxGeometry relative="1" as="geometry" />
        </mxCell>
        <mxCell id="qgMCNEnHbo8gnDN44Nzg-68" style="edgeStyle=orthogonalEdgeStyle;rounded=0;orthogonalLoop=1;jettySize=auto;html=1;entryX=0.5;entryY=0;entryDx=0;entryDy=0;endArrow=block;endFill=1;" parent="berjVdsdgL8grTKteqkr-1" source="qgMCNEnHbo8gnDN44Nzg-69" target="qgMCNEnHbo8gnDN44Nzg-122" edge="1">
          <mxGeometry relative="1" as="geometry" />
        </mxCell>
        <mxCell id="qgMCNEnHbo8gnDN44Nzg-69" value="&lt;font face=&quot;GOST type B&quot;&gt;&lt;span style=&quot;font-size: 11.29px;&quot;&gt;&lt;i&gt;Статус парковочного места 1 указывает на занятость?&lt;/i&gt;&lt;/span&gt;&lt;/font&gt;" style="rhombus;whiteSpace=wrap;html=1;" parent="berjVdsdgL8grTKteqkr-1" vertex="1">
          <mxGeometry x="264" y="755" width="140" height="80" as="geometry" />
        </mxCell>
        <mxCell id="qgMCNEnHbo8gnDN44Nzg-70" style="edgeStyle=orthogonalEdgeStyle;rounded=0;orthogonalLoop=1;jettySize=auto;html=1;entryX=0.5;entryY=0;entryDx=0;entryDy=0;endArrow=block;endFill=1;" parent="berjVdsdgL8grTKteqkr-1" edge="1">
          <mxGeometry relative="1" as="geometry">
            <mxPoint x="333.9644052863436" y="741" as="sourcePoint" />
            <mxPoint x="333.96" y="755" as="targetPoint" />
          </mxGeometry>
        </mxCell>
        <mxCell id="qgMCNEnHbo8gnDN44Nzg-71" value="&lt;i style=&quot;font-family: &amp;quot;GOST type B&amp;quot;; font-size: 11.29px;&quot;&gt;Выводим сообщение о том, что на парковочном месте 1 припаркован автомобиль, на ЖКД&lt;/i&gt;" style="rounded=0;whiteSpace=wrap;html=1;" parent="berjVdsdgL8grTKteqkr-1" vertex="1">
          <mxGeometry x="274" y="665" width="120" height="76" as="geometry" />
        </mxCell>
        <mxCell id="qgMCNEnHbo8gnDN44Nzg-72" style="edgeStyle=orthogonalEdgeStyle;rounded=0;orthogonalLoop=1;jettySize=auto;html=1;entryX=0.5;entryY=0;entryDx=0;entryDy=0;endArrow=block;endFill=1;" parent="berjVdsdgL8grTKteqkr-1" source="qgMCNEnHbo8gnDN44Nzg-74" target="qgMCNEnHbo8gnDN44Nzg-71" edge="1">
          <mxGeometry relative="1" as="geometry" />
        </mxCell>
        <mxCell id="qgMCNEnHbo8gnDN44Nzg-73" style="edgeStyle=orthogonalEdgeStyle;rounded=0;orthogonalLoop=1;jettySize=auto;html=1;entryX=0.5;entryY=0;entryDx=0;entryDy=0;endArrow=block;endFill=1;" parent="berjVdsdgL8grTKteqkr-1" source="qgMCNEnHbo8gnDN44Nzg-74" target="qgMCNEnHbo8gnDN44Nzg-64" edge="1">
          <mxGeometry relative="1" as="geometry" />
        </mxCell>
        <mxCell id="qgMCNEnHbo8gnDN44Nzg-74" value="&lt;font face=&quot;GOST type B&quot;&gt;&lt;span style=&quot;font-size: 11.29px;&quot;&gt;&lt;i&gt;Первый ИК датчик обнаружил объект и размер объекта удовлетворяет диапазону размеров автомобиля?&lt;/i&gt;&lt;/span&gt;&lt;/font&gt;" style="rhombus;whiteSpace=wrap;html=1;" parent="berjVdsdgL8grTKteqkr-1" vertex="1">
          <mxGeometry x="129.5" y="605" width="140" height="80" as="geometry" />
        </mxCell>
        <mxCell id="qgMCNEnHbo8gnDN44Nzg-75" style="edgeStyle=orthogonalEdgeStyle;rounded=0;orthogonalLoop=1;jettySize=auto;html=1;endArrow=none;endFill=0;" parent="berjVdsdgL8grTKteqkr-1" source="qgMCNEnHbo8gnDN44Nzg-76" edge="1">
          <mxGeometry relative="1" as="geometry">
            <mxPoint x="331" y="1103" as="targetPoint" />
            <Array as="points" />
          </mxGeometry>
        </mxCell>
        <mxCell id="qgMCNEnHbo8gnDN44Nzg-76" value="&lt;i style=&quot;font-family: &amp;quot;GOST type B&amp;quot;; font-size: 11.29px;&quot;&gt;Фиксируем занятость парковочного места и время начала парковки&amp;nbsp;&lt;/i&gt;&lt;i style=&quot;font-family: &amp;quot;GOST type B&amp;quot;; font-size: 11.29px;&quot;&gt;в переменной&lt;/i&gt;&lt;i style=&quot;font-family: &amp;quot;GOST type B&amp;quot;; font-size: 11.29px;&quot;&gt;, хранящей информацию о 1 парковочном месте&lt;/i&gt;" style="rounded=0;whiteSpace=wrap;html=1;" parent="berjVdsdgL8grTKteqkr-1" vertex="1">
          <mxGeometry x="410.5" y="1065" width="120" height="84" as="geometry" />
        </mxCell>
        <mxCell id="qgMCNEnHbo8gnDN44Nzg-77" style="edgeStyle=orthogonalEdgeStyle;rounded=0;orthogonalLoop=1;jettySize=auto;html=1;entryX=0.5;entryY=0;entryDx=0;entryDy=0;endArrow=block;endFill=1;" parent="berjVdsdgL8grTKteqkr-1" source="qgMCNEnHbo8gnDN44Nzg-79" target="qgMCNEnHbo8gnDN44Nzg-76" edge="1">
          <mxGeometry relative="1" as="geometry" />
        </mxCell>
        <mxCell id="qgMCNEnHbo8gnDN44Nzg-78" style="edgeStyle=orthogonalEdgeStyle;rounded=0;orthogonalLoop=1;jettySize=auto;html=1;entryX=0.5;entryY=0;entryDx=0;entryDy=0;endArrow=block;endFill=1;" parent="berjVdsdgL8grTKteqkr-1" source="qgMCNEnHbo8gnDN44Nzg-79" target="qgMCNEnHbo8gnDN44Nzg-126" edge="1">
          <mxGeometry relative="1" as="geometry" />
        </mxCell>
        <mxCell id="qgMCNEnHbo8gnDN44Nzg-79" value="&lt;font face=&quot;GOST type B&quot;&gt;&lt;span style=&quot;font-size: 11.29px;&quot;&gt;&lt;i&gt;Статус парковочного места 1 указывает на занятость?&lt;/i&gt;&lt;/span&gt;&lt;/font&gt;" style="rhombus;whiteSpace=wrap;html=1;" parent="berjVdsdgL8grTKteqkr-1" vertex="1">
          <mxGeometry x="260.5" y="1005" width="140" height="80" as="geometry" />
        </mxCell>
        <mxCell id="qgMCNEnHbo8gnDN44Nzg-80" style="edgeStyle=orthogonalEdgeStyle;rounded=0;orthogonalLoop=1;jettySize=auto;html=1;entryX=0.5;entryY=0;entryDx=0;entryDy=0;endArrow=block;endFill=1;" parent="berjVdsdgL8grTKteqkr-1" source="qgMCNEnHbo8gnDN44Nzg-81" target="qgMCNEnHbo8gnDN44Nzg-79" edge="1">
          <mxGeometry relative="1" as="geometry">
            <Array as="points">
              <mxPoint x="331" y="1005" />
              <mxPoint x="331" y="1005" />
            </Array>
          </mxGeometry>
        </mxCell>
        <mxCell id="qgMCNEnHbo8gnDN44Nzg-81" value="&lt;i style=&quot;font-family: &amp;quot;GOST type B&amp;quot;; font-size: 11.29px;&quot;&gt;Выводим сообщение о том, что на парковочном месте 1 припаркован мотоцикл, на ЖКД&lt;/i&gt;" style="rounded=0;whiteSpace=wrap;html=1;" parent="berjVdsdgL8grTKteqkr-1" vertex="1">
          <mxGeometry x="270.5" y="921" width="120" height="71" as="geometry" />
        </mxCell>
        <mxCell id="qgMCNEnHbo8gnDN44Nzg-82" value="" style="endArrow=block;html=1;rounded=0;endFill=1;exitX=1;exitY=0.5;exitDx=0;exitDy=0;entryX=0;entryY=0.5;entryDx=0;entryDy=0;" parent="berjVdsdgL8grTKteqkr-1" source="qgMCNEnHbo8gnDN44Nzg-1" target="qgMCNEnHbo8gnDN44Nzg-3" edge="1">
          <mxGeometry width="50" height="50" relative="1" as="geometry">
            <mxPoint x="680" y="182" as="sourcePoint" />
            <mxPoint x="1250" y="65" as="targetPoint" />
          </mxGeometry>
        </mxCell>
        <mxCell id="qgMCNEnHbo8gnDN44Nzg-83" value="&lt;font face=&quot;GOST type B&quot;&gt;&lt;span style=&quot;font-size: 11.29px; background-color: rgb(255, 255, 255);&quot;&gt;&lt;i&gt;Да&lt;/i&gt;&lt;/span&gt;&lt;/font&gt;" style="text;html=1;align=center;verticalAlign=middle;resizable=0;points=[];autosize=1;strokeColor=none;fillColor=none;" parent="berjVdsdgL8grTKteqkr-1" vertex="1">
          <mxGeometry x="286" y="32" width="40" height="30" as="geometry" />
        </mxCell>
        <mxCell id="qgMCNEnHbo8gnDN44Nzg-84" value="" style="endArrow=block;html=1;rounded=0;endFill=1;exitX=1;exitY=0.5;exitDx=0;exitDy=0;entryX=0.5;entryY=0;entryDx=0;entryDy=0;" parent="berjVdsdgL8grTKteqkr-1" source="qgMCNEnHbo8gnDN44Nzg-7" target="qgMCNEnHbo8gnDN44Nzg-9" edge="1">
          <mxGeometry width="50" height="50" relative="1" as="geometry">
            <mxPoint x="1091.75" y="346" as="sourcePoint" />
            <mxPoint x="1141.75" y="296" as="targetPoint" />
            <Array as="points">
              <mxPoint x="1179.75" y="246" />
            </Array>
          </mxGeometry>
        </mxCell>
        <mxCell id="qgMCNEnHbo8gnDN44Nzg-85" value="&lt;font face=&quot;GOST type B&quot;&gt;&lt;span style=&quot;font-size: 11.29px; background-color: rgb(255, 255, 255);&quot;&gt;&lt;i&gt;Да&lt;/i&gt;&lt;/span&gt;&lt;/font&gt;" style="text;html=1;align=center;verticalAlign=middle;resizable=0;points=[];autosize=1;strokeColor=none;fillColor=none;" parent="berjVdsdgL8grTKteqkr-1" vertex="1">
          <mxGeometry x="1116.75" y="211" width="40" height="30" as="geometry" />
        </mxCell>
        <mxCell id="qgMCNEnHbo8gnDN44Nzg-86" value="" style="endArrow=block;html=1;rounded=0;endFill=1;exitX=1;exitY=0.5;exitDx=0;exitDy=0;entryX=0.5;entryY=0;entryDx=0;entryDy=0;" parent="berjVdsdgL8grTKteqkr-1" source="qgMCNEnHbo8gnDN44Nzg-9" target="qgMCNEnHbo8gnDN44Nzg-8" edge="1">
          <mxGeometry width="50" height="50" relative="1" as="geometry">
            <mxPoint x="1191.75" y="356" as="sourcePoint" />
            <mxPoint x="1241.75" y="306" as="targetPoint" />
            <Array as="points">
              <mxPoint x="1317.75" y="303" />
            </Array>
          </mxGeometry>
        </mxCell>
        <mxCell id="qgMCNEnHbo8gnDN44Nzg-87" value="&lt;font face=&quot;GOST type B&quot;&gt;&lt;span style=&quot;font-size: 11.29px; background-color: rgb(255, 255, 255);&quot;&gt;&lt;i&gt;Да&lt;/i&gt;&lt;/span&gt;&lt;/font&gt;" style="text;html=1;align=center;verticalAlign=middle;resizable=0;points=[];autosize=1;strokeColor=none;fillColor=none;" parent="berjVdsdgL8grTKteqkr-1" vertex="1">
          <mxGeometry x="1174.75" y="335" width="40" height="30" as="geometry" />
        </mxCell>
        <mxCell id="qgMCNEnHbo8gnDN44Nzg-88" value="" style="endArrow=none;html=1;rounded=0;endFill=0;" parent="berjVdsdgL8grTKteqkr-1" edge="1">
          <mxGeometry width="50" height="50" relative="1" as="geometry">
            <mxPoint x="1317.75" y="409" as="sourcePoint" />
            <mxPoint x="1058.75" y="539" as="targetPoint" />
            <Array as="points">
              <mxPoint x="1318.75" y="539" />
            </Array>
          </mxGeometry>
        </mxCell>
        <mxCell id="qgMCNEnHbo8gnDN44Nzg-89" value="" style="endArrow=none;html=1;rounded=0;endFill=0;exitX=0.5;exitY=1;exitDx=0;exitDy=0;" parent="berjVdsdgL8grTKteqkr-1" source="qgMCNEnHbo8gnDN44Nzg-9" edge="1">
          <mxGeometry width="50" height="50" relative="1" as="geometry">
            <mxPoint x="1191.75" y="466" as="sourcePoint" />
            <mxPoint x="1317.75" y="424" as="targetPoint" />
            <Array as="points">
              <mxPoint x="1179.75" y="424" />
            </Array>
          </mxGeometry>
        </mxCell>
        <mxCell id="qgMCNEnHbo8gnDN44Nzg-90" value="&lt;i style=&quot;forced-color-adjust: none; color: rgb(0, 0, 0); font-family: &amp;quot;GOST type B&amp;quot;; font-size: 11.29px; font-variant-ligatures: normal; font-variant-caps: normal; font-weight: 400; letter-spacing: normal; orphans: 2; text-align: center; text-indent: 0px; text-transform: none; widows: 2; word-spacing: 0px; -webkit-text-stroke-width: 0px; white-space: nowrap; background-color: rgb(255, 255, 255); text-decoration-thickness: initial; text-decoration-style: initial; text-decoration-color: initial;&quot;&gt;Нет&lt;/i&gt;" style="text;whiteSpace=wrap;html=1;" parent="berjVdsdgL8grTKteqkr-1" vertex="1">
          <mxGeometry x="1275.75" y="276" width="50" height="40" as="geometry" />
        </mxCell>
        <mxCell id="qgMCNEnHbo8gnDN44Nzg-91" value="&lt;i style=&quot;forced-color-adjust: none; color: rgb(0, 0, 0); font-family: &amp;quot;GOST type B&amp;quot;; font-size: 11.29px; font-variant-ligatures: normal; font-variant-caps: normal; font-weight: 400; letter-spacing: normal; orphans: 2; text-align: center; text-indent: 0px; text-transform: none; widows: 2; word-spacing: 0px; -webkit-text-stroke-width: 0px; white-space: nowrap; background-color: rgb(255, 255, 255); text-decoration-thickness: initial; text-decoration-style: initial; text-decoration-color: initial;&quot;&gt;Нет&lt;/i&gt;" style="text;whiteSpace=wrap;html=1;" parent="berjVdsdgL8grTKteqkr-1" vertex="1">
          <mxGeometry x="1065.75" y="285" width="50" height="40" as="geometry" />
        </mxCell>
        <mxCell id="qgMCNEnHbo8gnDN44Nzg-92" value="&lt;i style=&quot;forced-color-adjust: none; color: rgb(0, 0, 0); font-family: &amp;quot;GOST type B&amp;quot;; font-size: 11.29px; font-variant-ligatures: normal; font-variant-caps: normal; font-weight: 400; letter-spacing: normal; orphans: 2; text-align: center; text-indent: 0px; text-transform: none; widows: 2; word-spacing: 0px; -webkit-text-stroke-width: 0px; white-space: nowrap; background-color: rgb(255, 255, 255); text-decoration-thickness: initial; text-decoration-style: initial; text-decoration-color: initial;&quot;&gt;Нет&lt;/i&gt;" style="text;whiteSpace=wrap;html=1;" parent="berjVdsdgL8grTKteqkr-1" vertex="1">
          <mxGeometry x="1062.75" y="441" width="50" height="40" as="geometry" />
        </mxCell>
        <mxCell id="qgMCNEnHbo8gnDN44Nzg-93" value="&lt;font face=&quot;GOST type B&quot;&gt;&lt;span style=&quot;font-size: 11.29px; background-color: rgb(255, 255, 255);&quot;&gt;&lt;i&gt;Да&lt;/i&gt;&lt;/span&gt;&lt;/font&gt;" style="text;html=1;align=center;verticalAlign=middle;resizable=0;points=[];autosize=1;strokeColor=none;fillColor=none;" parent="berjVdsdgL8grTKteqkr-1" vertex="1">
          <mxGeometry x="1127.75" y="376" width="40" height="30" as="geometry" />
        </mxCell>
        <mxCell id="qgMCNEnHbo8gnDN44Nzg-94" value="" style="endArrow=none;html=1;rounded=0;endFill=0;" parent="berjVdsdgL8grTKteqkr-1" edge="1">
          <mxGeometry width="50" height="50" relative="1" as="geometry">
            <mxPoint x="1062.75" y="539" as="sourcePoint" />
            <mxPoint x="1062.75" y="539" as="targetPoint" />
            <Array as="points" />
          </mxGeometry>
        </mxCell>
        <mxCell id="qgMCNEnHbo8gnDN44Nzg-95" value="&lt;font face=&quot;GOST type B&quot;&gt;&lt;span style=&quot;font-size: 11.29px; background-color: rgb(255, 255, 255);&quot;&gt;&lt;i&gt;Да&lt;/i&gt;&lt;/span&gt;&lt;/font&gt;" style="text;html=1;align=center;verticalAlign=middle;resizable=0;points=[];autosize=1;strokeColor=none;fillColor=none;" parent="berjVdsdgL8grTKteqkr-1" vertex="1">
          <mxGeometry x="1115.5" y="564" width="40" height="30" as="geometry" />
        </mxCell>
        <mxCell id="qgMCNEnHbo8gnDN44Nzg-96" value="&lt;i style=&quot;forced-color-adjust: none; color: rgb(0, 0, 0); font-family: &amp;quot;GOST type B&amp;quot;; font-size: 11.29px; font-variant-ligatures: normal; font-variant-caps: normal; font-weight: 400; letter-spacing: normal; orphans: 2; text-align: center; text-indent: 0px; text-transform: none; widows: 2; word-spacing: 0px; -webkit-text-stroke-width: 0px; white-space: nowrap; background-color: rgb(255, 255, 255); text-decoration-thickness: initial; text-decoration-style: initial; text-decoration-color: initial;&quot;&gt;Нет&lt;/i&gt;" style="text;whiteSpace=wrap;html=1;" parent="berjVdsdgL8grTKteqkr-1" vertex="1">
          <mxGeometry x="1065.5" y="624" width="50" height="40" as="geometry" />
        </mxCell>
        <mxCell id="qgMCNEnHbo8gnDN44Nzg-97" value="&lt;font face=&quot;GOST type B&quot;&gt;&lt;span style=&quot;font-size: 11.29px; background-color: rgb(255, 255, 255);&quot;&gt;&lt;i&gt;Да&lt;/i&gt;&lt;/span&gt;&lt;/font&gt;" style="text;html=1;align=center;verticalAlign=middle;resizable=0;points=[];autosize=1;strokeColor=none;fillColor=none;" parent="berjVdsdgL8grTKteqkr-1" vertex="1">
          <mxGeometry x="1193.5" y="689" width="40" height="30" as="geometry" />
        </mxCell>
        <mxCell id="qgMCNEnHbo8gnDN44Nzg-98" value="&lt;font face=&quot;GOST type B&quot;&gt;&lt;span style=&quot;font-size: 11.29px; background-color: rgb(255, 255, 255);&quot;&gt;&lt;i&gt;Да&lt;/i&gt;&lt;/span&gt;&lt;/font&gt;" style="text;html=1;align=center;verticalAlign=middle;resizable=0;points=[];autosize=1;strokeColor=none;fillColor=none;" parent="berjVdsdgL8grTKteqkr-1" vertex="1">
          <mxGeometry x="1134.5" y="724" width="40" height="30" as="geometry" />
        </mxCell>
        <mxCell id="qgMCNEnHbo8gnDN44Nzg-99" value="&lt;font face=&quot;GOST TYPE B&quot;&gt;3&lt;/font&gt;" style="ellipse;whiteSpace=wrap;html=1;aspect=fixed;" parent="berjVdsdgL8grTKteqkr-1" vertex="1">
          <mxGeometry x="1208" y="891" width="30" height="30" as="geometry" />
        </mxCell>
        <mxCell id="qgMCNEnHbo8gnDN44Nzg-100" value="" style="endArrow=none;html=1;rounded=0;exitX=0.5;exitY=1;exitDx=0;exitDy=0;" parent="berjVdsdgL8grTKteqkr-1" source="qgMCNEnHbo8gnDN44Nzg-13" edge="1">
          <mxGeometry width="50" height="50" relative="1" as="geometry">
            <mxPoint x="1101.75" y="566" as="sourcePoint" />
            <mxPoint x="1171.75" y="539" as="targetPoint" />
          </mxGeometry>
        </mxCell>
        <mxCell id="qgMCNEnHbo8gnDN44Nzg-101" value="&lt;i style=&quot;forced-color-adjust: none; color: rgb(0, 0, 0); font-family: &amp;quot;GOST type B&amp;quot;; font-size: 11.29px; font-variant-ligatures: normal; font-variant-caps: normal; font-weight: 400; letter-spacing: normal; orphans: 2; text-align: center; text-indent: 0px; text-transform: none; widows: 2; word-spacing: 0px; -webkit-text-stroke-width: 0px; white-space: nowrap; background-color: rgb(255, 255, 255); text-decoration-thickness: initial; text-decoration-style: initial; text-decoration-color: initial;&quot;&gt;Нет&lt;/i&gt;" style="text;whiteSpace=wrap;html=1;" parent="berjVdsdgL8grTKteqkr-1" vertex="1">
          <mxGeometry x="1062.5" y="766" width="50" height="40" as="geometry" />
        </mxCell>
        <mxCell id="qgMCNEnHbo8gnDN44Nzg-102" value="" style="endArrow=none;html=1;rounded=0;exitX=0.5;exitY=1;exitDx=0;exitDy=0;" parent="berjVdsdgL8grTKteqkr-1" source="qgMCNEnHbo8gnDN44Nzg-18" edge="1">
          <mxGeometry width="50" height="50" relative="1" as="geometry">
            <mxPoint x="1341.5" y="714" as="sourcePoint" />
            <mxPoint x="1337.5" y="768" as="targetPoint" />
            <Array as="points">
              <mxPoint x="1197.5" y="768" />
              <mxPoint x="1337.5" y="768" />
              <mxPoint x="1339.5" y="768" />
            </Array>
          </mxGeometry>
        </mxCell>
        <mxCell id="qgMCNEnHbo8gnDN44Nzg-103" value="&lt;i style=&quot;forced-color-adjust: none; color: rgb(0, 0, 0); font-family: &amp;quot;GOST type B&amp;quot;; font-size: 11.29px; font-variant-ligatures: normal; font-variant-caps: normal; font-weight: 400; letter-spacing: normal; orphans: 2; text-align: center; text-indent: 0px; text-transform: none; widows: 2; word-spacing: 0px; -webkit-text-stroke-width: 0px; white-space: nowrap; background-color: rgb(255, 255, 255); text-decoration-thickness: initial; text-decoration-style: initial; text-decoration-color: initial;&quot;&gt;Нет&lt;/i&gt;" style="text;whiteSpace=wrap;html=1;" parent="berjVdsdgL8grTKteqkr-1" vertex="1">
          <mxGeometry x="1286.5" y="626" width="50" height="40" as="geometry" />
        </mxCell>
        <mxCell id="qgMCNEnHbo8gnDN44Nzg-104" value="&lt;i style=&quot;forced-color-adjust: none; color: rgb(0, 0, 0); font-family: &amp;quot;GOST type B&amp;quot;; font-size: 11.29px; font-variant-ligatures: normal; font-variant-caps: normal; font-weight: 400; letter-spacing: normal; orphans: 2; text-align: center; text-indent: 0px; text-transform: none; widows: 2; word-spacing: 0px; -webkit-text-stroke-width: 0px; white-space: nowrap; background-color: rgb(255, 255, 255); text-decoration-thickness: initial; text-decoration-style: initial; text-decoration-color: initial;&quot;&gt;Нет&lt;/i&gt;" style="text;whiteSpace=wrap;html=1;" parent="berjVdsdgL8grTKteqkr-1" vertex="1">
          <mxGeometry x="206" y="107" width="50" height="40" as="geometry" />
        </mxCell>
        <mxCell id="qgMCNEnHbo8gnDN44Nzg-105" value="" style="endArrow=block;html=1;rounded=0;exitX=0.5;exitY=1;exitDx=0;exitDy=0;entryX=0.5;entryY=0;entryDx=0;entryDy=0;endFill=1;" parent="berjVdsdgL8grTKteqkr-1" source="qgMCNEnHbo8gnDN44Nzg-29" target="qgMCNEnHbo8gnDN44Nzg-30" edge="1">
          <mxGeometry width="50" height="50" relative="1" as="geometry">
            <mxPoint x="285" y="302" as="sourcePoint" />
            <mxPoint x="335" y="252" as="targetPoint" />
          </mxGeometry>
        </mxCell>
        <mxCell id="qgMCNEnHbo8gnDN44Nzg-106" value="&lt;font face=&quot;GOST type B&quot;&gt;&lt;span style=&quot;font-size: 11.29px; background-color: rgb(255, 255, 255);&quot;&gt;&lt;i&gt;Да&lt;/i&gt;&lt;/span&gt;&lt;/font&gt;" style="text;html=1;align=center;verticalAlign=middle;resizable=0;points=[];autosize=1;strokeColor=none;fillColor=none;" parent="berjVdsdgL8grTKteqkr-1" vertex="1">
          <mxGeometry x="272" y="162" width="40" height="30" as="geometry" />
        </mxCell>
        <mxCell id="qgMCNEnHbo8gnDN44Nzg-107" value="&lt;i style=&quot;forced-color-adjust: none; color: rgb(0, 0, 0); font-family: &amp;quot;GOST type B&amp;quot;; font-size: 11.29px; font-variant-ligatures: normal; font-variant-caps: normal; font-weight: 400; letter-spacing: normal; orphans: 2; text-align: center; text-indent: 0px; text-transform: none; widows: 2; word-spacing: 0px; -webkit-text-stroke-width: 0px; white-space: nowrap; background-color: rgb(255, 255, 255); text-decoration-thickness: initial; text-decoration-style: initial; text-decoration-color: initial;&quot;&gt;Нет&lt;/i&gt;" style="text;whiteSpace=wrap;html=1;" parent="berjVdsdgL8grTKteqkr-1" vertex="1">
          <mxGeometry x="206" y="227" width="50" height="40" as="geometry" />
        </mxCell>
        <mxCell id="qgMCNEnHbo8gnDN44Nzg-108" value="" style="endArrow=none;html=1;rounded=0;endFill=0;" parent="berjVdsdgL8grTKteqkr-1" edge="1">
          <mxGeometry width="50" height="50" relative="1" as="geometry">
            <mxPoint x="337" y="361" as="sourcePoint" />
            <mxPoint x="199" y="375" as="targetPoint" />
            <Array as="points">
              <mxPoint x="337" y="374" />
            </Array>
          </mxGeometry>
        </mxCell>
        <mxCell id="qgMCNEnHbo8gnDN44Nzg-109" value="&lt;font face=&quot;GOST type B&quot;&gt;&lt;span style=&quot;font-size: 11.29px; background-color: rgb(255, 255, 255);&quot;&gt;&lt;i&gt;Да&lt;/i&gt;&lt;/span&gt;&lt;/font&gt;" style="text;html=1;align=center;verticalAlign=middle;resizable=0;points=[];autosize=1;strokeColor=none;fillColor=none;" parent="berjVdsdgL8grTKteqkr-1" vertex="1">
          <mxGeometry x="267" y="400" width="40" height="30" as="geometry" />
        </mxCell>
        <mxCell id="qgMCNEnHbo8gnDN44Nzg-110" value="&lt;i style=&quot;forced-color-adjust: none; color: rgb(0, 0, 0); font-family: &amp;quot;GOST type B&amp;quot;; font-size: 11.29px; font-variant-ligatures: normal; font-variant-caps: normal; font-weight: 400; letter-spacing: normal; orphans: 2; text-align: center; text-indent: 0px; text-transform: none; widows: 2; word-spacing: 0px; -webkit-text-stroke-width: 0px; white-space: nowrap; background-color: rgb(255, 255, 255); text-decoration-thickness: initial; text-decoration-style: initial; text-decoration-color: initial;&quot;&gt;Нет&lt;/i&gt;" style="text;whiteSpace=wrap;html=1;" parent="berjVdsdgL8grTKteqkr-1" vertex="1">
          <mxGeometry x="200" y="467" width="50" height="40" as="geometry" />
        </mxCell>
        <mxCell id="qgMCNEnHbo8gnDN44Nzg-111" value="&lt;font face=&quot;GOST type B&quot;&gt;&lt;span style=&quot;font-size: 11.29px; background-color: rgb(255, 255, 255);&quot;&gt;&lt;i&gt;Да&lt;/i&gt;&lt;/span&gt;&lt;/font&gt;" style="text;html=1;align=center;verticalAlign=middle;resizable=0;points=[];autosize=1;strokeColor=none;fillColor=none;" parent="berjVdsdgL8grTKteqkr-1" vertex="1">
          <mxGeometry x="779" y="114.5" width="40" height="30" as="geometry" />
        </mxCell>
        <mxCell id="qgMCNEnHbo8gnDN44Nzg-112" value="&lt;i style=&quot;forced-color-adjust: none; color: rgb(0, 0, 0); font-family: &amp;quot;GOST type B&amp;quot;; font-size: 11.29px; font-variant-ligatures: normal; font-variant-caps: normal; font-weight: 400; letter-spacing: normal; orphans: 2; text-align: center; text-indent: 0px; text-transform: none; widows: 2; word-spacing: 0px; -webkit-text-stroke-width: 0px; white-space: nowrap; background-color: rgb(255, 255, 255); text-decoration-thickness: initial; text-decoration-style: initial; text-decoration-color: initial;&quot;&gt;Нет&lt;/i&gt;" style="text;whiteSpace=wrap;html=1;" parent="berjVdsdgL8grTKteqkr-1" vertex="1">
          <mxGeometry x="690" y="184.5" width="50" height="40" as="geometry" />
        </mxCell>
        <mxCell id="qgMCNEnHbo8gnDN44Nzg-113" value="&lt;font face=&quot;GOST type B&quot;&gt;&lt;span style=&quot;font-size: 11.29px; background-color: rgb(255, 255, 255);&quot;&gt;&lt;i&gt;Да&lt;/i&gt;&lt;/span&gt;&lt;/font&gt;" style="text;html=1;align=center;verticalAlign=middle;resizable=0;points=[];autosize=1;strokeColor=none;fillColor=none;" parent="berjVdsdgL8grTKteqkr-1" vertex="1">
          <mxGeometry x="770" y="324.5" width="40" height="30" as="geometry" />
        </mxCell>
        <mxCell id="qgMCNEnHbo8gnDN44Nzg-114" value="&lt;i style=&quot;forced-color-adjust: none; color: rgb(0, 0, 0); font-family: &amp;quot;GOST type B&amp;quot;; font-size: 11.29px; font-variant-ligatures: normal; font-variant-caps: normal; font-weight: 400; letter-spacing: normal; orphans: 2; text-align: center; text-indent: 0px; text-transform: none; widows: 2; word-spacing: 0px; -webkit-text-stroke-width: 0px; white-space: nowrap; background-color: rgb(255, 255, 255); text-decoration-thickness: initial; text-decoration-style: initial; text-decoration-color: initial;&quot;&gt;Нет&lt;/i&gt;" style="text;whiteSpace=wrap;html=1;" parent="berjVdsdgL8grTKteqkr-1" vertex="1">
          <mxGeometry x="690" y="404.5" width="50" height="40" as="geometry" />
        </mxCell>
        <mxCell id="qgMCNEnHbo8gnDN44Nzg-115" value="&lt;font face=&quot;GOST type B&quot;&gt;&lt;span style=&quot;font-size: 11.29px; background-color: rgb(255, 255, 255);&quot;&gt;&lt;i&gt;Да&lt;/i&gt;&lt;/span&gt;&lt;/font&gt;" style="text;html=1;align=center;verticalAlign=middle;resizable=0;points=[];autosize=1;strokeColor=none;fillColor=none;" parent="berjVdsdgL8grTKteqkr-1" vertex="1">
          <mxGeometry x="775" y="544.5" width="40" height="30" as="geometry" />
        </mxCell>
        <mxCell id="qgMCNEnHbo8gnDN44Nzg-116" value="&lt;i style=&quot;forced-color-adjust: none; color: rgb(0, 0, 0); font-family: &amp;quot;GOST type B&amp;quot;; font-size: 11.29px; font-variant-ligatures: normal; font-variant-caps: normal; font-weight: 400; letter-spacing: normal; orphans: 2; text-align: center; text-indent: 0px; text-transform: none; widows: 2; word-spacing: 0px; -webkit-text-stroke-width: 0px; white-space: nowrap; background-color: rgb(255, 255, 255); text-decoration-thickness: initial; text-decoration-style: initial; text-decoration-color: initial;&quot;&gt;Нет&lt;/i&gt;" style="text;whiteSpace=wrap;html=1;" parent="berjVdsdgL8grTKteqkr-1" vertex="1">
          <mxGeometry x="695" y="614.5" width="50" height="40" as="geometry" />
        </mxCell>
        <mxCell id="qgMCNEnHbo8gnDN44Nzg-117" value="&lt;font face=&quot;GOST type B&quot;&gt;&lt;span style=&quot;font-size: 11.29px; background-color: rgb(255, 255, 255);&quot;&gt;&lt;i&gt;Да&lt;/i&gt;&lt;/span&gt;&lt;/font&gt;" style="text;html=1;align=center;verticalAlign=middle;resizable=0;points=[];autosize=1;strokeColor=none;fillColor=none;" parent="berjVdsdgL8grTKteqkr-1" vertex="1">
          <mxGeometry x="777.5" y="784.5" width="40" height="30" as="geometry" />
        </mxCell>
        <mxCell id="qgMCNEnHbo8gnDN44Nzg-118" value="&lt;i style=&quot;forced-color-adjust: none; color: rgb(0, 0, 0); font-family: &amp;quot;GOST type B&amp;quot;; font-size: 11.29px; font-variant-ligatures: normal; font-variant-caps: normal; font-weight: 400; letter-spacing: normal; orphans: 2; text-align: center; text-indent: 0px; text-transform: none; widows: 2; word-spacing: 0px; -webkit-text-stroke-width: 0px; white-space: nowrap; background-color: rgb(255, 255, 255); text-decoration-thickness: initial; text-decoration-style: initial; text-decoration-color: initial;&quot;&gt;Нет&lt;/i&gt;" style="text;whiteSpace=wrap;html=1;" parent="berjVdsdgL8grTKteqkr-1" vertex="1">
          <mxGeometry x="691.25" y="852.5" width="50" height="40" as="geometry" />
        </mxCell>
        <mxCell id="qgMCNEnHbo8gnDN44Nzg-119" value="&lt;font face=&quot;GOST type B&quot;&gt;&lt;span style=&quot;font-size: 11.29px; background-color: rgb(255, 255, 255);&quot;&gt;&lt;i&gt;Да&lt;/i&gt;&lt;/span&gt;&lt;/font&gt;" style="text;html=1;align=center;verticalAlign=middle;resizable=0;points=[];autosize=1;strokeColor=none;fillColor=none;" parent="berjVdsdgL8grTKteqkr-1" vertex="1">
          <mxGeometry x="267" y="615" width="40" height="30" as="geometry" />
        </mxCell>
        <mxCell id="qgMCNEnHbo8gnDN44Nzg-120" value="&lt;i style=&quot;forced-color-adjust: none; color: rgb(0, 0, 0); font-family: &amp;quot;GOST type B&amp;quot;; font-size: 11.29px; font-variant-ligatures: normal; font-variant-caps: normal; font-weight: 400; letter-spacing: normal; orphans: 2; text-align: center; text-indent: 0px; text-transform: none; widows: 2; word-spacing: 0px; -webkit-text-stroke-width: 0px; white-space: nowrap; background-color: rgb(255, 255, 255); text-decoration-thickness: initial; text-decoration-style: initial; text-decoration-color: initial;&quot;&gt;Нет&lt;/i&gt;" style="text;whiteSpace=wrap;html=1;" parent="berjVdsdgL8grTKteqkr-1" vertex="1">
          <mxGeometry x="403" y="771" width="50" height="40" as="geometry" />
        </mxCell>
        <mxCell id="qgMCNEnHbo8gnDN44Nzg-121" value="&lt;i style=&quot;forced-color-adjust: none; color: rgb(0, 0, 0); font-family: &amp;quot;GOST type B&amp;quot;; font-size: 11.29px; font-variant-ligatures: normal; font-variant-caps: normal; font-weight: 400; letter-spacing: normal; orphans: 2; text-align: center; text-indent: 0px; text-transform: none; widows: 2; word-spacing: 0px; -webkit-text-stroke-width: 0px; white-space: nowrap; background-color: rgb(255, 255, 255); text-decoration-thickness: initial; text-decoration-style: initial; text-decoration-color: initial;&quot;&gt;Нет&lt;/i&gt;" style="text;whiteSpace=wrap;html=1;" parent="berjVdsdgL8grTKteqkr-1" vertex="1">
          <mxGeometry x="206" y="688" width="50" height="40" as="geometry" />
        </mxCell>
        <mxCell id="qgMCNEnHbo8gnDN44Nzg-122" value="&lt;font face=&quot;GOST TYPE B&quot;&gt;2&lt;/font&gt;" style="ellipse;whiteSpace=wrap;html=1;aspect=fixed;" parent="berjVdsdgL8grTKteqkr-1" vertex="1">
          <mxGeometry x="319" y="866" width="30" height="30" as="geometry" />
        </mxCell>
        <mxCell id="qgMCNEnHbo8gnDN44Nzg-123" value="&lt;font face=&quot;GOST type B&quot;&gt;&lt;span style=&quot;font-size: 11.29px; background-color: rgb(255, 255, 255);&quot;&gt;&lt;i&gt;Да&lt;/i&gt;&lt;/span&gt;&lt;/font&gt;" style="text;html=1;align=center;verticalAlign=middle;resizable=0;points=[];autosize=1;strokeColor=none;fillColor=none;" parent="berjVdsdgL8grTKteqkr-1" vertex="1">
          <mxGeometry x="324.5" y="824" width="40" height="30" as="geometry" />
        </mxCell>
        <mxCell id="qgMCNEnHbo8gnDN44Nzg-124" value="&lt;font face=&quot;GOST type B&quot;&gt;&lt;span style=&quot;font-size: 11.29px; background-color: rgb(255, 255, 255);&quot;&gt;&lt;i&gt;Да&lt;/i&gt;&lt;/span&gt;&lt;/font&gt;" style="text;html=1;align=center;verticalAlign=middle;resizable=0;points=[];autosize=1;strokeColor=none;fillColor=none;" parent="berjVdsdgL8grTKteqkr-1" vertex="1">
          <mxGeometry x="264" y="874" width="40" height="30" as="geometry" />
        </mxCell>
        <mxCell id="qgMCNEnHbo8gnDN44Nzg-125" value="&lt;i style=&quot;forced-color-adjust: none; color: rgb(0, 0, 0); font-family: &amp;quot;GOST type B&amp;quot;; font-size: 11.29px; font-variant-ligatures: normal; font-variant-caps: normal; font-weight: 400; letter-spacing: normal; orphans: 2; text-align: center; text-indent: 0px; text-transform: none; widows: 2; word-spacing: 0px; -webkit-text-stroke-width: 0px; white-space: nowrap; background-color: rgb(255, 255, 255); text-decoration-thickness: initial; text-decoration-style: initial; text-decoration-color: initial;&quot;&gt;Нет&lt;/i&gt;" style="text;whiteSpace=wrap;html=1;" parent="berjVdsdgL8grTKteqkr-1" vertex="1">
          <mxGeometry x="401.25" y="1018" width="50" height="40" as="geometry" />
        </mxCell>
        <mxCell id="qgMCNEnHbo8gnDN44Nzg-126" value="&lt;font face=&quot;GOST TYPE B&quot;&gt;2&lt;/font&gt;" style="ellipse;whiteSpace=wrap;html=1;aspect=fixed;" parent="berjVdsdgL8grTKteqkr-1" vertex="1">
          <mxGeometry x="315.5" y="1114" width="30" height="30" as="geometry" />
        </mxCell>
        <mxCell id="qgMCNEnHbo8gnDN44Nzg-127" value="&lt;font face=&quot;GOST type B&quot;&gt;&lt;span style=&quot;font-size: 11.29px; background-color: rgb(255, 255, 255);&quot;&gt;&lt;i&gt;Да&lt;/i&gt;&lt;/span&gt;&lt;/font&gt;" style="text;html=1;align=center;verticalAlign=middle;resizable=0;points=[];autosize=1;strokeColor=none;fillColor=none;" parent="berjVdsdgL8grTKteqkr-1" vertex="1">
          <mxGeometry x="320.88" y="1076" width="40" height="30" as="geometry" />
        </mxCell>
        <mxCell id="qgMCNEnHbo8gnDN44Nzg-128" value="&lt;i style=&quot;forced-color-adjust: none; color: rgb(0, 0, 0); font-family: &amp;quot;GOST type B&amp;quot;; font-size: 11.29px; font-variant-ligatures: normal; font-variant-caps: normal; font-weight: 400; letter-spacing: normal; orphans: 2; text-align: center; text-indent: 0px; text-transform: none; widows: 2; word-spacing: 0px; -webkit-text-stroke-width: 0px; white-space: nowrap; background-color: rgb(255, 255, 255); text-decoration-thickness: initial; text-decoration-style: initial; text-decoration-color: initial;&quot;&gt;Нет&lt;/i&gt;" style="text;whiteSpace=wrap;html=1;" parent="berjVdsdgL8grTKteqkr-1" vertex="1">
          <mxGeometry x="206" y="941" width="50" height="40" as="geometry" />
        </mxCell>
        <mxCell id="qgMCNEnHbo8gnDN44Nzg-129" value="" style="edgeStyle=orthogonalEdgeStyle;rounded=0;orthogonalLoop=1;jettySize=auto;html=1;entryX=0;entryY=0.5;entryDx=0;entryDy=0;endArrow=block;endFill=1;" parent="berjVdsdgL8grTKteqkr-1" source="qgMCNEnHbo8gnDN44Nzg-33" target="qgMCNEnHbo8gnDN44Nzg-130" edge="1">
          <mxGeometry relative="1" as="geometry">
            <mxPoint x="270" y="462" as="sourcePoint" />
            <mxPoint x="799" y="462" as="targetPoint" />
          </mxGeometry>
        </mxCell>
        <mxCell id="qgMCNEnHbo8gnDN44Nzg-130" value="&lt;font face=&quot;GOST type B&quot;&gt;&lt;span style=&quot;font-size: 11.29px;&quot;&gt;&lt;i&gt;Устанавливаем значение переменной, отвечающей за выполнение данного условия, в True&lt;/i&gt;&lt;/span&gt;&lt;/font&gt;" style="rounded=0;whiteSpace=wrap;html=1;" parent="berjVdsdgL8grTKteqkr-1" vertex="1">
          <mxGeometry x="339" y="400" width="130" height="60" as="geometry" />
        </mxCell>
        <mxCell id="qgMCNEnHbo8gnDN44Nzg-131" style="edgeStyle=orthogonalEdgeStyle;rounded=0;orthogonalLoop=1;jettySize=auto;html=1;entryX=0;entryY=0.5;entryDx=0;entryDy=0;endArrow=block;endFill=1;" parent="berjVdsdgL8grTKteqkr-1" source="qgMCNEnHbo8gnDN44Nzg-132" target="qgMCNEnHbo8gnDN44Nzg-135" edge="1">
          <mxGeometry relative="1" as="geometry" />
        </mxCell>
        <mxCell id="qgMCNEnHbo8gnDN44Nzg-132" value="&lt;font face=&quot;GOST TYPE B&quot;&gt;1&lt;/font&gt;" style="ellipse;whiteSpace=wrap;html=1;aspect=fixed;" parent="berjVdsdgL8grTKteqkr-1" vertex="1">
          <mxGeometry x="74" y="535" width="30" height="30" as="geometry" />
        </mxCell>
        <mxCell id="qgMCNEnHbo8gnDN44Nzg-133" style="edgeStyle=orthogonalEdgeStyle;rounded=0;orthogonalLoop=1;jettySize=auto;html=1;entryX=0;entryY=0.5;entryDx=0;entryDy=0;endArrow=block;endFill=1;" parent="berjVdsdgL8grTKteqkr-1" source="qgMCNEnHbo8gnDN44Nzg-135" target="qgMCNEnHbo8gnDN44Nzg-137" edge="1">
          <mxGeometry relative="1" as="geometry" />
        </mxCell>
        <mxCell id="qgMCNEnHbo8gnDN44Nzg-134" style="edgeStyle=orthogonalEdgeStyle;rounded=0;orthogonalLoop=1;jettySize=auto;html=1;entryX=0.5;entryY=0;entryDx=0;entryDy=0;endArrow=block;endFill=1;" parent="berjVdsdgL8grTKteqkr-1" edge="1">
          <mxGeometry relative="1" as="geometry">
            <mxPoint x="199.46216450216446" y="589.9987631416202" as="sourcePoint" />
            <mxPoint x="199.46000000000004" y="605" as="targetPoint" />
          </mxGeometry>
        </mxCell>
        <mxCell id="qgMCNEnHbo8gnDN44Nzg-135" value="&lt;font face=&quot;GOST type B&quot;&gt;&lt;span style=&quot;font-size: 11.29px;&quot;&gt;&lt;i&gt;Переменная, отвечающая за выполнение предыдущего условия, установлена в False?&lt;/i&gt;&lt;/span&gt;&lt;/font&gt;" style="rhombus;whiteSpace=wrap;html=1;" parent="berjVdsdgL8grTKteqkr-1" vertex="1">
          <mxGeometry x="129.5" y="510" width="140" height="80" as="geometry" />
        </mxCell>
        <mxCell id="qgMCNEnHbo8gnDN44Nzg-136" value="&lt;font face=&quot;GOST type B&quot;&gt;&lt;span style=&quot;font-size: 11.29px; background-color: rgb(255, 255, 255);&quot;&gt;&lt;i&gt;Да&lt;/i&gt;&lt;/span&gt;&lt;/font&gt;" style="text;html=1;align=center;verticalAlign=middle;resizable=0;points=[];autosize=1;strokeColor=none;fillColor=none;" parent="berjVdsdgL8grTKteqkr-1" vertex="1">
          <mxGeometry x="195" y="579" width="40" height="30" as="geometry" />
        </mxCell>
        <mxCell id="qgMCNEnHbo8gnDN44Nzg-137" value="&lt;font face=&quot;GOST TYPE B&quot;&gt;2&lt;/font&gt;" style="ellipse;whiteSpace=wrap;html=1;aspect=fixed;" parent="berjVdsdgL8grTKteqkr-1" vertex="1">
          <mxGeometry x="324.5" y="535" width="30" height="30" as="geometry" />
        </mxCell>
        <mxCell id="qgMCNEnHbo8gnDN44Nzg-138" value="&lt;i style=&quot;forced-color-adjust: none; color: rgb(0, 0, 0); font-family: &amp;quot;GOST type B&amp;quot;; font-size: 11.29px; font-variant-ligatures: normal; font-variant-caps: normal; font-weight: 400; letter-spacing: normal; orphans: 2; text-align: center; text-indent: 0px; text-transform: none; widows: 2; word-spacing: 0px; -webkit-text-stroke-width: 0px; white-space: nowrap; background-color: rgb(255, 255, 255); text-decoration-thickness: initial; text-decoration-style: initial; text-decoration-color: initial;&quot;&gt;Нет&lt;/i&gt;" style="text;whiteSpace=wrap;html=1;" parent="berjVdsdgL8grTKteqkr-1" vertex="1">
          <mxGeometry x="282" y="525" width="30" height="25" as="geometry" />
        </mxCell>
        <mxCell id="qgMCNEnHbo8gnDN44Nzg-139" style="edgeStyle=orthogonalEdgeStyle;rounded=0;orthogonalLoop=1;jettySize=auto;html=1;entryX=0;entryY=0.5;entryDx=0;entryDy=0;endArrow=block;endFill=1;" parent="berjVdsdgL8grTKteqkr-1" target="qgMCNEnHbo8gnDN44Nzg-1" edge="1">
          <mxGeometry relative="1" as="geometry">
            <mxPoint x="99.49" y="64.92999999999978" as="sourcePoint" />
            <mxPoint x="114.99000000000001" y="64.93000000000023" as="targetPoint" />
            <Array as="points">
              <mxPoint x="110" y="65" />
            </Array>
          </mxGeometry>
        </mxCell>
        <mxCell id="qgMCNEnHbo8gnDN44Nzg-140" value="&lt;font face=&quot;GOST TYPE B&quot;&gt;7&lt;/font&gt;" style="ellipse;whiteSpace=wrap;html=1;aspect=fixed;" parent="berjVdsdgL8grTKteqkr-1" vertex="1">
          <mxGeometry x="74" y="50" width="30" height="30" as="geometry" />
        </mxCell>
        <mxCell id="qgMCNEnHbo8gnDN44Nzg-141" value="&lt;font face=&quot;GOST TYPE B&quot;&gt;8&lt;/font&gt;" style="ellipse;whiteSpace=wrap;html=1;aspect=fixed;" parent="berjVdsdgL8grTKteqkr-1" vertex="1">
          <mxGeometry x="184.5" y="991" width="30" height="30" as="geometry" />
        </mxCell>
        <mxCell id="qgMCNEnHbo8gnDN44Nzg-142" value="&lt;font face=&quot;GOST TYPE B&quot;&gt;9&lt;/font&gt;" style="ellipse;whiteSpace=wrap;html=1;aspect=fixed;" parent="berjVdsdgL8grTKteqkr-1" vertex="1">
          <mxGeometry x="670" y="991" width="30" height="30" as="geometry" />
        </mxCell>
      </root>
    </mxGraphModel>
  </diagram>
</mxfile>
